<?xml version="1.0" encoding="utf-8"?>
<!-- Generator: Adobe Illustrator 27.5.0, SVG Export Plug-In . SVG Version: 6.00 Build 0)  -->
<svg version="1.1" id="Layer_1" xmlns="http://www.w3.org/2000/svg" xmlns:xlink="http://www.w3.org/1999/xlink" x="0px" y="0px"
	 viewBox="0 0 580.949 400" style="enable-background:new 0 0 580.949 400;" xml:space="preserve">
<g>
	<rect x="0.006" style="fill:#EFEFF4;" width="580.944" height="400"/>
</g>
<g>
	<rect x="1.009" y="281.477" style="fill:#E6E6ED;" width="579.94" height="92.371"/>
</g>
<g>
	<g>
		<path style="fill:#CCCCD6;" d="M202.843,293.046l355.246,0c1.493,0,0.289-1.28-0.068-2.607L495.388,57.074
			c-0.253-0.941-1.175-1.603-2.234-1.603H152.98c-7.99,0-13.864,6.855-11.959,13.954l59.588,222.017
			C200.862,292.384,201.785,293.046,202.843,293.046z"/>
	</g>
	<g>
		<polygon style="fill:#D4D4DD;" points="431.345,315.116 73.663,315.116 137.427,55.471 495.109,55.471 		"/>
	</g>
	<g>
		<polygon style="fill:#EDEDF4;" points="149.32,88.979 104.315,284.145 418.38,286.309 474.191,66.435 		"/>
	</g>
	<g>
		<polygon style="fill:#FFFFFF;" points="144.976,67.517 93.904,285.227 411.752,286.987 467.564,67.114 		"/>
	</g>
	<g>
		<path style="fill:#D4D4DD;" d="M176.045,258.356c-0.071,0-0.143-0.007-0.215-0.021c-0.598-0.118-0.987-0.699-0.869-1.298
			l32.179-162.606c0.118-0.598,0.695-0.988,1.298-0.869c0.598,0.119,0.987,0.7,0.869,1.298l-32.179,162.607
			C177.023,257.992,176.561,258.356,176.045,258.356z"/>
	</g>
	<g>
		<path style="fill:#D4D4DD;" d="M230.678,258.878c-0.071,0-0.143-0.007-0.215-0.021c-0.598-0.118-0.987-0.699-0.869-1.298
			l32.282-163.127c0.117-0.599,0.69-0.989,1.298-0.869c0.598,0.119,0.987,0.7,0.868,1.298l-32.281,163.128
			C231.657,258.514,231.195,258.878,230.678,258.878z"/>
	</g>
	<g>
		<path style="fill:#D4D4DD;" d="M285.677,257.554c-0.071,0-0.143-0.007-0.216-0.022c-0.598-0.118-0.987-0.699-0.868-1.298
			l32.02-161.803c0.117-0.599,0.692-0.989,1.298-0.869c0.598,0.119,0.987,0.7,0.868,1.298l-32.02,161.804
			C286.655,257.19,286.193,257.554,285.677,257.554z"/>
	</g>
	<g>
		<path style="fill:#D4D4DD;" d="M340.188,258.688c-0.071,0-0.143-0.007-0.216-0.022c-0.598-0.118-0.987-0.699-0.868-1.298
			l32.244-162.937c0.118-0.599,0.69-0.989,1.298-0.869c0.598,0.119,0.987,0.7,0.868,1.298L341.27,257.798
			C341.167,258.323,340.705,258.688,340.188,258.688z"/>
	</g>
	<g>
		<path style="fill:#D4D4DD;" d="M396.917,257.554c-0.071,0-0.143-0.007-0.216-0.022c-0.598-0.118-0.987-0.699-0.868-1.298
			l31.834-160.867c0.117-0.599,0.692-0.987,1.298-0.869c0.598,0.119,0.987,0.7,0.868,1.298l-31.834,160.868
			C397.895,257.19,397.434,257.554,396.917,257.554z"/>
	</g>
	<g>
		<path style="fill:#D4D4DD;" d="M122.17,258.121c-0.071,0-0.143-0.007-0.215-0.021c-0.598-0.118-0.987-0.699-0.869-1.298
			L153.33,93.864c0.118-0.598,0.698-0.988,1.298-0.869c0.598,0.119,0.987,0.7,0.869,1.298l-32.244,162.939
			C123.149,257.757,122.687,258.121,122.17,258.121z"/>
	</g>
	<g>
		<path style="fill:#D4D4DD;" d="M421.216,148.289H121.158c-0.61,0-1.104-0.495-1.104-1.105c0-0.61,0.495-1.104,1.104-1.104h300.058
			c0.61,0,1.104,0.495,1.104,1.104C422.32,147.794,421.826,148.289,421.216,148.289z"/>
	</g>
	<g>
		<path style="fill:#D4D4DD;" d="M457.771,95.75H133.263c-0.61,0-1.105-0.495-1.105-1.104s0.495-1.104,1.105-1.104h324.508
			c0.61,0,1.105,0.495,1.105,1.104S458.382,95.75,457.771,95.75z"/>
	</g>
	<g>
		<path style="fill:#D4D4DD;" d="M432.283,204.347h-320.02c-0.61,0-1.104-0.494-1.104-1.104c0-0.61,0.495-1.105,1.104-1.105h320.02
			c0.61,0,1.104,0.494,1.104,1.105C433.388,203.852,432.894,204.347,432.283,204.347z"/>
	</g>
	<g>
		<path style="fill:#D4D4DD;" d="M418.65,258.143H98.63c-0.61,0-1.104-0.494-1.104-1.105c0-0.61,0.495-1.104,1.104-1.104h320.02
			c0.61,0,1.104,0.494,1.104,1.104C419.755,257.648,419.261,258.143,418.65,258.143z"/>
	</g>
	<g>
		
			<ellipse transform="matrix(0.7071 -0.7071 0.7071 0.7071 -5.8958 204.8805)" style="fill:#EA366E;" cx="244.365" cy="109.557" rx="7.491" ry="7.491"/>
	</g>
	<g>
		<path style="fill:#EA366E;" d="M353.294,159.119c0,4.137-3.354,7.491-7.491,7.491c-4.137,0-7.491-3.354-7.491-7.491
			s3.354-7.491,7.491-7.491C349.94,151.628,353.294,154.982,353.294,159.119z"/>
	</g>
	<g>
		<path style="fill:#E3E2ED;" d="M189.958,116.587h-25.453c-0.717,0-1.298-0.582-1.298-1.298s0.582-1.298,1.298-1.298h25.453
			c0.717,0,1.298,0.582,1.298,1.298S190.675,116.587,189.958,116.587z"/>
	</g>
	<g>
		<path style="fill:#E3E2ED;" d="M187.078,127.839h-25.454c-0.717,0-1.298-0.582-1.298-1.298c0-0.717,0.581-1.298,1.298-1.298
			h25.454c0.717,0,1.298,0.581,1.298,1.298C188.376,127.257,187.794,127.839,187.078,127.839z"/>
	</g>
	<g>
		<path style="fill:#E3E2ED;" d="M289.22,173.525h-25.453c-0.717,0-1.298-0.581-1.298-1.298c0-0.717,0.581-1.298,1.298-1.298h25.453
			c0.717,0,1.298,0.582,1.298,1.298C290.518,172.943,289.936,173.525,289.22,173.525z"/>
	</g>
	<g>
		<path style="fill:#E3E2ED;" d="M286.339,184.776h-25.453c-0.717,0-1.298-0.582-1.298-1.298s0.581-1.298,1.298-1.298h25.453
			c0.717,0,1.298,0.581,1.298,1.298S287.056,184.776,286.339,184.776z"/>
	</g>
	<g>
		<path style="fill:#E3E2ED;" d="M222.276,230.648h-25.453c-0.717,0-1.298-0.581-1.298-1.298s0.581-1.298,1.298-1.298h25.453
			c0.717,0,1.298,0.581,1.298,1.298S222.993,230.648,222.276,230.648z"/>
	</g>
	<g>
		<path style="fill:#E3E2ED;" d="M389.795,227.315h-25.453c-0.717,0-1.298-0.581-1.298-1.298c0-0.717,0.581-1.298,1.298-1.298
			h25.453c0.717,0,1.298,0.581,1.298,1.298C391.093,226.734,390.512,227.315,389.795,227.315z"/>
	</g>
	<g>
		<path style="fill:#E3E2ED;" d="M386.915,238.566h-25.453c-0.717,0-1.298-0.581-1.298-1.298s0.581-1.298,1.298-1.298h25.453
			c0.717,0,1.298,0.581,1.298,1.298S387.632,238.566,386.915,238.566z"/>
	</g>
	<g>
		<path style="fill:#E3E2ED;" d="M276.607,227.681h-25.454c-0.717,0-1.298-0.581-1.298-1.298s0.581-1.298,1.298-1.298h25.454
			c0.717,0,1.298,0.581,1.298,1.298S277.324,227.681,276.607,227.681z"/>
	</g>
	<g>
		<path style="fill:#E3E2ED;" d="M273.727,238.932h-25.453c-0.717,0-1.298-0.581-1.298-1.298s0.581-1.298,1.298-1.298h25.453
			c0.717,0,1.298,0.581,1.298,1.298S274.443,238.932,273.727,238.932z"/>
	</g>
	<g>
		<path style="fill:#EA366E;" d="M293.371,248.533c-0.44,0-0.871-0.226-1.114-0.631c-0.369-0.615-0.17-1.412,0.445-1.781
			l48.65-29.19c0.614-0.366,1.412-0.169,1.781,0.445c0.369,0.615,0.17,1.412-0.445,1.781l-48.65,29.191
			C293.829,248.473,293.599,248.533,293.371,248.533z"/>
	</g>
	<g>
		<path style="fill:#EA366E;" d="M335.765,250.499c-0.319,0-0.639-0.116-0.889-0.351l-33.161-31.157
			c-0.522-0.491-0.549-1.313-0.058-1.835c0.492-0.524,1.314-0.548,1.835-0.058l33.161,31.157c0.522,0.491,0.549,1.313,0.058,1.835
			C336.455,250.362,336.11,250.499,335.765,250.499z"/>
	</g>
	<g>
		<polygon style="fill:#FFAF45;" points="142.978,207.107 140.225,212.256 134.423,212.907 138.469,217.116 137.296,222.835 
			142.549,220.288 147.626,223.171 146.826,217.388 151.137,213.451 145.39,212.424 		"/>
	</g>
	<g>
		<polygon style="fill:#FFAF45;" points="206.772,149.68 204.02,154.829 198.218,155.48 202.264,159.689 201.09,165.408 
			206.344,162.861 211.42,165.744 210.621,159.96 214.932,156.023 209.184,154.997 		"/>
	</g>
	<g>
		<circle style="fill:#E2E2E8;" cx="152.771" cy="77.974" r="6.491"/>
	</g>
	<g>
		<path style="fill:#E2E2E8;" d="M221.442,77.974c0,3.585-2.906,6.491-6.491,6.491c-3.585,0-6.491-2.906-6.491-6.491
			c0-3.585,2.906-6.491,6.491-6.491C218.536,71.483,221.442,74.389,221.442,77.974z"/>
	</g>
	<g>
		<circle style="fill:#E2E2E8;" cx="277.132" cy="77.974" r="6.491"/>
	</g>
	<g>
		<circle style="fill:#E2E2E8;" cx="339.312" cy="77.974" r="6.491"/>
	</g>
	<g>
		<circle style="fill:#E2E2E8;" cx="401.492" cy="77.974" r="6.491"/>
	</g>
	<g>
		<circle style="fill:#E2E2E8;" cx="456.07" cy="77.974" r="6.491"/>
	</g>
	<g>
		<path style="fill:#ADA4F7;" d="M456.102,79.272c-0.056,0-0.11-0.003-0.167-0.011c-0.711-0.091-1.214-0.741-1.123-1.452
			c0.524-4.101,5.471-40.143,17.468-42.861c2.655-0.603,4.977-0.11,6.907,1.46c5.927,4.823,5.745,18.507,5.734,19.087
			c-0.014,0.716-0.584,1.251-1.321,1.274c-0.717-0.013-1.287-0.604-1.274-1.321c0.064-3.603-0.671-13.686-4.779-17.027
			c-1.297-1.055-2.833-1.362-4.692-0.94c-8.67,1.964-14.103,30.015-15.466,40.658C457.304,78.794,456.745,79.272,456.102,79.272z"/>
	</g>
	<g>
		<path style="fill:#ADA4F7;" d="M401.494,79.272c-0.056,0-0.11-0.003-0.167-0.011c-0.711-0.091-1.214-0.741-1.123-1.452
			c0.525-4.101,5.472-40.143,17.468-42.861c2.654-0.603,4.979-0.11,6.907,1.46c5.927,4.823,5.745,18.507,5.734,19.087
			c-0.014,0.716-0.587,1.251-1.321,1.274c-0.717-0.013-1.287-0.604-1.274-1.321c0.063-3.603-0.671-13.686-4.779-17.027
			c-1.297-1.055-2.832-1.362-4.692-0.94c-8.673,1.965-14.104,30.016-15.466,40.658C402.696,78.794,402.138,79.272,401.494,79.272z"
			/>
	</g>
	<g>
		<path style="fill:#ADA4F7;" d="M339.346,79.272c-0.056,0-0.11-0.003-0.167-0.011c-0.711-0.091-1.214-0.741-1.123-1.452
			c0.524-4.101,5.471-40.143,17.468-42.861c2.654-0.603,4.979-0.11,6.907,1.46c5.927,4.823,5.745,18.507,5.734,19.087
			c-0.013,0.716-0.635,1.251-1.321,1.274c-0.717-0.013-1.287-0.604-1.274-1.321c0.063-3.603-0.671-13.686-4.779-17.027
			c-1.297-1.055-2.832-1.362-4.692-0.94c-8.67,1.964-14.104,30.015-15.466,40.658C340.548,78.794,339.989,79.272,339.346,79.272z"/>
	</g>
	<g>
		<path style="fill:#ADA4F7;" d="M277.134,79.272c-0.056,0-0.11-0.003-0.167-0.011c-0.711-0.091-1.214-0.741-1.123-1.452
			c0.524-4.101,5.471-40.143,17.468-42.861c2.654-0.603,4.979-0.11,6.907,1.46c5.927,4.823,5.745,18.507,5.734,19.087
			c-0.013,0.716-0.618,1.251-1.321,1.274c-0.717-0.013-1.287-0.604-1.274-1.321c0.064-3.603-0.671-13.686-4.779-17.027
			c-1.296-1.055-2.832-1.362-4.692-0.94c-8.67,1.964-14.103,30.015-15.466,40.658C278.336,78.794,277.777,79.272,277.134,79.272z"/>
	</g>
	<g>
		<path style="fill:#ADA4F7;" d="M215.254,79.272c-0.055,0-0.11-0.003-0.166-0.011c-0.711-0.091-1.214-0.741-1.123-1.452
			c0.524-4.101,5.471-40.143,17.467-42.861c2.654-0.604,4.979-0.11,6.908,1.46c5.927,4.824,5.745,18.507,5.734,19.087
			c-0.013,0.716-0.578,1.251-1.321,1.274c-0.717-0.013-1.287-0.604-1.274-1.321c0.063-3.603-0.671-13.686-4.779-17.027
			c-1.296-1.055-2.833-1.362-4.693-0.94c-8.672,1.965-14.105,30.016-15.466,40.658C216.456,78.794,215.897,79.272,215.254,79.272z"
			/>
	</g>
	<g>
		<path style="fill:#ADA4F7;" d="M152.772,79.272c-0.055,0-0.11-0.003-0.166-0.011c-0.711-0.091-1.214-0.741-1.123-1.452
			c0.524-4.101,5.471-40.143,17.467-42.861c2.654-0.604,4.979-0.11,6.908,1.46c5.927,4.824,5.745,18.507,5.734,19.087
			c-0.013,0.709-0.591,1.274-1.297,1.274c-0.741-0.013-1.311-0.604-1.298-1.321c0.063-3.603-0.671-13.686-4.779-17.027
			c-1.296-1.055-2.832-1.362-4.693-0.94c-8.669,1.964-14.104,30.015-15.466,40.658C153.975,78.794,153.416,79.272,152.772,79.272z"
			/>
	</g>
	<g>
		<polygon style="fill:#ADA4F7;" points="267.444,102.066 319.889,102.066 311.444,157.071 255.528,156.545 		"/>
	</g>
	<g>
		<polygon style="fill:#8758E7;" points="264.628,114.94 280.734,102.066 267.444,102.066 		"/>
	</g>
	<g>
		<path style="fill:#FFFFFF;" d="M307.444,118.136h-35.171c-0.602,0-1.089-0.487-1.089-1.088c0-0.601,0.487-1.088,1.089-1.088
			h35.171c0.602,0,1.089,0.487,1.089,1.088C308.533,117.649,308.046,118.136,307.444,118.136z"/>
	</g>
</g>
<g>
	<g>
		<path style="fill:#FC8165;" d="M445.315,165.361c0,0,15.818,17.458,32.558,11.613c15.963-5.573-2.099-16.154-2.099-16.154
			s-16.466,0.198-29.174-5.827C436.355,150.136,445.315,165.361,445.315,165.361z"/>
	</g>
	<g>
		<path style="fill:#FC8165;" d="M440.26,162.784c0,0,3.296,3.659,6.341,2.277c3.045-1.382,0-10.067,0-10.067L440.26,162.784z"/>
	</g>
	<g>
		<polygon style="fill:#FFAF45;" points="440.113,187.397 385.036,187.397 392.731,132.32 447.808,132.32 		"/>
	</g>
	<g>
		<path style="fill:#69AAF7;" d="M478.969,298.683c0,0-13.991,9.305-17.836,14.121c-3.845,4.816-3.668,7.7-2.959,9.031
			c0.709,1.33,31.55-4.442,31.55-4.442s-0.867-8.573,2.518-8.489c3.384,0.084,2.656,7.976,2.656,7.976l9.371-1.413
			c0,0-0.764-8.537-1.914-11.768c-1.241-3.486-4.009-8.04-4.009-8.04L478.969,298.683z"/>
	</g>
	<g>
		<path style="fill:#FC8165;" d="M488.171,241.842c0,0-2.412,12.236,7.441,26.506c11.297,16.361,18.807,24.448,18.807,24.448
			l15.429-5.743c0,0-17.8-34.216-19.467-48.614C508.714,224.041,488.171,241.842,488.171,241.842z"/>
	</g>
	<g>
		<path style="fill:#FC8165;" d="M471.715,237.694c0,0,0.833,15.628,4.621,32.55c3.787,16.922,6.329,26.906,6.329,26.906
			l15.681-1.492c0,0-5.052-37.287-3.893-51.725C495.613,229.486,471.715,237.694,471.715,237.694z"/>
	</g>
	<g>
		<path style="fill:#75B2FC;" d="M512.712,296.513c0,0-10.063,13.456-12.072,19.281c-2.009,5.826-0.875,8.484,0.238,9.5
			c1.113,1.016,28.237-14.758,28.237-14.758s-3.689-7.787-0.473-8.842c3.216-1.055,5.175,6.624,5.175,6.624l8.356-4.471
			c0,0-3.581-7.788-5.747-10.446c-2.338-2.868-6.79-6.908-6.79-6.908L512.712,296.513z"/>
	</g>
	<g>
		<path style="fill:#FC8165;" d="M481.823,295.752c0,0-11.884,9.107-9.421,9.531c2.463,0.424,15.788-1.326,19.488-3.296
			c3.701-1.97,6.394-6.475,6.394-6.475l-9.447-2.943L481.823,295.752z"/>
	</g>
	<g>
		<g>
			<path style="fill:#D82A60;" d="M498.094,246.585c-1.539,0.238-3.147,0.441-4.822,0.623c-2.513,0.272-4.913,0.34-7.165,0.26
				c-6.068-0.215-11.195-1.483-15.033-2.807c-0.996-15.191,1.336-29.919,3.724-40.344c1.721-7.573,3.487-12.871,4.019-14.444
				c0.124-0.317,0.181-0.487,0.181-0.487l7.199,0.872l1.279,0.159l0.181,0.973l1.89,9.995L498.094,246.585z"/>
		</g>
	</g>
	<g>
		<path style="fill:#EA366E;" d="M490.249,191.83l-0.702,9.554l-0.69,9.486l-6.169-2.875l-7.89-3.679
			c1.721-7.573,3.487-12.871,4.019-14.444l4.528,0.781l4.313,0.736L490.249,191.83z"/>
	</g>
	<g>
		<g>
			<path style="fill:#EA366E;" d="M514.524,216.767c-0.14,17.29-1.268,23.39-1.268,23.39s0.438,0.934,1.174,2.537
				c-3.84,1.302-9.355,2.837-16.33,3.891c-1.54,0.234-3.15,0.445-4.831,0.626c-2.506,0.269-4.905,0.332-7.167,0.254
				c-1.194-2.971-1.906-5.045-2.163-5.566c-2.918-5.915-0.592-51.32-0.592-51.32l2.854-0.318l19.787,0.195
				C505.988,190.456,514.663,199.469,514.524,216.767z"/>
		</g>
	</g>
	<g>
		<path style="fill:#FC8165;" d="M514.419,292.796c0,0-8.145,12.563-5.682,12.137c2.463-0.426,14.431-6.54,17.257-9.637
			c2.827-3.096,3.643-8.802,3.643-8.802l-9.676,0.952L514.419,292.796z"/>
	</g>
	<g>
		<path style="fill:#FF6C61;" d="M494.915,267.684c-0.079,0-0.158-0.035-0.212-0.102c-6.218-7.736-7.458-18.246-7.47-18.352
			c-0.017-0.149,0.091-0.284,0.24-0.301c0.149-0.016,0.284,0.092,0.301,0.24c0.012,0.104,1.236,10.461,7.353,18.07
			c0.095,0.117,0.075,0.289-0.041,0.383C495.035,267.664,494.975,267.684,494.915,267.684z"/>
	</g>
	<g>
		<path style="fill:#FFAF45;" d="M483.973,243.157c-0.122,0-0.233-0.082-0.264-0.205c-3.1-12.206-1.139-32.347-0.924-34.433
			l-4.536-2.707c-0.129-0.077-0.171-0.244-0.094-0.373c0.077-0.129,0.245-0.171,0.373-0.094l4.686,2.796
			c0.091,0.055,0.142,0.157,0.131,0.264c-0.023,0.215-2.34,21.689,0.892,34.412c0.037,0.146-0.051,0.294-0.196,0.331
			C484.018,243.154,483.994,243.157,483.973,243.157z"/>
	</g>
	<g>
		<path style="fill:#FFA233;" d="M476.975,246.583c-0.127,0-0.24-0.089-0.267-0.218c-3.429-16.696,1.365-40.601,1.414-40.841
			c0.03-0.146,0.168-0.246,0.321-0.212c0.146,0.03,0.242,0.174,0.212,0.321c-0.049,0.238-4.82,24.035-1.414,40.622
			c0.03,0.147-0.064,0.291-0.212,0.321C477.011,246.581,476.992,246.583,476.975,246.583z"/>
	</g>
	<g>
		<path style="fill:#FFAF45;" d="M510.191,240.706c-0.908,0-1.685-0.116-1.906-0.479c-0.073-0.121-0.158-0.374,0.092-0.717
			c1.087-1.496,4.602,0.205,5,0.403c0.105,0.053,0.165,0.168,0.146,0.285c-0.018,0.117-0.11,0.209-0.227,0.227
			C512.563,240.538,511.282,240.706,510.191,240.706z M509.848,239.442c-0.451,0-0.826,0.108-1.031,0.389
			c-0.061,0.085-0.063,0.123-0.063,0.124c0.156,0.253,1.699,0.269,3.505,0.062C511.519,239.727,510.582,239.442,509.848,239.442z"/>
	</g>
	<g>
		<path style="fill:#FC8165;" d="M506.077,143.644c0,0,8.843-15.579,9.004-25.457s9.4-0.835,9.4-0.835l1.822,3.726
			c0,0,0.583,21.933-6.934,29.768C510.146,160.459,506.077,143.644,506.077,143.644z"/>
	</g>
	<g>
		<path style="fill:#FFAF45;" d="M506.931,244.679c-0.167-0.011-0.281-0.14-0.272-0.29c0.014-0.212,1.341-21.328,1.341-28.667
			c0-9.261-4.214-20.664-4.257-20.777c-0.053-0.141,0.018-0.297,0.16-0.35c0.141-0.053,0.297,0.019,0.35,0.16
			c0.043,0.115,4.292,11.61,4.292,20.968c0,7.356-1.329,28.489-1.343,28.702C507.193,244.567,507.073,244.679,506.931,244.679z"/>
	</g>
	<g>
		<path style="fill:#FFAF45;" d="M500.377,246.487c-0.162-0.008-0.278-0.135-0.272-0.285c0.008-0.177,0.807-17.833,0.807-25.438
			c0-10.433-3.055-25.708-3.085-25.862c-0.03-0.147,0.065-0.29,0.213-0.32c0.151-0.031,0.29,0.065,0.32,0.213
			c0.031,0.153,3.097,15.482,3.097,25.969c0,7.617-0.8,25.285-0.809,25.463C500.643,246.373,500.521,246.487,500.377,246.487z"/>
	</g>
	<g>
		<path style="fill:#FFAF45;" d="M494.915,247.29c-0.144,0-0.264-0.112-0.271-0.257c-0.01-0.162-0.923-16.28-1.087-23
			c-0.191-7.849-2.333-29.742-2.354-29.962c-0.015-0.149,0.095-0.283,0.244-0.297c0.148-0.003,0.282,0.096,0.297,0.245
			c0.021,0.22,2.166,22.133,2.358,30.001c0.162,6.711,1.076,22.82,1.085,22.982c0.009,0.15-0.106,0.278-0.256,0.287
			C494.925,247.289,494.92,247.29,494.915,247.29z"/>
	</g>
	<g>
		<path style="fill:#FFAF45;" d="M488.852,247.757c-0.124,0-0.235-0.085-0.265-0.21c-3.247-13.839-2.139-53.115-2.128-53.51
			c0.005-0.151,0.138-0.263,0.28-0.264c0.15,0.004,0.268,0.13,0.265,0.28c-0.012,0.395-1.118,39.6,2.112,53.369
			c0.034,0.146-0.057,0.293-0.202,0.327C488.893,247.754,488.872,247.757,488.852,247.757z"/>
	</g>
	<g>
		<path style="fill:#FFAF45;" d="M480.893,207.346c-0.182-0.021-0.288-0.156-0.27-0.305l1.576-13.029
			c0.018-0.149,0.154-0.256,0.303-0.237c0.149,0.018,0.256,0.153,0.238,0.303l-1.576,13.028
			C481.146,207.244,481.028,207.346,480.893,207.346z"/>
	</g>
	<g>
		<g>
			<path style="fill:#FC8165;" d="M525.024,124.423c0,0,3.433-8.102,3.775-13.618c0.342-5.516-0.788-7.466-1.599-7.631
				c-0.811-0.165-1.795,3.239-1.795,3.239s0.179-5.192-1.605-5.522s-2.447,4.211-2.447,4.211s-0.637-3.734-2.1-3.09
				c-1.462,0.645-1.976,9.08-1.976,9.08s-1.122-4.222-2.26-3.739c-1.137,0.483-1.968,6.646-1.164,8.921
				c0.804,2.274,2.905,5.039,2.905,5.039L525.024,124.423z"/>
		</g>
	</g>
	<g>
		<path d="M520.543,119.059c-0.145,0-0.265-0.113-0.272-0.259c-0.267-5.655-3.107-7.456-3.136-7.474
			c-0.128-0.078-0.168-0.245-0.091-0.374c0.078-0.127,0.243-0.171,0.373-0.092c0.127,0.077,3.116,1.945,3.396,7.914
			c0.008,0.15-0.108,0.277-0.259,0.285C520.552,119.059,520.547,119.059,520.543,119.059z"/>
	</g>
	<g>
		<path d="M526.102,112.607c-0.027,0-0.056-0.004-0.083-0.013l-8.703-2.778c-0.143-0.046-0.222-0.199-0.176-0.342
			c0.045-0.143,0.2-0.224,0.342-0.177l8.703,2.778c0.143,0.046,0.222,0.199,0.176,0.342
			C526.325,112.533,526.218,112.607,526.102,112.607z"/>
	</g>
	<g>
		<g>
			<path d="M489.66,131.471c0,0,5.232-2.904,10.306,1.322c5.074,4.227,0.917,9.211,4.695,11.633
				c3.778,2.421,7.358,5.201,6.803,9.262c-0.555,4.061,1.255,9.07,4.704,7.122c5.252-2.967,15.73,12.679,8.063,18.782
				c-16.548,13.172-39.139-18.249-39.139-18.249s-5.153-2.707-3.823-9.714C482.197,146.743,489.672,139.055,489.66,131.471z"/>
		</g>
	</g>
	<g>
		<g>
			<path d="M502.372,136.255c0,0-0.584,5.315,3.186,6.757c2.985,1.141,5.671,1.597,7.049,5.741c1.348,4.057-1.228,6.612,1.834,9.076
				c3.062,2.464,4.51-0.327,8.995,2.454c5.923,3.672,2.557,10.967-0.616,11.204c-3.173,0.237-16.94-10.266-16.94-10.266
				l-8.403-21.812L502.372,136.255z"/>
		</g>
	</g>
	<g>
		<g>
			<g>
				<g>
					<path style="fill:#FC8165;" d="M497.302,148.835l-0.169,6.736c0,0-1.264,1.906-5.212,2.128
						c-2.942,0.165-3.833-1.366-3.833-1.366l0.859-5.877l7.155-1.387L497.302,148.835z"/>
				</g>
			</g>
		</g>
	</g>
	<g>
		<g>
			<g>
				<g>
					<path d="M497.302,148.424c-0.022,0.184-0.097,0.399-0.212,0.645c-1.592,3.327-6.931,4.594-8.631,4.704l0.487-3.317
						L497.302,148.424z"/>
				</g>
			</g>
		</g>
	</g>
	<g>
		<g>
			<g>
				<g>
					<path style="fill:#FC8165;" d="M487.829,135.064c0,0-3.747,8.357-2.471,13.085c1.276,4.728,5.579,4.027,8.158,3.14
						c2.579-0.887,3.787-2.452,3.787-2.452s2.393,0.837,4.02-1.38c1.627-2.217,0.663-4.791-0.702-5.391
						c-1.365-0.601-3.005,0.373-3.005,0.373l1.301-2.427C498.917,140.012,493.66,127.566,487.829,135.064z"/>
				</g>
			</g>
		</g>
	</g>
	<g>
		<g>
			<g>
				<g>
					<path d="M497.616,142.439c0,0-3.609,0.728-6.116-3.288c-2.507-4.016-2.277-5.666-2.277-5.666l-2.498,4.146
						c0,0-0.559-2.875,0.591-4.708c1.15-1.833,2.344-1.453,2.344-1.453l7.958,1.988l2.095,6.379L497.616,142.439z"/>
				</g>
			</g>
		</g>
	</g>
	<g>
		<path d="M488.115,145.736c-0.116,0-0.225-0.075-0.26-0.192c-0.551-1.798,0.72-3.622,0.774-3.699
			c0.087-0.122,0.257-0.15,0.379-0.065c0.122,0.087,0.151,0.256,0.065,0.379c-0.012,0.017-1.17,1.685-0.699,3.225
			c0.044,0.144-0.036,0.296-0.18,0.34C488.168,145.732,488.142,145.736,488.115,145.736z"/>
	</g>
	<g>
		<path d="M497.962,146.381c-0.067,0-0.135-0.025-0.188-0.075c-0.108-0.104-0.113-0.275-0.01-0.385l2.287-2.409
			c0.103-0.11,0.274-0.114,0.385-0.01c0.108,0.104,0.113,0.275,0.01,0.385l-2.287,2.409
			C498.105,146.352,498.034,146.381,497.962,146.381z"/>
	</g>
	<g>
		<path d="M500.377,145.741c-0.042-0.003-1.618-0.247-1.618-0.247c-0.148-0.023-0.25-0.162-0.227-0.311
			c0.022-0.148,0.154-0.249,0.311-0.227l1.576,0.244c0.148,0.023,0.25,0.162,0.227,0.311
			C500.625,145.645,500.509,145.741,500.377,145.741z"/>
	</g>
	<g>
		<path style="fill:#8758E7;" d="M495.495,155.499c0,0,8.782-11.176,12.177-18.758l15.221,13.421
			c-6.206,11.898-10.304,18.021-10.304,18.021s-0.234,25.491-0.585,25.959c-0.351,0.468-9.91,2.595-20.645,2
			c-10.735-0.595-13.075-2.117-13.661-2.468c-0.586-0.351,4.449-33.752,4.449-33.752S487.065,155.612,495.495,155.499z"/>
	</g>
	<g>
		<path d="M491.235,148.189c-0.678,0-1.381-0.259-1.499-0.305c-0.092-0.035-0.157-0.117-0.172-0.213
			c-0.014-0.097,0.024-0.194,0.102-0.254l2.255-1.77c0.063-0.05,0.15-0.067,0.226-0.052c0.079,0.018,0.147,0.069,0.185,0.141
			c0.026,0.053,0.659,1.301-0.04,2.077C492.034,148.096,491.64,148.189,491.235,148.189z M490.41,147.523
			c0.512,0.13,1.209,0.221,1.477-0.076c0.286-0.317,0.191-0.824,0.085-1.15L490.41,147.523z"/>
	</g>
	<g>
		<path d="M486.499,138.862c-0.13,0-0.245-0.093-0.268-0.225c-0.025-0.148,0.074-0.289,0.222-0.315l1.49-0.259
			c0.143-0.028,0.289,0.073,0.315,0.221c0.025,0.148-0.074,0.289-0.222,0.315l-1.49,0.259
			C486.53,138.861,486.515,138.862,486.499,138.862z"/>
	</g>
	<g>
		<path d="M492.694,139.841c-0.042,0-0.084-0.009-0.123-0.029l-2.444-1.238c-0.134-0.068-0.188-0.231-0.12-0.366
			c0.069-0.135,0.235-0.186,0.366-0.12l2.444,1.238c0.134,0.068,0.188,0.231,0.12,0.366
			C492.889,139.787,492.793,139.841,492.694,139.841z"/>
	</g>
	<g>
		<path style="fill:#8758E7;" d="M487.244,157.071c0,0,0.371-1.434,0.745-2.035c0.375-0.6,2.291,0.007,4.891-0.403
			c2.6-0.41,3.876-1.88,4.324-1.931c0.449-0.051,0.757,1.58,0.757,1.58s-1.445,1.82-1.671,2.081S487.244,157.071,487.244,157.071z"
			/>
	</g>
	<g>
		<path style="fill:#50447E;" d="M492.694,157.02c-0.132,0-0.247-0.095-0.268-0.229c-0.023-0.148,0.077-0.288,0.226-0.311
			c0.916-0.146,3.431-0.744,4.063-1.738c0.08-0.126,0.25-0.164,0.375-0.084c0.127,0.081,0.165,0.249,0.084,0.376
			c-0.893,1.404-4.291,1.96-4.436,1.983C492.723,157.019,492.708,157.02,492.694,157.02z"/>
	</g>
	<g>
		<path style="fill:#8758E7;" d="M471.6,160.324c0,0,4.244-0.941,9.45-2.116c4.342-0.981,7.546-1.549,7.546-1.549l-3.504,24.225
			h-15.476L471.6,160.324z"/>
	</g>
	<g>
		<path style="fill:#FC8165;" d="M447.84,155.934c0,0-0.005-3.827-2.034-4.825c-1.841-0.906-6.133-2.596-6.559-0.946
			c-0.601,2.326,3.306,3.107,3.306,3.107s1.059,6.346,3.511,6.579C448.516,160.082,447.84,155.934,447.84,155.934z"/>
	</g>
	<g>
		<path d="M447.75,160.744c-4.27,0-4.88-5.117-4.886-5.168c-0.017-0.149,0.092-0.284,0.24-0.3c0.163-0.016,0.284,0.092,0.301,0.241
			c0.021,0.192,0.565,4.684,4.346,4.684c0.018,0,0.035-0.001,0.057,0c0.148,0,0.271,0.12,0.272,0.269
			c0.001,0.15-0.119,0.273-0.27,0.275C447.791,160.744,447.77,160.744,447.75,160.744z"/>
	</g>
	<g>
		<path d="M490.739,142.714c-0.026,0-0.053-0.004-0.08-0.012c-0.144-0.044-0.225-0.196-0.18-0.34l0.434-1.416l-0.421-0.911
			c-0.063-0.136-0.004-0.298,0.133-0.361c0.136-0.064,0.298-0.004,0.361,0.133l0.465,1.005c0.028,0.061,0.033,0.13,0.013,0.194
			l-0.465,1.515C490.964,142.639,490.855,142.714,490.739,142.714z"/>
	</g>
	<g>
		<path d="M486.499,142.307c-0.026,0-0.054-0.004-0.08-0.012c-0.143-0.044-0.225-0.197-0.18-0.34l0.434-1.412l-0.418-0.854
			c-0.066-0.135-0.011-0.298,0.124-0.364c0.137-0.068,0.299-0.011,0.364,0.124l0.466,0.951c0.03,0.062,0.036,0.133,0.016,0.2
			l-0.466,1.515C486.723,142.232,486.615,142.307,486.499,142.307z"/>
	</g>
	<g>
		<path style="fill:#50447E;" d="M479.371,180.697c-0.181-0.02-0.288-0.155-0.271-0.304l0.494-4.191
			c-3.739-10.413,4.625-16.506,4.71-16.566c0.123-0.087,0.293-0.059,0.379,0.064c0.087,0.122,0.059,0.292-0.065,0.379
			c-0.081,0.058-8.141,5.944-4.491,15.998c0.015,0.04,0.02,0.083,0.015,0.125l-0.501,4.254
			C479.625,180.596,479.508,180.697,479.371,180.697z"/>
	</g>
	<g>
		<path style="fill:#50447E;" d="M520.854,153.355c-0.065,0-0.132-0.023-0.184-0.071l-14.777-13.515
			c-0.111-0.101-0.118-0.273-0.018-0.384c0.101-0.11,0.275-0.118,0.385-0.017l14.777,13.515c0.111,0.101,0.118,0.273,0.018,0.384
			C521.002,153.326,520.928,153.355,520.854,153.355z"/>
	</g>
	<g>
		<path style="fill:#50447E;" d="M472.522,181.155c-0.179-0.018-0.287-0.152-0.27-0.302l2.275-20.7
			c0.017-0.149,0.148-0.258,0.3-0.241c0.15,0.017,0.258,0.151,0.241,0.3l-2.275,20.7
			C472.777,181.052,472.66,181.155,472.522,181.155z"/>
	</g>
	<g>
		<polygon style="fill:#FFCE94;" points="391.636,140.159 403.179,132.054 392.731,132.32 		"/>
	</g>
	<g>
		<path style="fill:#FFFFFF;" d="M433.653,152.187h-36.246c-0.602,0-1.089-0.487-1.089-1.088c0-0.601,0.487-1.088,1.089-1.088
			h36.246c0.602,0,1.089,0.487,1.089,1.088C434.742,151.7,434.255,152.187,433.653,152.187z"/>
	</g>
	<g>
		<path style="fill:#FFFFFF;" d="M430.751,162.795h-36.246c-0.602,0-1.089-0.487-1.089-1.088c0-0.601,0.487-1.088,1.089-1.088
			h36.246c0.601,0,1.089,0.487,1.089,1.088C431.84,162.308,431.352,162.795,430.751,162.795z"/>
	</g>
</g>
<g>
	<g>
		<polygon style="fill:#FC8165;" points="368.589,340.735 368.589,349.695 352.305,349.063 352.305,340.735 		"/>
	</g>
	<g>
		<polygon style="fill:#FC8165;" points="406.19,339.725 406.19,348.686 391.116,348.054 391.116,339.725 		"/>
	</g>
	<g>
		<path style="fill:#8758E7;" d="M413.476,341.528c0.283,1.2-26.025,1.89-26.919,1.007c-0.906-0.894-4.675-53.283-4.675-53.283
			s-0.113,0.487-0.294,1.358c-0.713,3.419-2.57,12.633-3.226,19.889c-0.815,9.079-3.871,32.035-3.871,32.035h-27.474
			c0,0,1.37-23.285,7.72-51.438c3.305-14.671,6.973-26.24,9.905-34.333c3.237-8.943,5.592-13.652,5.592-13.652
			s32.024-13.018,34.209,4.596C405.156,253.436,413.193,340.316,413.476,341.528z"/>
	</g>
	<g>
		<g>
			<g>
				<g>
					<path style="fill:#EA366E;" d="M387.374,361.945c0,1.581,0.513,3.39,1.563,3.846c1.05,0.455,9.551,1.404,16.988,0.734
						c7.12-0.645,8.598-1.189,9.123-1.86c0.256-0.342-0.244-1.923-0.818-3.454c-0.037-0.076-0.061-0.164-0.098-0.24
						c-0.293-0.772-0.598-1.518-0.818-2.049c-0.22-0.506-0.488-0.987-0.806-1.455c-0.77-1.101-2.296-3.378-2.687-4.554
						c-0.513-1.569-1.295-4.959-1.82-6.553c-0.525-1.569-1.807-1.897-1.807-1.897s-14.643-1.037-15.694-0.126
						c-1.038,0.898-1.563,8.362-1.563,9.488v1.126c0,1.05-0.696,3.125-1.148,4.845c-0.122,0.43-0.22,0.835-0.293,1.202
						S387.374,361.68,387.374,361.945z"/>
				</g>
			</g>
		</g>
	</g>
	<g>
		<path style="fill:#EA366E;" d="M326.101,365.171c0.977,0.417,42.538,1.594,43.503,0c0.293-0.481,0.501-2.113,0.635-4.162
			c0.342-4.832,0.342-12.018,0.342-12.018s0.305-2.454,0.244-3.593c-0.049-1.126-20.042-0.696-20.042-0.696l-12.995,10.614
			c0,0-3.566-0.658-7.462,0c-2.064,0.342-3.395,2.96-4.055,5.427C325.686,362.932,325.637,364.969,326.101,365.171z"/>
	</g>
	<g>
		<path style="fill:#FFFFFF;" d="M391.099,254.806c-1.842,0-3.211-1.507-3.666-2.082c-0.968,0.62-4.879,2.878-8.637,1.458
			c-3.18-1.203-4.604-4.683-4.943-6.549c-0.201-1.104,0.011-1.291,0.081-1.352c0.112-0.101,0.283-0.091,0.384,0.024
			c0.089,0.101,0.09,0.248,0.009,0.349c-0.074,0.252,0.074,1.507,0.722,2.966c0.624,1.404,1.814,3.249,3.941,4.053
			c3.971,1.506,8.308-1.51,8.35-1.54c0.059-0.041,0.133-0.059,0.205-0.045c0.071,0.013,0.135,0.054,0.177,0.113
			c0.018,0.026,1.875,2.679,4.27,1.92c2.693-0.852,1.868-4.445,1.832-4.598c-0.035-0.146,0.056-0.293,0.201-0.328
			c0.152-0.035,0.293,0.056,0.328,0.201c0.01,0.042,0.979,4.238-2.197,5.244C391.789,254.755,391.435,254.806,391.099,254.806z"/>
	</g>
	<g>
		<path style="fill:#6D47D6;" d="M381.882,289.252c-0.713,3.419-2.864,13.991-3.521,21.247c-0.815,9.079-3.871,32.035-3.871,32.035
			h-27.474c0,0,1.37-23.285,7.72-51.438c3.305-14.671,6.973-26.24,9.905-34.333l16.314,6.619l-0.069,0.796L381.882,289.252z"/>
	</g>
	<g>
		<path style="fill:#FFFFFF;" d="M381.883,289.527c-0.142,0-0.261-0.109-0.271-0.252c-0.009-0.113-0.865-11.399-1.114-16.405
			c-0.221-4.429,0.09-8.412,0.17-9.32l-8.728-4.024c-0.136-0.063-0.195-0.225-0.133-0.361c0.064-0.136,0.225-0.194,0.361-0.133
			l8.901,4.104c0.105,0.049,0.168,0.158,0.156,0.274c-0.004,0.044-0.434,4.453-0.186,9.433c0.249,4.999,1.105,16.278,1.114,16.392
			c0.011,0.149-0.101,0.28-0.251,0.292C381.896,289.526,381.89,289.527,381.883,289.527z"/>
	</g>
	<g>
		<path style="fill:#FFAF45;" d="M405.816,352.254c-0.024,0-0.049-0.004-0.073-0.011c-0.057-0.017-5.776-1.591-8.643-1.078
			l-2.966,0.526c-0.124,0.022-0.24-0.039-0.293-0.149c-0.053-0.109-0.026-0.241,0.065-0.322c0.217-0.192,5.366-4.691,8.454-3.326
			c0.138,0.062,0.199,0.222,0.139,0.359c-0.061,0.138-0.221,0.199-0.359,0.139c-2.103-0.936-5.518,1.388-7.066,2.581l1.931-0.343
			c2.998-0.539,8.645,1.022,8.885,1.09c0.145,0.04,0.229,0.19,0.189,0.335C406.045,352.175,405.935,352.254,405.816,352.254z"/>
	</g>
	<g>
		<path style="fill:#FFAF45;" d="M340.905,353.044c-0.138,0-0.256-0.104-0.271-0.243c-0.016-0.149,0.092-0.284,0.241-0.3
			l6.904-0.736l-2.263-2.76c-0.096-0.116-0.079-0.288,0.037-0.383c0.116-0.097,0.287-0.079,0.383,0.037l2.583,3.149
			c0.064,0.077,0.08,0.184,0.042,0.276c-0.038,0.092-0.124,0.156-0.223,0.167l-7.405,0.79
			C340.925,353.043,340.915,353.044,340.905,353.044z"/>
	</g>
	<g>
		<path style="fill:#FFFFFF;" d="M402.773,261.953c-0.056,0-0.111-0.018-0.159-0.052c-4.745-3.428-6.621-9.22-6.699-9.465
			c-0.045-0.143,0.034-0.296,0.178-0.342c0.143-0.042,0.296,0.034,0.342,0.178c0.018,0.059,1.902,5.868,6.498,9.187
			c0.122,0.088,0.149,0.258,0.061,0.38C402.94,261.914,402.857,261.953,402.773,261.953z"/>
	</g>
	<g>
		<path style="fill:#FFAF45;" d="M370.239,361.281c-0.002,0-43.97-0.266-43.97-0.266c-0.15-0.001-0.272-0.124-0.271-0.274
			c0.001-0.15,0.105-0.269,0.274-0.271l43.968,0.266c0.15,0.001,0.272,0.124,0.271,0.274
			C370.511,361.16,370.389,361.281,370.239,361.281z"/>
	</g>
	<g>
		<path style="fill:#FFAF45;" d="M401.746,362.42c-7.828,0-14.203-1.139-14.299-1.156c-0.147-0.027-0.246-0.169-0.219-0.316
			c0.026-0.146,0.163-0.246,0.316-0.219c0.143,0.027,14.487,2.587,26.53-0.023c0.155-0.039,0.292,0.061,0.323,0.208
			c0.032,0.147-0.061,0.292-0.208,0.323C410.091,362.125,405.729,362.42,401.746,362.42z"/>
	</g>
	<g>
		<path style="fill:#ADA4F7;" d="M350.725,338.448c-1.814,0-3.374-0.439-3.407-0.448c-0.144-0.042-0.227-0.193-0.186-0.337
			c0.043-0.145,0.197-0.227,0.337-0.186c0.068,0.021,6.632,1.865,8.057-2.202c0.906-2.583-1.813-4.26-1.929-4.33
			c-0.101-0.061-0.151-0.181-0.124-0.296c0.027-0.115,0.125-0.199,0.243-0.209c0.253-0.02,6.208-0.564,7.047-6.433
			c0.243-1.705-0.07-3.126-0.933-4.224c-1.54-1.962-4.331-2.257-4.358-2.26c-0.09-0.009-0.169-0.061-0.212-0.14
			c-0.044-0.079-0.045-0.175-0.004-0.255c0.017-0.035,1.784-3.533,1.099-5.558c-0.177-0.522-0.495-0.888-0.974-1.117
			c-0.571-0.272-1.131-0.303-1.713-0.095c-1.748,0.628-2.959,3.206-2.971,3.231c-0.064,0.136-0.225,0.194-0.361,0.133
			c-0.137-0.063-0.196-0.226-0.133-0.361c0.053-0.114,1.321-2.811,3.28-3.516c0.714-0.257,1.431-0.219,2.132,0.117
			c0.61,0.291,1.032,0.773,1.255,1.434c0.632,1.868-0.521,4.671-0.967,5.64c0.867,0.154,3.01,0.695,4.355,2.41
			c0.957,1.219,1.308,2.778,1.043,4.636c-0.729,5.102-5.172,6.461-6.878,6.797c0.869,0.72,2.391,2.362,1.615,4.574
			C355.189,337.878,352.791,338.448,350.725,338.448z"/>
	</g>
	<g>
		<path style="fill:#ADA4F7;" d="M364.344,307.065c-0.729-0.002-1.339-0.322-1.818-0.952c-1.893-2.488-0.164-5.252,0.662-6.319
			c-0.828-0.048-2.333-0.281-3.32-1.298c-0.714-0.735-1.02-1.739-0.91-2.984c0.097-1.092,0.547-1.949,1.339-2.548
			c1.609-1.216,4.154-0.999,5.038-0.88c0.058-1.024,0.36-4.265,1.885-5.598c0.522-0.456,1.132-0.645,1.826-0.571
			c3.085,0.349,3.534,4.985,3.6,6.2c0.914-0.04,3.8-0.022,5.028,1.269c0.45,0.475,0.636,1.065,0.551,1.758
			c-0.316,2.58-2.575,3.444-3.572,3.703c0.946,1.15,3.619,4.772,1.535,6.727c-0.486,0.456-1.091,0.663-1.771,0.648
			c-1.948-0.075-4.112-2.105-4.8-2.803C368.906,304.279,366.453,307.065,364.344,307.065z M363.765,299.256
			c0.105,0,0.202,0.062,0.247,0.159c0.047,0.102,0.026,0.222-0.051,0.302c-0.129,0.134-3.113,3.291-1.002,6.066
			c0.376,0.495,0.827,0.736,1.379,0.738c2.182,0,5.016-3.647,5.044-3.684c0.049-0.063,0.124-0.102,0.204-0.105
			c0.082-0.001,0.158,0.028,0.213,0.088c0.025,0.027,2.563,2.774,4.639,2.854c0.551,0.015,0.995-0.143,1.376-0.5
			c2.06-1.932-1.829-6.275-1.869-6.319c-0.067-0.075-0.088-0.182-0.053-0.277c0.035-0.095,0.12-0.162,0.221-0.175
			c0.131-0.018,3.217-0.443,3.57-3.328c0.065-0.53-0.066-0.96-0.404-1.315c-1.263-1.33-4.839-1.091-4.876-1.088
			c-0.075,0-0.148-0.02-0.203-0.071c-0.056-0.05-0.087-0.121-0.089-0.196c-0.001-0.056-0.124-5.609-3.126-5.948
			c-0.542-0.062-0.999,0.083-1.407,0.44c-1.603,1.4-1.712,5.469-1.712,5.51c-0.002,0.08-0.039,0.155-0.102,0.205
			c-0.062,0.051-0.143,0.071-0.222,0.057c-0.031-0.007-3.18-0.584-4.919,0.731c-0.663,0.502-1.041,1.228-1.123,2.16
			c-0.096,1.08,0.159,1.94,0.758,2.558c1.22,1.258,3.467,1.141,3.491,1.14C363.754,299.257,363.76,299.256,363.765,299.256z"/>
	</g>
	<g>
		<path style="fill:#FFFFFF;" d="M402.898,334.654c-2.109,0-4.563-2.786-5.272-3.649c-0.688,0.698-2.852,2.727-4.8,2.803
			c-0.685,0.011-1.284-0.19-1.771-0.647c-2.085-1.955,0.588-5.576,1.535-6.727c-0.997-0.259-3.256-1.123-3.572-3.703
			c-0.085-0.692,0.1-1.283,0.552-1.758c1.228-1.291,4.111-1.305,5.026-1.269c0.065-1.215,0.515-5.852,3.601-6.2
			c0.696-0.073,1.305,0.116,1.826,0.571c1.523,1.332,1.826,4.573,1.884,5.598c0.885-0.12,3.428-0.336,5.038,0.88
			c0.792,0.599,1.243,1.456,1.34,2.548c0.109,1.245-0.196,2.249-0.91,2.984c-0.987,1.017-2.492,1.25-3.32,1.298
			c0.826,1.067,2.555,3.831,0.662,6.319c-0.479,0.63-1.089,0.95-1.811,0.952C402.902,334.654,402.9,334.654,402.898,334.654z
			 M397.645,330.32c0.092,0.004,0.167,0.043,0.216,0.106c0.028,0.037,2.862,3.684,5.038,3.684c0.558-0.002,1.009-0.243,1.385-0.738
			c2.115-2.78-0.97-6.033-1.001-6.065c-0.078-0.081-0.099-0.201-0.052-0.303c0.046-0.101,0.157-0.156,0.263-0.158
			c0.027,0.002,2.278,0.112,3.493-1.142c0.597-0.616,0.852-1.477,0.756-2.555c-0.082-0.933-0.46-1.659-1.123-2.161
			c-1.739-1.315-4.889-0.737-4.92-0.732c-0.08,0.014-0.16-0.006-0.222-0.057c-0.062-0.05-0.1-0.125-0.101-0.205
			c0-0.041-0.108-4.109-1.711-5.511c-0.409-0.357-0.867-0.501-1.407-0.44c-3.003,0.339-3.126,5.893-3.127,5.948
			c-0.002,0.075-0.033,0.146-0.089,0.196c-0.055,0.052-0.125,0.071-0.203,0.071c-0.037-0.005-3.612-0.242-4.875,1.088
			c-0.338,0.354-0.47,0.785-0.404,1.315c0.353,2.885,3.439,3.311,3.57,3.328c0.101,0.013,0.186,0.08,0.221,0.175
			c0.035,0.096,0.015,0.202-0.054,0.277c-0.039,0.044-3.929,4.388-1.868,6.319c0.381,0.357,0.827,0.515,1.376,0.5
			c2.076-0.08,4.613-2.827,4.639-2.854C397.495,330.353,397.568,330.32,397.645,330.32z"/>
	</g>
	<g>
		<path style="fill:#ADA4F7;" d="M357.849,282.836c-0.283,0-0.463-0.018-0.493-0.021c-0.149-0.017-0.257-0.15-0.241-0.3
			c0.017-0.15,0.151-0.254,0.3-0.241c0.033,0.005,3.264,0.317,5.031-2.157c1.732-2.424-0.877-5.029-0.903-5.056
			c-0.07-0.069-0.098-0.171-0.072-0.266c0.026-0.095,0.102-0.169,0.197-0.192c0.179-0.045,4.4-1.151,5.007-5.685
			c0.153-1.147-0.077-2.021-0.686-2.596c-1.359-1.289-4.177-0.768-4.205-0.761c-0.143,0.028-0.29-0.068-0.318-0.217
			c-0.028-0.147,0.069-0.29,0.217-0.318c0.125-0.022,3.12-0.577,4.681,0.9c0.743,0.702,1.029,1.733,0.851,3.063
			c-0.54,4.038-3.827,5.58-5,6.007c0.695,0.841,2.285,3.182,0.676,5.435C361.349,282.588,358.895,282.836,357.849,282.836z"/>
	</g>
	<g>
		<path style="fill:#FFFFFF;" d="M406.543,289.067c-1.813,0-4.468-0.585-5.973-3.642c-1.928-3.916,0.456-6.328,1.564-7.181
			c-0.816-0.28-2.208-1.002-2.451-2.713c-0.271-1.903,1.636-3.504,2.522-4.136c-1.496-0.663-6.011-2.88-6.3-5.558
			c-0.341-3.157,4.507-6.04,4.713-6.161c0.128-0.076,0.295-0.033,0.372,0.097c0.076,0.13,0.033,0.296-0.097,0.372
			c-0.048,0.028-4.751,2.825-4.447,5.634c0.305,2.821,6.368,5.286,6.43,5.31c0.096,0.039,0.161,0.128,0.17,0.232
			c0.008,0.103-0.043,0.201-0.132,0.255c-0.029,0.018-2.985,1.821-2.691,3.879c0.29,2.04,2.569,2.407,2.593,2.41
			c0.114,0.018,0.206,0.106,0.227,0.221c0.021,0.115-0.034,0.229-0.136,0.287c-0.166,0.093-4.055,2.327-1.847,6.811
			c2.227,4.523,7.205,3.15,7.257,3.134c0.147-0.039,0.296,0.043,0.337,0.187c0.041,0.145-0.042,0.295-0.186,0.337
			C408.445,288.849,407.651,289.067,406.543,289.067z"/>
	</g>
	<g>
		<path style="fill:#FFFFFF;" d="M383.717,313.778c-0.145,0-0.265-0.114-0.272-0.26c-0.008-0.149,0.108-0.277,0.259-0.284
			c0.057-0.003,5.733-0.304,7.173-2.905c0.305-0.551,0.365-1.093,0.184-1.657c-0.534-1.668-2.994-2.858-3.018-2.871
			c-0.105-0.05-0.167-0.161-0.153-0.277c0.015-0.116,0.101-0.21,0.215-0.234c0.094-0.02,9.417-2.067,10.277-9.7
			c0.212-1.88-0.233-3.453-1.325-4.674c-2.603-2.914-8.047-2.947-8.102-2.947c-0.09,0-0.173-0.044-0.224-0.118
			c-0.051-0.073-0.063-0.167-0.031-0.251c0.02-0.05,1.891-5.066,0.487-7.416c-0.395-0.659-0.999-1.035-1.85-1.148
			c-4.413-0.58-5.51,5.074-5.554,5.314c-0.027,0.147-0.165,0.243-0.316,0.219c-0.148-0.027-0.246-0.169-0.219-0.316
			c0.012-0.065,1.23-6.411,6.161-5.756c1.012,0.135,1.767,0.608,2.244,1.409c1.322,2.214,0.102,6.292-0.317,7.529
			c1.33,0.059,5.746,0.455,8.126,3.119c1.199,1.341,1.69,3.057,1.46,5.097c-0.765,6.777-7.802,9.348-10.032,9.996
			c0.831,0.497,2.258,1.517,2.689,2.859c0.227,0.706,0.15,1.408-0.226,2.088c-1.587,2.866-7.378,3.173-7.624,3.185
			C383.726,313.778,383.721,313.778,383.717,313.778z"/>
	</g>
	<g>
		<g>
			<path style="fill:#ADA4F7;" d="M354.406,228.683c0,0,10.371-23.689,21.935-27.016c11.565-3.327-0.883,29.711-0.883,29.711
				L354.406,228.683z"/>
		</g>
		<g>
			<path style="fill:#ADA4F7;" d="M397.366,200.343c0,0,21.928,5.942,23.925,23.088c2.966,25.466-25.41,26.22-25.41,26.22
				L397.366,200.343z"/>
		</g>
		<g>
			<path d="M390.802,196.508c0,0,10.436,1.387,7.056-12.115c-3.38-13.502-13.044-5.839-13.044-5.839L390.802,196.508z"/>
		</g>
		<g>
			<g>
				<path style="fill:#ADA4F7;" d="M366.9,248.702c0,0-0.155-42.635,8.337-46.655c10.646-5.041,26.058-2.718,28.869,2.411
					c3.212,5.86-1.373,41.217-1.373,41.217S386.79,254.651,366.9,248.702z"/>
			</g>
		</g>
		<g>
			<g>
				<g>
					<g>
						<g>
							<path style="fill:#FC8165;" d="M392.806,192.911l0.757,8.005c0,0-0.756,1.653-4.973,2.348
								c-3.142,0.518-4.851-0.311-4.851-0.311l0.137-3.712l0.139-3.62l7.528-2.319L392.806,192.911z"/>
						</g>
					</g>
				</g>
			</g>
		</g>
		<g>
			<g>
				<g>
					<g>
						<g>
							<path d="M391.543,193.302c-0.002,0.2-0.058,0.44-0.153,0.718c-1.325,3.76-5.7,4.908-7.513,5.222l0.139-3.62L391.543,193.302z
								"/>
						</g>
					</g>
				</g>
			</g>
		</g>
		<g>
			<g>
				<g>
					<g>
						<g>
							<path style="fill:#FC8165;" d="M381.032,179.211c0,0-3.058,9.414-1.139,14.346c1.919,4.932,6.461,3.68,9.129,2.428
								c2.668-1.252,3.785-3.073,3.785-3.073s2.668,0.622,4.16-1.949c1.492-2.571,0.157-5.224-1.379-5.712
								c-1.537-0.487-3.186,0.75-3.186,0.75l1.117-2.758C393.519,183.244,386.428,170.479,381.032,179.211z"/>
						</g>
					</g>
				</g>
			</g>
		</g>
		<g>
			<path style="fill:#8758E7;" d="M361.233,215.424c0,0-7.371-15.317-6.284-15.52c1.086-0.203,7.786,14.38,7.786,14.38
				L361.233,215.424z"/>
		</g>
		<g>
			<path style="fill:#8758E7;" d="M368.58,227.473c-0.137,0-0.254-0.103-0.27-0.24c-0.42-3.544,2.325-14.171,2.442-14.621
				c0.038-0.146,0.188-0.232,0.332-0.195c0.145,0.038,0.232,0.186,0.195,0.332c-0.028,0.109-2.837,10.978-2.429,14.42
				c0.018,0.149-0.089,0.285-0.238,0.303C368.602,227.472,368.591,227.473,368.58,227.473z"/>
		</g>
		<g>
			<path style="fill:#FC8165;" d="M353.689,223.038c0,0,4.72-9.925,7.421-11.315c2.702-1.39,9.703-0.824,9.803-0.005
				c0.1,0.819-6.112,2.573-6.112,2.573s4.303,5.793,4.528,7.183c0.225,1.391-2.498,5.846-3.154,6.337
				c-0.656,0.491-2.698-1.566-2.698-1.566s-1.672,2.6-4.34,3.658c-0.667,0.265-1.396,0.226-2.115,0.018
				c-2.588-0.747-4.059-3.491-3.496-6.125L353.689,223.038z"/>
		</g>
		<g>
			<path d="M381.139,187.792c-0.17-0.012-0.282-0.143-0.272-0.293l0.118-1.567l-0.672-0.223c-0.143-0.047-0.22-0.201-0.172-0.344
				c0.047-0.143,0.202-0.218,0.344-0.173l0.873,0.289c0.118,0.04,0.194,0.154,0.185,0.279l-0.134,1.779
				C381.399,187.683,381.28,187.792,381.139,187.792z"/>
		</g>
		<g>
			<path style="fill:#FF9C85;" d="M362.003,230.289c0,0,2.619-2.818,2.632-5.083c0.013-2.266-4.946-1.952-4.946-1.952l-0.605,4.409
				L362.003,230.289z"/>
		</g>
		<g>
			
				<rect x="355.473" y="221.603" transform="matrix(-1 -1.224647e-16 1.224647e-16 -1 747.8192 478.3725)" style="fill:#50447E;" width="36.873" height="35.167"/>
		</g>
		<g>
			<path d="M386.326,187.464c-0.158-0.004-0.276-0.129-0.273-0.279l0.039-1.414l-0.693-0.319c-0.137-0.063-0.196-0.224-0.134-0.361
				c0.063-0.137,0.228-0.195,0.36-0.133l0.857,0.395c0.1,0.045,0.162,0.146,0.159,0.254l-0.044,1.593
				C386.594,187.347,386.473,187.464,386.326,187.464z"/>
		</g>
		<g>
			<path style="fill:#FC8165;" d="M399.72,233.629c0,0-6.513-2.12-7.374-2.396c0,0-0.092,2.346,0.194,2.758
				c0.286,0.413-12.54,2.391-12.507,3.63c0.033,1.239,1.224,1.514,1.224,1.514s-2.568,0.551-1.879,1.79
				c0.688,1.239,1.879,1.289,1.879,1.289s-2.526,1.227,0,2.791c2.526,1.564,14.919,2.528,18.891-1.436
				C403.068,240.655,399.72,233.629,399.72,233.629z"/>
		</g>
		<g>
			<path d="M392.402,186.002c0,0-4.315-0.36-6.381-2.925c-1.89-2.347-2.742-5.165-2.742-5.165s-0.876,0.789-1.902,2.542
				c-0.805,1.375-1.437,3.036-1.437,3.036s-1.953-5.894,3.33-8.317c5.283-2.423,10.148,0.873,11.763,4.164
				C396.65,182.628,392.402,186.002,392.402,186.002z"/>
		</g>
		<g>
			<path style="fill:#ADA4F7;" d="M395.863,229.827l0.329,16.475c0,0,6.172,1.001,14.683-4.685
				c11.829-7.902,7.735-10.384,7.735-10.384l-11.457-6.665L395.863,229.827z"/>
		</g>
		<g>
			<path d="M381.257,239.408c-0.137,0-0.254-0.103-0.271-0.241c-0.017-0.149,0.09-0.284,0.239-0.302l7.333-0.848
				c0.158-0.017,0.284,0.091,0.302,0.239c0.017,0.149-0.09,0.284-0.239,0.302l-7.333,0.848
				C381.277,239.407,381.267,239.408,381.257,239.408z"/>
		</g>
		<g>
			<path d="M388.59,242.487h-7.333c-0.15,0-0.272-0.122-0.272-0.273c0-0.15,0.122-0.272,0.272-0.272h7.333
				c0.15,0,0.273,0.122,0.273,0.272C388.862,242.365,388.74,242.487,388.59,242.487z"/>
		</g>
		<g>
			<path style="fill:#8758E7;" d="M393.563,229.579c-0.1,0-0.195-0.056-0.243-0.15c-0.067-0.134-0.014-0.298,0.121-0.365
				c0.419-0.211,10.326-5.163,15.461-5.53c0.171-0.001,0.279,0.102,0.291,0.252c0.011,0.15-0.103,0.28-0.252,0.291
				c-5.026,0.359-15.154,5.423-15.256,5.474C393.646,229.569,393.604,229.579,393.563,229.579z"/>
		</g>
		<g>
			<path style="fill:#8758E7;" d="M400.068,226.649c-0.057,0-0.113-0.018-0.161-0.054c-0.1-0.073-0.137-0.203-0.093-0.317
				c0.098-0.25,2.4-6.067,5.015-6.067c0.021,0,0.043,0.001,0.064,0.002c0.503,0.018,0.683,0.247,0.745,0.436
				c0.397,1.21-4.033,4.853-5.401,5.94C400.188,226.629,400.128,226.649,400.068,226.649z M404.827,220.756
				c-1.542,0-3.192,2.827-4.068,4.708c2.366-1.972,4.528-4.141,4.362-4.645c-0.005-0.018-0.075-0.057-0.247-0.063
				C404.858,220.756,404.843,220.756,404.827,220.756z"/>
		</g>
		<g>
			<path d="M393.555,179.741c0,0-1.245-7.857,5.461-8.652c6.706-0.794,5.864,12.486-2.767,12.318
				C387.618,183.238,393.555,179.741,393.555,179.741z"/>
		</g>
		<g>
			<path style="fill:#FFAF45;" d="M397.549,183.542c-0.125,0-0.238-0.087-0.266-0.214c-0.802-3.676-3.1-5.758-3.123-5.779
				c-0.112-0.1-0.122-0.271-0.022-0.384c0.1-0.113,0.271-0.122,0.384-0.023c0.1,0.089,2.452,2.212,3.293,6.069
				c0.032,0.147-0.061,0.292-0.208,0.324C397.587,183.54,397.567,183.542,397.549,183.542z"/>
		</g>
		<g>
			<path d="M387.076,183.748c-0.04-0.003-2.426-0.356-2.426-0.356c-0.148-0.022-0.251-0.16-0.229-0.309
				c0.022-0.147,0.156-0.248,0.31-0.229l2.386,0.353c0.148,0.022,0.251,0.16,0.23,0.309
				C387.325,183.651,387.209,183.748,387.076,183.748z"/>
		</g>
		<g>
			<path d="M379.941,183.762c-0.127,0-0.241-0.089-0.267-0.218c-0.029-0.148,0.065-0.291,0.213-0.32l1.596-0.321
				c0.151-0.034,0.291,0.066,0.32,0.213c0.029,0.147-0.065,0.291-0.213,0.32l-1.596,0.321
				C379.977,183.76,379.959,183.762,379.941,183.762z"/>
		</g>
		<g>
			<path d="M383.242,190.577c-0.066,0-0.132-0.024-0.185-0.072c-1.33-1.228-0.165-3.931-0.114-4.045
				c0.06-0.137,0.219-0.2,0.358-0.14c0.138,0.06,0.2,0.221,0.14,0.358c-0.011,0.024-1.06,2.461-0.015,3.427
				c0.11,0.102,0.117,0.274,0.016,0.384C383.389,190.548,383.315,190.577,383.242,190.577z"/>
		</g>
		<g>
			<path d="M385.417,192.612c-0.116,0-0.224-0.075-0.26-0.192c-0.044-0.144,0.037-0.295,0.181-0.34
				c0.043-0.014,1.076-0.347,1.288-1.541c0.026-0.148,0.159-0.248,0.315-0.221c0.148,0.026,0.246,0.167,0.22,0.315
				c-0.271,1.531-1.609,1.951-1.666,1.968C385.47,192.609,385.443,192.612,385.417,192.612z"/>
		</g>
		<g>
			<path d="M393.082,189.756c-0.071,0-0.143-0.028-0.195-0.083c-0.104-0.108-0.102-0.28,0.006-0.385l2.768-2.674
				c0.106-0.105,0.28-0.103,0.385,0.007c0.104,0.108,0.102,0.28-0.006,0.385l-2.768,2.674
				C393.219,189.73,393.15,189.756,393.082,189.756z"/>
		</g>
		<g>
			<path d="M395.882,189.07c-0.037-0.002-1.866-0.254-1.866-0.254c-0.148-0.02-0.253-0.158-0.232-0.307
				c0.02-0.148,0.147-0.26,0.307-0.232l1.829,0.252c0.148,0.02,0.253,0.158,0.233,0.307
				C396.133,188.971,396.016,189.07,395.882,189.07z"/>
		</g>
		<g>
			<path style="fill:#8758E7;" d="M384.078,206.069c-0.082,0-0.164-0.006-0.245-0.02c-1.117-0.186-1.362-1.39-1.408-2.105
				c-0.502,0.298-1.309,0.642-1.786,0.135c-0.135-0.142-0.192-0.32-0.167-0.517c0.093-0.692,1.313-1.473,1.556-1.622
				c0.076-0.046,0.169-0.053,0.252-0.017c0.071,0.031,7.317,3.125,11.862-1.766c0.054-0.058,0.12-0.089,0.208-0.087
				c0.079,0.002,0.152,0.039,0.202,0.1c0.247,0.303,1.469,1.854,1.293,2.624c-0.043,0.188-0.156,0.33-0.329,0.41
				c-0.706,0.336-2.334-0.119-2.994-0.326c-0.256,0.747-1.069,2.796-2.405,3.125c-1.322,0.323-2.705-1.065-3.226-1.658
				C386.409,204.879,385.207,206.069,384.078,206.069z M382.694,203.163c0.044,0,0.088,0.01,0.128,0.032
				c0.095,0.051,0.151,0.152,0.143,0.26c-0.002,0.019-0.126,1.879,0.956,2.058c0.974,0.169,2.322-1.215,2.76-1.758
				c0.053-0.064,0.158-0.101,0.215-0.102c0.083,0.001,0.161,0.04,0.212,0.105c0.439,0.566,1.802,1.984,2.877,1.717
				c1.08-0.267,1.881-2.268,2.099-3.017c0.009-0.027,0.02-0.054,0.037-0.077c-4.18,2.178-9.053,0.439-9.924,0.096
				c-0.493,0.321-1.147,0.86-1.186,1.157c-0.005,0.032,0.001,0.048,0.022,0.071c0.274,0.288,1.142-0.212,1.494-0.486
				C382.576,203.182,382.635,203.163,382.694,203.163z M392.346,202.263c0.03,0,0.06,0.005,0.089,0.016
				c0.842,0.289,2.359,0.663,2.851,0.435c0.096-0.341-0.405-1.22-0.965-1.956c-0.624,0.628-1.291,1.122-1.979,1.506
				C392.343,202.263,392.345,202.263,392.346,202.263z"/>
		</g>
		<g>
			<path d="M361.233,215.697c-0.073,0-0.146-0.029-0.199-0.087c-0.103-0.109-0.097-0.282,0.014-0.385
				c0.94-0.877,3.608-1.192,3.722-1.206c0.158-0.013,0.284,0.091,0.302,0.239c0.017,0.149-0.09,0.284-0.239,0.302
				c-0.722,0.083-2.741,0.437-3.413,1.063C361.366,215.673,361.3,215.697,361.233,215.697z"/>
		</g>
	</g>
</g>
<g>
	<g>
		<path d="M71.489,135.244c0,0,6.561,1.426,6.142,8.383c-0.418,6.957-8.138,8.409-8.138,8.409l-6.06-3.436v-10.841L71.489,135.244z"
			/>
	</g>
	<g>
		<path style="fill:#FC8165;" d="M125.949,154.997c0,0,0.847,6.501-0.484,6.668c-1.33,0.167-2.148-1.819-2.148-1.819
			s-3.173,6.715-9.219,4.773c-6.047-1.941-2.41-8.056-2.41-8.056l6.721-5.711L125.949,154.997z"/>
	</g>
	<g>
		
			<ellipse transform="matrix(0.7397 -0.6729 0.6729 0.7397 -69.6259 121.7041)" style="fill:#8758E7;" cx="122.504" cy="150.852" rx="7.491" ry="7.491"/>
	</g>
	<g>
		<path d="M65.5,121.846c0,0-7.841-6.078-14.534-1.939c-6.693,4.139-4.112,12.806-4.112,12.806s-8.311,2.271-9.509,12.829
			C36.146,156.1,46.185,158.1,46.185,158.1l14.427-8.546L65.5,121.846z"/>
	</g>
	<g>
		<path style="fill:#FC7059;" d="M42.365,286.175c0,0,32.205-7.554,35.959-31.899c4.618-29.947-3.565-44.62-3.565-44.62
			l-21.04,25.111l-6.315,30.345l-8.32,6.02l-4.63,9.812L42.365,286.175z"/>
	</g>
	<g>
		<g>
			<path style="fill:#FCA032;" d="M25.079,268.562c0.075-1.186,1.127-2.106,2.397-2.091c5.018,0.06,16.273-0.419,16.262,0.497
				c-0.014,1.168-3.358,12.852-3.358,12.852s6.948,0.42,5.641,5.242c-1.003,3.701-5.478,7.947-7.506,9.723
				c-0.644,0.564-1.096,1.284-1.307,2.085c-0.906,3.448-3.861,12.926-8.967,12.999c-6.241,0.09-5.497-2.404-5.483-3.572
				C22.771,305.297,24.57,276.654,25.079,268.562z"/>
		</g>
	</g>
	<g>
		<path style="fill:#FC8165;" d="M64.536,234.767c0,0-1.845,58.336-4.318,64.506c-2.473,6.17-15.989,0-15.989,0l-3.193-63.211
			L64.536,234.767z"/>
	</g>
	<g>
		<path style="fill:#ADA4F7;" d="M80.614,238.6c-0.838,0.729-7.227,2.754-16.01,3.439c-3.047,0.239-6.378,0.326-9.872,0.131
			c-13.54-0.751-17.599-4.081-17.382-5.257c0.229-1.175,1.807-2.177,1.807-2.177s-0.903-29.321,2.71-37.179
			c3.613-7.847,19.014-9.556,19.014-9.556h16.554l0.892,4.582c0,0,0.207,1.241,0.49,3.254c0.686,4.648,1.796,13.409,1.796,20.494
			C80.614,226.475,81.746,237.609,80.614,238.6z"/>
	</g>
	<g>
		<path style="fill:#9893F9;" d="M80.614,238.6c-0.838,0.729-7.227,2.754-16.01,3.439l4.952-37.712l9.262-8.489
			c0.686,4.648,1.847,13.819,2.299,21.623C81.704,227.587,81.746,237.609,80.614,238.6z"/>
	</g>
	<g>
		<path style="fill:#EA366E;" d="M55.088,191.117c0,0,16.088,0.986,22.544-2.159l-0.381-19.334c0,0-3.507-24.761-8.537-25.289
			c-5.03-0.528-9.471,0.139-9.471,0.139l-17.738,23.124L55.088,191.117z"/>
	</g>
	<g>
		<path style="fill:#8758E7;" d="M68.3,216.1c-0.18-0.018-0.287-0.152-0.271-0.302l1.26-11.497c0.007-0.065,0.038-0.127,0.086-0.171
			l8.15-7.478c0.11-0.102,0.283-0.094,0.385,0.017c0.102,0.111,0.094,0.283-0.017,0.385l-8.075,7.407l-1.249,11.395
			C68.555,215.996,68.437,216.1,68.3,216.1z"/>
	</g>
	<g>
		<g>
			<path style="fill:#FFAF45;" d="M45.579,315.673c-1.189-0.011-2.163-1.013-2.215-2.283c-0.207-5.014-1.285-16.227-0.37-16.265
				c1.167-0.048,13.013,2.669,13.013,2.669s0.049-6.961,4.934-5.912c3.749,0.805,8.228,5.047,10.109,6.977
				c0.597,0.613,1.34,1.026,2.152,1.194c3.491,0.722,13.113,3.168,13.458,8.262c0.422,6.228-2.108,5.618-3.275,5.665
				C82.384,316.022,53.686,315.75,45.579,315.673z"/>
		</g>
	</g>
	<g>
		<g>
			<path style="fill:#FC8165;" d="M57.615,188.043c0,0,12.198,2.017,14.608,4.236c2.41,2.219-3.436,10.735-4.938,12.116
				c-1.502,1.381-12.207-5.628-12.207-5.628l-1.548-6.119L57.615,188.043z"/>
		</g>
	</g>
	<g>
		<g>
			<path style="fill:#FC8165;" d="M72.223,192.279c0,0,5.097,7.286,4.255,10.293c-0.842,3.007-6.984-6.289-6.984-6.289
				L72.223,192.279z"/>
		</g>
	</g>
	<g>
		<g>
			<path style="fill:#FC8165;" d="M63.243,202.374c0,0-6.316-0.892-5.07,1.398c1.246,2.289,7.995,1.891,9.111,0.624
				c1.117-1.268-2.407-4.727-2.407-4.727L63.243,202.374z"/>
		</g>
	</g>
	<g>
		<path d="M62.426,203.083c-0.032,0-0.065-0.006-0.097-0.018l-1.815-0.691c-0.093-0.035-0.159-0.118-0.173-0.217
			c-0.014-0.099,0.028-0.196,0.108-0.256l1.446-1.07c0.119-0.089,0.29-0.064,0.38,0.057c0.089,0.121,0.064,0.29-0.057,0.38
			l-1.046,0.774l1.349,0.514c0.141,0.053,0.211,0.21,0.158,0.351C62.639,203.016,62.536,203.083,62.426,203.083z"/>
	</g>
	<g>
		<path d="M71.489,198.645c-0.109,0-0.212-0.066-0.254-0.174c-0.419-1.086-1.231-2.934-1.623-3.267
			c-0.114-0.098-0.128-0.269-0.031-0.384c0.099-0.114,0.269-0.128,0.384-0.031c0.626,0.532,1.662,3.185,1.778,3.485
			c0.054,0.14-0.016,0.298-0.156,0.352C71.555,198.64,71.522,198.645,71.489,198.645z"/>
	</g>
	<g>
		<path d="M69.56,201.724c-0.099,0-0.195-0.055-0.243-0.149l-2.192-4.328c-0.068-0.134-0.014-0.298,0.12-0.366
			c0.133-0.068,0.297-0.015,0.366,0.12l2.192,4.328c0.068,0.134,0.014,0.298-0.12,0.366
			C69.644,201.714,69.602,201.724,69.56,201.724z"/>
	</g>
	<g>
		<path d="M71.845,134.119c0,0,2.314-2.63,1.581-6.645c-0.497-2.722-1.724-3.588-1.724-3.588s1.797-3.75-3.705-3.447
			c-5.502,0.303-8.704,3.051-8.704,3.051s-2.534-1.201-3.621,1.749c-1.088,2.95,0.102,7.263,0.102,7.263L71.845,134.119z"/>
	</g>
	<g>
		<g>
			<g>
				<g>
					<path style="fill:#FC8165;" d="M59.822,138.824l0.262,6.718c0,0,1.287,1.884,5.23,2.05c2.937,0.124,3.805-1.416,3.805-1.416
						l-0.939-5.851l-7.158-1.284L59.822,138.824z"/>
				</g>
			</g>
		</g>
	</g>
	<g>
		<g>
			<g>
				<g>
					<path d="M59.817,138.414c0.024,0.183,0.102,0.397,0.221,0.641c1.634,3.297,6.979,4.487,8.676,4.572l-0.532-3.302
						L59.817,138.414z"/>
				</g>
			</g>
		</g>
	</g>
	<g>
		<g>
			<g>
				<g>
					<path style="fill:#FC8165;" d="M69.08,124.954c0,0,3.855,8.285,2.648,13.019c-1.207,4.734-5.509,4.095-8.095,3.246
						c-2.585-0.849-3.812-2.393-3.812-2.393s-2.376,0.868-4.03-1.321c-1.654-2.189-0.728-4.77,0.625-5.388
						c1.354-0.618,3.003,0.331,3.003,0.331l-1.332-2.403C58.088,130.045,63.159,117.555,69.08,124.954z"/>
				</g>
			</g>
		</g>
	</g>
	<g>
		<g>
			<g>
				<g>
					<path d="M59.42,132.448c0,0,3.611,0.676,6.056-3.365c2.445-4.042,2.192-5.684,2.192-5.684l2.55,4.102
						c0,0,0.517-2.876-0.656-4.688c-1.173-1.812-2.358-1.417-2.358-1.417l-7.911,2.094l-2.001,6.392L59.42,132.448z"/>
				</g>
			</g>
		</g>
	</g>
	<g>
		<path d="M68.94,135.605c-0.025,0-0.051-0.003-0.076-0.011c-0.144-0.042-0.227-0.193-0.185-0.337
			c0.449-1.542-0.73-3.19-0.742-3.206c-0.088-0.122-0.061-0.292,0.06-0.38c0.122-0.089,0.292-0.062,0.38,0.059
			c0.055,0.076,1.349,1.877,0.825,3.68C69.166,135.527,69.058,135.605,68.94,135.605z"/>
	</g>
	<g>
		<path d="M59.125,136.386c-0.071,0-0.142-0.027-0.195-0.082l-2.315-2.372c-0.105-0.107-0.103-0.28,0.005-0.385
			c0.108-0.105,0.281-0.103,0.385,0.005l2.315,2.372c0.105,0.107,0.103,0.28-0.005,0.385
			C59.263,136.36,59.194,136.386,59.125,136.386z"/>
	</g>
	<g>
		<path d="M56.707,135.781c-0.13,0-0.245-0.094-0.268-0.227c-0.025-0.148,0.075-0.289,0.223-0.313l1.569-0.265
			c0.15-0.026,0.289,0.075,0.313,0.223c0.025,0.148-0.075,0.289-0.223,0.314l-1.569,0.265
			C56.737,135.78,56.722,135.781,56.707,135.781z"/>
	</g>
	<g>
		<path d="M70.456,128.725c-0.043-0.003-1.534-0.241-1.534-0.241c-0.148-0.023-0.25-0.163-0.226-0.312
			c0.023-0.149,0.169-0.247,0.311-0.226l1.49,0.238c0.148,0.023,0.249,0.163,0.226,0.311
			C70.704,128.63,70.588,128.725,70.456,128.725z"/>
	</g>
	<g>
		<path d="M64.29,129.788c-0.098,0-0.192-0.053-0.241-0.146c-0.069-0.133-0.018-0.298,0.115-0.368l2.421-1.269
			c0.132-0.069,0.297-0.019,0.368,0.115c0.069,0.133,0.018,0.298-0.115,0.368l-2.421,1.269
			C64.376,129.778,64.332,129.788,64.29,129.788z"/>
	</g>
	<g>
		<path d="M70.504,132.162c-0.115,0-0.222-0.073-0.259-0.188l-0.485-1.505c-0.028-0.087-0.011-0.182,0.046-0.253l0.456-0.574
			c0.094-0.117,0.265-0.136,0.382-0.044c0.118,0.093,0.137,0.265,0.044,0.382l-0.365,0.46l0.44,1.366
			c0.046,0.143-0.032,0.296-0.175,0.342C70.56,132.158,70.532,132.162,70.504,132.162z"/>
	</g>
	<g>
		<path d="M66.28,132.627c-0.115,0-0.222-0.073-0.259-0.188l-0.485-1.505c-0.029-0.089-0.01-0.186,0.05-0.258l0.631-0.757
			c0.096-0.116,0.267-0.131,0.383-0.035c0.115,0.096,0.131,0.268,0.035,0.383L66.1,130.91l0.439,1.362
			c0.046,0.143-0.032,0.296-0.175,0.342C66.336,132.624,66.308,132.627,66.28,132.627z"/>
	</g>
	<g>
		<path style="fill:#EA366E;" d="M59.242,144.474c0,0-29.918,3.338-29.495,34.59c0.259,19.159,24.396,25.266,24.396,25.266
			l7.974-19.737l-13.323-7.618L59.242,144.474z"/>
	</g>
	<g>
		<path style="fill:#FC8165;" d="M109.623,156.027c0,0,3.057-4.931,3.749-5.175c0.691-0.244,5.926-3.169,7.377-1.96
			c1.451,1.209-3.507,4.354-3.507,4.354s-1.72,7.61-5.637,7.373C107.688,160.38,109.623,156.027,109.623,156.027z"/>
	</g>
	<g>
		<path style="fill:#8758E7;" d="M61.684,301.856c-0.027,0-0.055-0.004-0.082-0.013l-5.677-1.79
			c-0.143-0.046-0.223-0.198-0.177-0.342c0.045-0.143,0.195-0.225,0.341-0.178l5.677,1.79c0.143,0.046,0.223,0.198,0.177,0.342
			C61.907,301.782,61.8,301.856,61.684,301.856z"/>
	</g>
	<g>
		<path style="fill:#8758E7;" d="M37.345,285.215c-0.047,0-0.095-0.013-0.138-0.038c-0.129-0.077-0.172-0.244-0.095-0.373
			l3.035-5.122c0.076-0.13,0.243-0.172,0.373-0.096c0.129,0.077,0.172,0.244,0.095,0.373l-3.035,5.122
			C37.528,285.167,37.438,285.215,37.345,285.215z"/>
	</g>
	<g>
		<path style="fill:#FFFFFF;" d="M54.144,204.602c-0.034,0-0.068-0.007-0.101-0.02c-0.14-0.056-0.208-0.214-0.152-0.353
			l7.893-19.802c-1.516-1.026-12.084-8.144-15.021-9.183c-0.142-0.05-0.216-0.206-0.166-0.347c0.049-0.143,0.205-0.217,0.347-0.166
			c3.216,1.137,14.833,9.032,15.327,9.368c0.105,0.072,0.146,0.208,0.1,0.326l-7.974,20.005
			C54.354,204.537,54.252,204.602,54.144,204.602z"/>
	</g>
	<g>
		<path style="fill:#FFFFFF;" d="M50.964,177.367c-0.072,0-0.143-0.028-0.195-0.082c-0.321-0.329-3.132-3.269-2.821-5.023
			c0.078-0.439,0.348-0.781,0.78-0.988c0.536-0.255,0.932-0.126,1.171,0.028c1.404,0.906,1.348,5.302,1.336,5.8
			c-0.002,0.11-0.07,0.207-0.172,0.247C51.031,177.361,50.998,177.367,50.964,177.367z M49.318,171.671
			c-0.096,0-0.212,0.025-0.355,0.093c-0.279,0.133-0.432,0.322-0.48,0.592c-0.188,1.056,1.257,2.964,2.207,4.042
			c-0.031-1.535-0.257-4.104-1.086-4.64C49.539,171.715,49.447,171.671,49.318,171.671z"/>
	</g>
	<g>
		<path style="fill:#EA366E;" d="M115.941,166.274c0,0-6.959,9.578-19.902,11.029s-20.946-5.634-20.946-5.634l-5.973-27.236
			c0,0,13.179,6.455,23.949,10.563c6.343,2.42,16.751-2.699,16.751-2.699L115.941,166.274z"/>
	</g>
	<g>
		<path style="fill:#FFFFFF;" d="M92.35,162.46c-0.09,0-0.183-0.008-0.278-0.026c-0.466-0.085-0.815-0.344-1.011-0.751
			c-0.892-1.857,1.659-6.614,1.768-6.816c0.054-0.1,0.165-0.158,0.276-0.14c0.112,0.016,0.204,0.099,0.229,0.21
			c0.131,0.584,1.244,5.748-0.104,7.152C92.995,162.335,92.694,162.46,92.35,162.46z M92.956,155.814
			c-0.789,1.618-1.955,4.489-1.405,5.634c0.122,0.254,0.318,0.397,0.618,0.452c0.285,0.05,0.497-0.007,0.668-0.186
			C93.674,160.84,93.294,157.644,92.956,155.814z"/>
	</g>
	<g>
		<path d="M66.694,138.031c-0.085,0-0.172-0.012-0.26-0.039c-0.524-0.159-0.867-0.758-1.047-1.833
			c-0.018-0.107,0.03-0.215,0.122-0.274c0.092-0.059,0.209-0.058,0.3,0.005l1.827,1.254c0.066,0.045,0.108,0.116,0.117,0.195
			c0.008,0.079-0.018,0.158-0.072,0.216C67.659,137.577,67.225,138.031,66.694,138.031z M66.078,136.734
			c0.174,0.544,0.384,0.697,0.512,0.737c0.143,0.043,0.303-0.014,0.432-0.089L66.078,136.734z"/>
	</g>
	<g>
		<path d="M113.817,160.118c-0.107,0-0.208-0.063-0.251-0.169c-0.057-0.139,0.009-0.298,0.148-0.355
			c3.141-1.296,3.255-6.303,3.256-6.353c0.003-0.149,0.124-0.268,0.272-0.268c0.154,0.003,0.274,0.126,0.272,0.276
			c-0.003,0.221-0.12,5.416-3.593,6.848C113.887,160.111,113.852,160.118,113.817,160.118z"/>
	</g>
	<g>
		<path style="fill:#FFFFFF;" d="M63.469,151.789c-0.113,0-0.229-0.009-0.349-0.028c-2.446-0.39-3.27-5.943-3.305-6.179
			c-0.015-0.107,0.034-0.212,0.126-0.27c0.092-0.057,0.208-0.055,0.297,0.007c0.026,0.018,2.611,1.774,5.101,2.003
			c2.632,0.245,3.536-1.266,3.544-1.281c0.044-0.078,0.125-0.129,0.214-0.136c0.089-0.004,0.177,0.03,0.233,0.101
			c0.248,0.307,2.397,3.035,1.525,4.195c-0.135,0.18-0.335,0.288-0.579,0.311c-1.029,0.107-2.933-1.389-3.711-2.046
			C66.245,149.442,65.284,151.789,63.469,151.789z M60.455,146.099c0.336,1.751,1.241,4.884,2.751,5.124
			c2.003,0.322,2.947-3.27,2.956-3.306c-0.264-0.019-0.558-0.024-0.873-0.054C63.323,147.682,61.366,146.644,60.455,146.099z
			 M66.675,147.842c1.008,0.887,2.799,2.192,3.548,2.128c0.12-0.012,0.169-0.058,0.199-0.097c0.407-0.542-0.46-2.134-1.299-3.25
			C68.777,147.015,68.021,147.658,66.675,147.842z"/>
	</g>
	<g>
		<path style="fill:#FFFFFF;" d="M55.801,167.411c-2.29,0-3.519-5.561-3.653-6.205c-0.02-0.093,0.011-0.189,0.08-0.254
			c0.069-0.065,0.167-0.088,0.258-0.064l1.917,0.52l0.274-2.32c0.014-0.118,0.103-0.214,0.22-0.236
			c0.118-0.019,0.235,0.035,0.291,0.14l1.123,2.117l1.56-0.968c0.083-0.051,0.188-0.055,0.275-0.007
			c0.086,0.047,0.14,0.137,0.141,0.235c0.008,0.7,0.012,6.84-2.366,7.037C55.879,167.409,55.839,167.411,55.801,167.411z
			 M52.779,161.531c0.446,1.858,1.628,5.44,3.095,5.333c1.323-0.11,1.83-3.556,1.866-6.003l-1.392,0.863
			c-0.064,0.04-0.143,0.052-0.214,0.031c-0.073-0.02-0.134-0.069-0.169-0.135l-0.851-1.604l-0.208,1.768
			c-0.009,0.079-0.052,0.149-0.118,0.194c-0.065,0.044-0.148,0.057-0.224,0.037L52.779,161.531z"/>
	</g>
	<g>
		<path style="fill:#FFFFFF;" d="M42.28,161.236c-0.341,0-0.652-0.091-0.917-0.303c-1.854-1.48,1.163-6.526,1.513-7.097
			c0.049-0.081,0.137-0.129,0.232-0.129s0.183,0.049,0.232,0.13l1.037,1.694l1.792-1.499c0.091-0.076,0.222-0.085,0.322-0.021
			c0.1,0.064,0.147,0.186,0.115,0.301l-0.636,2.309l1.799,0.368c0.096,0.02,0.174,0.09,0.204,0.183
			c0.03,0.093,0.008,0.196-0.059,0.268C47.507,157.881,44.346,161.235,42.28,161.236z M43.112,154.506
			c-0.951,1.657-2.566,5.079-1.409,6.002c1.136,0.907,4.12-1.708,5.474-3.085l-1.603-0.328c-0.074-0.015-0.138-0.06-0.177-0.124
			c-0.04-0.064-0.05-0.142-0.03-0.214l0.482-1.75l-1.365,1.143c-0.061,0.051-0.141,0.074-0.219,0.06
			c-0.078-0.013-0.147-0.059-0.188-0.127L43.112,154.506z"/>
	</g>
	<g>
		<path style="fill:#FFFFFF;" d="M38.479,178.124c-2.179,0-4.106-5.008-4.329-5.605c-0.033-0.089-0.018-0.188,0.041-0.263
			c0.059-0.074,0.155-0.108,0.246-0.103l1.973,0.229l-0.077-2.335c-0.004-0.119,0.07-0.227,0.183-0.266
			c0.113-0.039,0.238,0,0.308,0.095l1.426,1.925l1.399-1.189c0.074-0.065,0.178-0.083,0.27-0.048
			c0.092,0.034,0.159,0.115,0.175,0.211c0.113,0.69,1.034,6.762-1.288,7.311C38.696,178.112,38.586,178.124,38.479,178.124z
			 M34.822,172.747c0.719,1.771,2.418,5.15,3.857,4.81c1.292-0.306,1.277-3.788,0.948-6.213l-1.247,1.061
			c-0.057,0.049-0.128,0.071-0.208,0.064c-0.075-0.009-0.143-0.048-0.188-0.108l-1.08-1.459l0.059,1.779
			c0.002,0.079-0.029,0.155-0.088,0.209c-0.058,0.053-0.14,0.078-0.215,0.07L34.822,172.747z"/>
	</g>
	<g>
		<path style="fill:#FFFFFF;" d="M57.725,189.067c-2.066,0-4.999-1.458-5.435-1.682c-0.084-0.043-0.14-0.127-0.147-0.221
			c-0.007-0.094,0.035-0.186,0.112-0.241l1.608-1.165l-1.634-1.669c-0.083-0.085-0.102-0.214-0.045-0.319
			c0.057-0.105,0.175-0.16,0.292-0.138l2.352,0.455l0.227-1.823c0.012-0.097,0.076-0.181,0.167-0.218
			c0.089-0.038,0.194-0.024,0.272,0.038c0.549,0.433,5.332,4.285,3.992,6.259C59.126,188.871,58.484,189.067,57.725,189.067z
			 M52.94,187.099c1.726,0.819,5.263,2.164,6.094,0.938c0.745-1.099-1.619-3.656-3.501-5.22l-0.202,1.626
			c-0.009,0.075-0.049,0.142-0.11,0.187c-0.061,0.044-0.137,0.062-0.211,0.047l-1.781-0.345l1.245,1.272
			c0.056,0.057,0.083,0.135,0.077,0.213c-0.006,0.079-0.047,0.151-0.111,0.197L52.94,187.099z"/>
	</g>
	<g>
		<path style="fill:#FFFFFF;" d="M85.704,164.682c-2.065,0-4.998-1.458-5.434-1.682c-0.084-0.043-0.14-0.127-0.147-0.221
			c-0.007-0.094,0.035-0.185,0.112-0.241l1.608-1.165l-1.635-1.669c-0.084-0.085-0.102-0.214-0.045-0.319
			c0.057-0.105,0.174-0.162,0.292-0.138l2.353,0.455l0.227-1.822c0.012-0.097,0.076-0.181,0.166-0.218
			c0.089-0.038,0.194-0.024,0.272,0.038c0.549,0.433,5.331,4.285,3.992,6.259C87.105,164.484,86.463,164.682,85.704,164.682z
			 M80.919,162.713c1.726,0.819,5.261,2.162,6.094,0.938c0.746-1.099-1.619-3.656-3.5-5.22l-0.202,1.625
			c-0.009,0.075-0.049,0.142-0.11,0.187c-0.061,0.044-0.138,0.062-0.211,0.047l-1.782-0.345l1.245,1.272
			c0.056,0.057,0.083,0.134,0.077,0.213c-0.006,0.079-0.047,0.151-0.111,0.197L80.919,162.713z"/>
	</g>
	<g>
		<path style="fill:#FFFFFF;" d="M104.68,165.13c-0.057,0-0.114-0.018-0.161-0.053c-0.076-0.056-0.118-0.148-0.11-0.242l0.166-1.979
			l-2.331,0.149c-0.121,0.005-0.229-0.063-0.271-0.174c-0.043-0.111-0.008-0.237,0.085-0.311l1.88-1.485l-1.233-1.361
			c-0.066-0.073-0.087-0.175-0.057-0.268c0.031-0.093,0.11-0.162,0.206-0.181c0.687-0.133,6.727-1.244,7.348,1.06
			c0.619,2.291-4.799,4.574-5.42,4.826C104.749,165.124,104.714,165.13,104.68,165.13z M104.873,162.292
			c0.073,0,0.143,0.029,0.194,0.081c0.055,0.057,0.083,0.134,0.077,0.213l-0.155,1.843c1.747-0.773,5.073-2.575,4.688-4.005
			c-0.378-1.403-4.329-1.061-6.238-0.752l1.098,1.212c0.051,0.056,0.076,0.13,0.069,0.205c-0.006,0.075-0.043,0.145-0.103,0.191
			l-1.424,1.125l1.776-0.113C104.861,162.292,104.867,162.292,104.873,162.292z"/>
	</g>
	<g>
		<path style="fill:#FFFFFF;" d="M93.591,175.606c-0.057,0-0.114-0.018-0.161-0.053c-0.076-0.056-0.118-0.148-0.11-0.242
			l0.167-1.979l-2.331,0.149c-0.121,0.006-0.229-0.063-0.271-0.174c-0.043-0.111-0.008-0.237,0.085-0.311l1.879-1.485l-1.233-1.361
			c-0.066-0.073-0.087-0.175-0.057-0.268c0.031-0.093,0.11-0.162,0.206-0.181c0.687-0.135,6.727-1.243,7.348,1.06
			c0.619,2.292-4.8,4.574-5.42,4.826C93.661,175.6,93.626,175.606,93.591,175.606z M93.785,172.769c0.073,0,0.143,0.029,0.194,0.081
			c0.055,0.057,0.084,0.134,0.077,0.213l-0.155,1.843c1.748-0.773,5.074-2.575,4.688-4.005c-0.346-1.281-3.826-1.16-6.24-0.754
			l1.1,1.214c0.051,0.056,0.076,0.13,0.069,0.205c-0.006,0.075-0.043,0.145-0.103,0.191l-1.423,1.125l1.776-0.113
			C93.773,172.769,93.779,172.769,93.785,172.769z"/>
	</g>
	<g>
		<path style="fill:#FFFFFF;" d="M42.829,193.18c-2.065,0-4.998-1.458-5.434-1.682c-0.084-0.043-0.14-0.127-0.147-0.221
			c-0.007-0.094,0.035-0.186,0.112-0.241l1.608-1.165l-1.635-1.669c-0.083-0.085-0.102-0.214-0.045-0.319
			c0.057-0.105,0.172-0.159,0.292-0.138l2.353,0.455l0.227-1.823c0.012-0.097,0.076-0.181,0.167-0.218
			c0.089-0.038,0.194-0.024,0.272,0.038c0.549,0.433,5.332,4.285,3.992,6.259C44.23,192.983,43.587,193.18,42.829,193.18z
			 M38.044,191.211c1.726,0.819,5.263,2.165,6.094,0.938c0.746-1.099-1.619-3.656-3.5-5.22l-0.202,1.626
			c-0.009,0.075-0.049,0.142-0.11,0.186s-0.138,0.062-0.211,0.047l-1.782-0.345l1.245,1.272c0.056,0.057,0.083,0.134,0.077,0.213
			c-0.006,0.079-0.047,0.151-0.111,0.197L38.044,191.211z"/>
	</g>
	<g>
		<path style="fill:#FFFFFF;" d="M72.716,167.021c-0.039,0-0.078-0.001-0.118-0.005c-2.378-0.197-2.375-6.337-2.366-7.037
			c0.001-0.098,0.055-0.188,0.141-0.235c0.087-0.046,0.192-0.044,0.274,0.007l1.562,0.967l1.122-2.116
			c0.056-0.105,0.17-0.16,0.291-0.14c0.117,0.022,0.206,0.118,0.22,0.236l0.274,2.32l1.917-0.521c0.092-0.023,0.189,0,0.258,0.064
			c0.069,0.065,0.099,0.161,0.08,0.254C76.235,161.46,75.006,167.021,72.716,167.021z M70.777,160.473
			c0.037,2.447,0.544,5.892,1.866,6.002c1.459,0.117,2.649-3.475,3.095-5.333l-1.785,0.485c-0.076,0.021-0.158,0.008-0.224-0.037
			c-0.065-0.044-0.108-0.115-0.118-0.194l-0.208-1.768l-0.851,1.603c-0.035,0.066-0.097,0.116-0.169,0.135
			c-0.072,0.021-0.15,0.008-0.215-0.031L70.777,160.473z"/>
	</g>
	<g>
		<path style="fill:#FFFFFF;" d="M66.087,184.663c-2.29,0-3.519-5.561-3.653-6.205c-0.02-0.093,0.011-0.189,0.08-0.254
			c0.069-0.064,0.167-0.089,0.258-0.064l1.917,0.521l0.274-2.321c0.014-0.118,0.103-0.214,0.22-0.236
			c0.12-0.021,0.235,0.035,0.291,0.14l1.122,2.117l1.561-0.968c0.084-0.051,0.188-0.055,0.274-0.007
			c0.086,0.047,0.14,0.137,0.141,0.235c0.008,0.7,0.012,6.84-2.366,7.037C66.165,184.662,66.126,184.663,66.087,184.663z
			 M63.065,178.783c0.446,1.858,1.631,5.455,3.095,5.333c1.323-0.11,1.829-3.556,1.866-6.002l-1.392,0.863
			c-0.063,0.04-0.141,0.052-0.215,0.031c-0.073-0.02-0.134-0.069-0.169-0.135l-0.85-1.604l-0.208,1.768
			c-0.009,0.079-0.052,0.149-0.118,0.194c-0.066,0.044-0.147,0.057-0.224,0.037L63.065,178.783z"/>
	</g>
	<g>
		<path style="fill:#FFFFFF;" d="M77.321,173.527c-0.142,0-0.261-0.11-0.271-0.254l-0.369-5.558
			c-0.004-0.052,0.008-0.105,0.034-0.15c0.01-0.018,1-1.867,0.646-5.648c-0.358-3.825-3.017-8.49-3.044-8.536
			c-0.075-0.13-0.03-0.297,0.1-0.372c0.13-0.073,0.297-0.031,0.372,0.1c0.112,0.195,2.745,4.813,3.114,8.757
			c0.335,3.583-0.479,5.493-0.674,5.888l0.364,5.482c0.01,0.15-0.104,0.28-0.254,0.29C77.334,173.527,77.328,173.527,77.321,173.527
			z"/>
	</g>
	<g>
		<path style="fill:#8758E7;" d="M39.16,235.009c-0.111,0-0.211-0.067-0.252-0.171c-0.042-0.105-0.015-0.227,0.069-0.303
			c0.492-0.448,3.003-2.668,4.049-2.284c0.184,0.065,0.415,0.231,0.475,0.649c0.049,0.344-0.043,0.656-0.275,0.931
			c-0.906,1.07-3.739,1.17-4.06,1.178C39.164,235.009,39.162,235.009,39.16,235.009z M42.725,232.745
			c-0.508,0-1.692,0.767-2.775,1.665c0.995-0.103,2.38-0.364,2.86-0.931c0.131-0.154,0.179-0.315,0.152-0.503
			c-0.025-0.18-0.092-0.204-0.12-0.214C42.809,232.751,42.769,232.745,42.725,232.745z"/>
	</g>
</g>
<g>
	<g>
		<polygon style="fill:#FC8165;" points="180.546,258.137 196.713,266.25 194.56,279.804 176.299,274.739 		"/>
	</g>
	<g>
		<path style="fill:#F4F4F4;" d="M135.314,261.146c-1.31-1.118-28.79-5.341-27.737,35.772c1.053,41.114,44.067,64.678,91.28,55.81
			c47.213-8.868,2.52-67.829,2.52-67.829L135.314,261.146z"/>
	</g>
	<g>
		<path style="fill:#FFFFFF;" d="M138.362,338.678c-0.051,0-0.103-0.015-0.148-0.046c-12.582-8.485-17.596-21.255-17.645-21.383
			c-0.053-0.138,0.016-0.292,0.153-0.345c0.139-0.051,0.292,0.017,0.344,0.153c0.049,0.127,5.008,12.744,17.445,21.133
			c0.122,0.082,0.154,0.248,0.072,0.37C138.532,338.637,138.448,338.678,138.362,338.678z"/>
	</g>
	<g>
		<path style="fill:#E6E6ED;" d="M128.457,312.212c0,2.836,13.16,5.136,29.393,5.136c16.234,0,29.393-2.299,29.393-5.136
			c0-2.837-13.16-5.136-29.393-5.136C141.617,307.076,128.457,309.375,128.457,312.212z"/>
	</g>
	<g>
		<polygon style="fill:#F48462;" points="218.54,331.782 217.729,340.814 200.379,340.814 200.379,330.585 		"/>
	</g>
	<g>
		<polygon style="fill:#F48462;" points="187.593,335.955 185.841,345.013 166.744,340.484 170.081,330.585 		"/>
	</g>
	<g>
		<path style="fill:#FCA032;" d="M191.009,279.032c0,0,25.092-6.106,31.972,4.496c6.88,10.602-2.741,51.062-2.741,51.062h-23.104
			L191.009,279.032z"/>
	</g>
	<g>
		<path style="fill:#EA366E;" d="M221.243,330.289c-0.006,0-23.62-0.581-23.62-0.581c-0.147-0.004-0.264-0.126-0.26-0.273
			c0.004-0.147,0.119-0.261,0.273-0.26l23.614,0.581c0.148,0.004,0.264,0.126,0.26,0.273
			C221.506,330.174,221.387,330.289,221.243,330.289z"/>
	</g>
	<g>
		<path style="fill:#FFAF45;" d="M137.719,288.355c0,0-6.316,19.391,4.154,23.3c10.47,3.909,32.186,4.028,32.186,4.028
			l-9.792,17.279l31.493,9.33c0,0,26.152-47.222,10.234-59.807c-15.918-12.586-49.422,5.74-49.422,5.74L137.719,288.355z"/>
	</g>
	<g>
		<path style="fill:#484175;" d="M198.226,337.536l0.404,18.483l0.095,4.615c0,0,47.885,0.5,48.681,0
			c0.488-0.297,0.607-2.402,0-4.615c-0.392-1.439-1.082-2.926-2.188-3.996c-2.795-2.736-17.353-7.636-18.745-8.314
			c-1.403-0.666-7.398-7.755-7.398-7.755L198.226,337.536z"/>
	</g>
	<g>
		<path style="fill:#EA366E;" d="M174.059,315.949c-0.056,0-0.111-0.018-0.158-0.053c-0.086-0.064-0.126-0.173-0.101-0.277
			c0.071-0.29,1.778-7.119,4.578-8.332c0.67-0.29,1.35-0.245,2.021,0.131c0.636,0.358,0.962,0.846,0.97,1.451
			c0.035,2.701-6.879,6.866-7.174,7.042C174.153,315.936,174.106,315.949,174.059,315.949z M179.256,307.632
			c-0.222,0-0.443,0.048-0.667,0.145c-2.088,0.904-3.602,5.593-4.098,7.325c2.197-1.392,6.368-4.41,6.344-6.226
			c-0.005-0.407-0.234-0.732-0.699-0.993C179.839,307.715,179.547,307.632,179.256,307.632z"/>
	</g>
	<g>
		<g>
			<polygon style="fill:#75B2FC;" points="177.83,271.258 177.83,285.236 147.632,284.34 145.592,271.258 			"/>
		</g>
	</g>
	<g>
		<g>
			<path style="fill:#75B2FC;" d="M186.214,258.904c0,0-9.958-13.058-14.954-16.1c-4.996-3.042-17.484-4.585-26.018,0.974
				c-8.534,5.559-12.489,13.048-13.946,21.168s0,11.034,0,11.034h24.664l25.365,0.962
				C181.325,276.942,181.306,273.425,186.214,258.904z"/>
		</g>
	</g>
	<g>
		<path style="fill:#EA366E;" d="M175.301,310.449c-4.856,0-28.637-0.194-32.701-3.957c-4.474-4.143-1.119-16.943-0.974-17.485
			c0.038-0.143,0.183-0.228,0.326-0.189c0.142,0.038,0.227,0.185,0.188,0.326c-0.035,0.13-3.418,13.032,0.821,16.958
			c4.281,3.964,32.88,3.811,33.162,3.813c0.148,0,0.268,0.118,0.269,0.265c0.001,0.147-0.118,0.268-0.265,0.269
			C176.029,310.448,175.743,310.449,175.301,310.449z"/>
	</g>
	<g>
		<path style="fill:#EA366E;" d="M145.321,292.651c-0.281,0-0.566-0.015-0.855-0.047c-0.146-0.016-0.252-0.147-0.236-0.294
			c0.016-0.145,0.147-0.248,0.294-0.235c4.309,0.465,7.972-3.151,8.009-3.189c0.104-0.103,0.272-0.104,0.377,0
			c0.104,0.104,0.104,0.273,0.001,0.377C152.764,289.41,149.486,292.651,145.321,292.651z"/>
	</g>
	<g>
		<g>
			<path style="fill:#FC8165;" d="M167.17,278.96c0,0-13.917-1.799-15.516-2.98c-3.799-2.805-20.812-1.764-20.812-1.764
				s0.246,9.466,6.698,14.253c6.453,4.787,30.6,0.34,30.6,0.34L167.17,278.96z"/>
		</g>
	</g>
	<g>
		<g>
			<path style="fill:#75B2FC;" d="M151.654,240.996c0,0-10.506,1.324-16.057,9.169c-5.551,7.845-6.661,26.647-6.661,26.647
				l22.718-0.833V240.996z"/>
		</g>
	</g>
	<g>
		<path style="fill:#ADA4F7;" d="M198.63,356.019l0.095,4.615c0,0,47.885,0.5,48.681,0c0.488-0.297,0.607-2.402,0-4.615H198.63z"/>
	</g>
	<g>
		<path style="fill:#E3E2ED;" d="M184.666,278.633h37.564l10.729-24.267h-36.083c-0.9,0-1.716,0.531-2.08,1.355L184.666,278.633z"/>
	</g>
	<g>
		<path style="fill:#8758E7;" d="M187.929,278.633h37.564l9.575-21.657c0.543-1.228-0.356-2.61-1.7-2.61h-34.711L187.929,278.633z"
			/>
	</g>
	<g>
		<path style="fill:#50447E;" d="M172.074,281.699h53.036c0.846,0,1.533-0.686,1.533-1.533c0-0.846-0.686-1.533-1.533-1.533h-53.036
			c-0.846,0-1.533,0.686-1.533,1.533C170.541,281.013,171.227,281.699,172.074,281.699z"/>
	</g>
	<g>
		<g>
			<path style="fill:#FC8165;" d="M167.17,278.96c0,0,12.433-2.628,14.155-2.018c1.721,0.611,8.139,6.686,7.632,8.016
				c-0.507,1.329-2.05,0.841-2.05,0.841s1.404,1.078,0.78,1.967c-0.624,0.889-2.376,0.407-2.376,0.407s1.186,0.832-0.455,1.344
				c-1.641,0.512-5.825-1.373-5.825-1.373s-2.746,1.978-7.043,1.449c-4.297-0.529-5.617-1.669-5.617-1.669L167.17,278.96z"/>
		</g>
	</g>
	<g>
		<path style="fill:#ADA4F7;" d="M223.391,343.701c-0.094,0-0.184-0.05-0.233-0.138c-0.071-0.129-0.024-0.291,0.104-0.362
			c2.064-1.14,7.474-4.441,7.711-6.01c0.023-0.15-0.01-0.262-0.105-0.361c-0.109-0.114-0.26-0.169-0.46-0.169
			c-1.784,0.013-5.99,4.108-7.46,5.686c-0.095,0.101-0.251,0.112-0.36,0.027c-0.109-0.087-0.133-0.242-0.056-0.357
			c1.549-2.313,5.387-8.739,4.561-10.672c-0.12-0.28-0.333-0.438-0.67-0.497c-0.477-0.084-0.918,0.032-1.351,0.351
			c-2.299,1.699-3.157,8.3-3.165,8.366c-0.019,0.145-0.154,0.244-0.297,0.231c-0.146-0.019-0.249-0.152-0.231-0.298
			c0.035-0.281,0.895-6.895,3.377-8.728c0.548-0.403,1.137-0.555,1.759-0.447c0.51,0.089,0.879,0.37,1.069,0.813
			c0.779,1.821-1.697,6.432-3.319,9.132c1.801-1.726,4.585-4.128,6.133-4.14c0.36,0,0.645,0.111,0.857,0.333
			c0.21,0.218,0.295,0.498,0.248,0.81c-0.32,2.111-7.197,5.965-7.98,6.397C223.479,343.69,223.435,343.701,223.391,343.701z"/>
	</g>
	<g>
		<path style="fill:#50447E;" d="M158.548,352.356l22.943,16.853h26.678c0,0,3.413-2.058,0.583-5.685
			c-0.155-0.226-0.357-0.452-0.583-0.69c-4.603-4.829-13.083-10.145-15.046-11.145c-1.974-0.999-4.413-10.49-4.413-10.49
			l-21.968-6.363l-5.864,12.524L158.548,352.356z"/>
	</g>
	<g>
		<path style="fill:#ADA4F7;" d="M193.12,351.961c-0.125,0-0.236-0.088-0.261-0.216c-0.028-0.143,0.066-0.284,0.21-0.313
			c2.653-0.52,9.462-2.393,9.107-4.787c-0.049-0.328-0.198-0.543-0.47-0.677c-1.623-0.794-6.653,1.657-8.455,2.67
			c-0.115,0.066-0.262,0.035-0.342-0.071c-0.081-0.105-0.071-0.255,0.023-0.349c0.042-0.043,4.198-4.256,3.963-6.39
			c-0.038-0.347-0.198-0.605-0.487-0.791c-0.241-0.153-0.51-0.188-0.825-0.099c-2.401,0.671-5.784,7.515-5.818,7.584
			c-0.064,0.133-0.225,0.188-0.356,0.122c-0.132-0.064-0.187-0.225-0.122-0.356c0.143-0.291,3.523-7.128,6.153-7.863
			c0.463-0.128,0.886-0.073,1.256,0.163c0.428,0.274,0.674,0.672,0.73,1.183c0.182,1.655-1.785,4.214-3.065,5.684
			c2.086-1.042,5.971-2.752,7.581-1.965c0.426,0.209,0.689,0.581,0.763,1.077c0.494,3.326-8.504,5.188-9.531,5.389
			C193.154,351.959,193.137,351.961,193.12,351.961z"/>
	</g>
	<g>
		<path style="fill:#ADA4F7;" d="M158.548,352.356l22.943,16.853h26.678c0,0,3.413-2.058,0.583-5.685h-25.536l-22.337-16.164
			L158.548,352.356z"/>
	</g>
	<g>
		<path style="fill:#E3E2ED;" d="M208.375,266.5c0,1.769,1.434,3.203,3.203,3.203s3.203-1.434,3.203-3.203s-1.434-3.203-3.203-3.203
			S208.375,264.731,208.375,266.5z"/>
	</g>
	<g>
		<path style="fill:#FFFFFF;" d="M151.654,276.247c-0.018,0-0.036-0.002-0.054-0.006c-0.124-0.025-0.213-0.134-0.213-0.261
			c0-0.773,0.039-7.585,1.371-8.521c0.2-0.141,0.426-0.171,0.655-0.09c0.225,0.081,0.393,0.248,0.501,0.496
			c0.742,1.708-1.73,7.559-2.015,8.221C151.856,276.185,151.759,276.247,151.654,276.247z M153.166,267.858
			c-0.034,0-0.066,0.012-0.102,0.037c-0.704,0.494-1.035,3.915-1.121,6.661c0.833-2.156,1.925-5.458,1.481-6.479
			c-0.063-0.146-0.141-0.189-0.193-0.207C153.208,267.862,153.186,267.858,153.166,267.858z"/>
	</g>
	<g>
		<path d="M186.506,285.503c-0.074,0-0.147-0.03-0.2-0.091l-4.46-5.07c-0.097-0.11-0.086-0.278,0.024-0.376
			c0.109-0.098,0.278-0.088,0.376,0.024l4.46,5.07c0.097,0.11,0.087,0.278-0.024,0.376
			C186.632,285.481,186.569,285.503,186.506,285.503z"/>
	</g>
	<g>
		<path d="M184.665,287.933c-0.071,0-0.141-0.028-0.193-0.083l-4.701-4.965c-0.102-0.107-0.097-0.276,0.01-0.377
			c0.107-0.102,0.275-0.096,0.376,0.01l4.701,4.965c0.101,0.107,0.097,0.276-0.01,0.377
			C184.797,287.908,184.731,287.933,184.665,287.933z"/>
	</g>
	<g>
		<g>
			<g>
				<g>
					<path style="fill:#FC8165;" d="M156.363,234.066l-0.698,6.979c0,0,0.581,2.37,4.631,3.109c3.016,0.551,4.63-0.267,4.63-0.267
						l-0.071-3.577l-0.074-3.488l-7.21-2.359L156.363,234.066z"/>
				</g>
			</g>
		</g>
	</g>
	<g>
		<g>
			<g>
				<g>
					<path d="M157.572,234.464c-0.001,0.192,0.048,0.425,0.135,0.694c1.213,3.642,5.407,4.82,7.148,5.153l-0.074-3.488
						L157.572,234.464z"/>
				</g>
			</g>
		</g>
	</g>
	<g>
		<g>
			<g>
				<g>
					<path style="fill:#FC8165;" d="M167.928,221.071c0,0,2.788,9.116,0.858,13.833c-1.93,4.717-6.283,3.436-8.831,2.186
						c-2.548-1.25-3.593-3.022-3.593-3.022s-2.58,0.555-3.973-1.946c-1.393-2.5-0.064-5.033,1.423-5.477
						c1.488-0.443,3.055,0.775,3.055,0.775l-1.029-2.674C155.837,224.746,162.878,212.573,167.928,221.071z"/>
				</g>
			</g>
		</g>
	</g>
	<g>
		<path d="M166.287,232.041c-0.037,0-0.074-0.008-0.109-0.023c-0.134-0.061-0.194-0.218-0.134-0.353
			c0.69-1.537-0.295-3.417-0.304-3.435c-0.069-0.13-0.02-0.292,0.109-0.361c0.131-0.065,0.291-0.02,0.36,0.109
			c0.046,0.086,1.119,2.127,0.321,3.906C166.485,231.982,166.388,232.041,166.287,232.041z"/>
	</g>
	<g>
		<path d="M156.034,231.432c-0.082,0-0.162-0.038-0.214-0.108l-2.05-2.783c-0.087-0.119-0.062-0.285,0.056-0.373
			c0.118-0.087,0.285-0.062,0.372,0.057l2.05,2.783c0.087,0.119,0.062,0.285-0.056,0.373
			C156.145,231.415,156.089,231.432,156.034,231.432z"/>
	</g>
	<g>
		<path d="M153.623,230.458c-0.144,0-0.262-0.114-0.267-0.259c-0.004-0.147,0.112-0.271,0.259-0.274l1.659-0.047
			c0.15,0.001,0.27,0.111,0.274,0.259c0.004,0.147-0.112,0.27-0.259,0.274l-1.659,0.047
			C153.628,230.458,153.626,230.458,153.623,230.458z"/>
	</g>
	<g>
		<path d="M156.867,227.42c0,0,0.823,0.697,1.598-0.241c0.775-0.938-0.28-4.119-0.28-4.119s2.61,0.938,4.378,0.253
			c1.768-0.685,2.882-3.028,2.882-3.028s5.186,3.146,6.28-0.556c1.741-5.887-6.382-4.519-6.382-4.519s-0.218-2.331-5.273-1.135
			c-4.606,1.089-5.06,6.626-5.06,6.626s-1.729-1.129-2.59,1.687s0.516,4.781,0.516,4.781S154.984,226.283,156.867,227.42z"/>
	</g>
	<g>
		<path d="M161.628,225.044c-0.052,0-0.104-0.015-0.15-0.046c-0.122-0.083-0.153-0.249-0.07-0.37
			c0.722-1.063,2.125-0.591,2.185-0.569c0.139,0.049,0.212,0.2,0.164,0.339c-0.048,0.139-0.198,0.213-0.338,0.165
			c-0.044-0.016-1.078-0.357-1.57,0.364C161.797,225.003,161.713,225.044,161.628,225.044z"/>
	</g>
	<g>
		<path d="M168.429,224.864c-0.073,0-0.146-0.03-0.199-0.09c-0.005-0.005-0.494-0.547-1.009-0.547
			c-0.217,0.001-0.409,0.1-0.587,0.302c-0.098,0.111-0.266,0.12-0.377,0.024c-0.11-0.098-0.121-0.266-0.024-0.376
			c0.282-0.32,0.614-0.482,0.986-0.483c0.758,0,1.383,0.697,1.41,0.727c0.097,0.11,0.087,0.278-0.023,0.376
			C168.555,224.842,168.492,224.864,168.429,224.864z"/>
	</g>
	<g>
		<path d="M164.276,234.583c-0.024,0-0.048-0.003-0.073-0.01c-0.06-0.018-1.469-0.428-1.992-1.559
			c-0.062-0.134-0.004-0.292,0.13-0.355c0.132-0.063,0.292-0.004,0.354,0.131c0.42,0.907,1.642,1.267,1.655,1.271
			c0.141,0.04,0.223,0.188,0.183,0.329C164.499,234.507,164.393,234.583,164.276,234.583z"/>
	</g>
	<g>
		<path d="M163.14,228.648c-0.147,0-0.267-0.119-0.267-0.267v-1.748c0-0.148,0.12-0.267,0.267-0.267
			c0.147,0,0.267,0.119,0.267,0.267v1.748C163.407,228.529,163.287,228.648,163.14,228.648z"/>
	</g>
	<g>
		<path d="M167.825,228.648c-0.147,0-0.267-0.119-0.267-0.267v-1.748c0-0.148,0.12-0.267,0.267-0.267s0.267,0.119,0.267,0.267v1.748
			C168.091,228.529,167.972,228.648,167.825,228.648z"/>
	</g>
	<g>
		<path style="fill:#FFFFFF;" d="M164.645,248.074c-1.156,0-2.745-1.778-3.384-2.555c-0.377,0.681-1.269,2.071-2.392,2.374
			c-0.502,0.135-0.99,0.043-1.449-0.275c-2.001-1.389-2.022-6.362-2.022-6.573c0-0.113,0.071-0.213,0.177-0.251
			c0.107-0.037,0.225-0.004,0.296,0.082c4.352,5.335,8.876,2.808,8.921,2.781c0.069-0.041,0.153-0.048,0.227-0.018
			c0.075,0.028,0.133,0.089,0.159,0.165c0.09,0.271,0.868,2.679,0.32,3.74c-0.129,0.249-0.319,0.414-0.566,0.489
			C164.841,248.061,164.745,248.074,164.645,248.074z M161.214,244.767c0.082,0,0.161,0.038,0.211,0.104
			c0.884,1.15,2.579,2.887,3.353,2.652c0.107-0.032,0.186-0.104,0.248-0.225c0.333-0.643-0.019-2.211-0.262-3.038
			c-1.086,0.473-4.978,1.723-8.805-2.468c0.083,1.422,0.417,4.452,1.765,5.388c0.327,0.227,0.655,0.291,1.006,0.198
			c1.229-0.33,2.232-2.438,2.242-2.459c0.039-0.084,0.12-0.142,0.212-0.151C161.195,244.768,161.205,244.767,161.214,244.767z"/>
	</g>
	<g>
		<path style="fill:#FFFFFF;" d="M177.831,276.698c-0.15-0.011-0.252-0.111-0.265-0.239l-0.777-7.461
			c-0.015-0.146,0.091-0.277,0.237-0.292c0.152-0.018,0.277,0.09,0.293,0.237l0.628,6.03l5.095-18.938
			c0.038-0.143,0.181-0.227,0.327-0.188c0.142,0.039,0.226,0.184,0.188,0.327l-5.469,20.326
			C178.057,276.618,177.951,276.698,177.831,276.698z"/>
	</g>
	<g>
		<path style="fill:#FFFFFF;" d="M129.59,273.6c-0.145,0-0.264-0.116-0.267-0.262c-0.002-0.147,0.115-0.269,0.262-0.271
			l22.097-0.378c0.14-0.017,0.268,0.114,0.271,0.262c0.003,0.147-0.115,0.269-0.262,0.272l-22.097,0.378
			C129.593,273.6,129.591,273.6,129.59,273.6z"/>
	</g>
	<g>
		<path style="fill:#EA366E;" d="M198.226,337.262c-0.023,0-0.046-0.003-0.069-0.009l-31.481-8.405
			c-0.142-0.038-0.227-0.185-0.189-0.326c0.038-0.142,0.182-0.227,0.326-0.19l31.481,8.405c0.142,0.038,0.227,0.185,0.189,0.326
			C198.451,337.183,198.344,337.262,198.226,337.262z"/>
	</g>
	<g>
		<path style="fill:#EA366E;" d="M171.593,329.999c-0.037,0-0.074-0.008-0.109-0.023c-0.134-0.061-0.194-0.218-0.134-0.353
			l8.372-18.65c0.061-0.134,0.22-0.191,0.352-0.134c0.134,0.061,0.194,0.218,0.134,0.353l-8.372,18.65
			C171.791,329.94,171.694,329.999,171.593,329.999z"/>
	</g>
</g>
</svg>
