<?xml version="1.0" encoding="utf-8"?>
<!-- Generator: Adobe Illustrator 27.5.0, SVG Export Plug-In . SVG Version: 6.00 Build 0)  -->
<svg version="1.1" xmlns="http://www.w3.org/2000/svg" xmlns:xlink="http://www.w3.org/1999/xlink" x="0px" y="0px"
	 viewBox="0 0 500 500" style="enable-background:new 0 0 500 500;" xml:space="preserve">
<g id="BACKGROUND">
	<rect style="fill:#F9FAFF;" width="500" height="500"/>
</g>
<g id="OBJECTS">
	<g>
		<g>
			
				<ellipse transform="matrix(0.7071 -0.7071 0.7071 0.7071 -96.1273 249.5123)" style="fill:#E1ECFF;" cx="253.124" cy="240.792" rx="149.027" ry="149.027"/>
			
				<ellipse transform="matrix(0.2334 -0.9724 0.9724 0.2334 169.7191 456.065)" style="fill:#E1ECFF;" cx="374.118" cy="120.388" rx="37.028" ry="37.028"/>
			
				<ellipse transform="matrix(0.2437 -0.9699 0.9699 0.2437 -24.85 265.2617)" style="fill:#E1ECFF;" cx="157.653" cy="148.564" rx="63.921" ry="63.921"/>
			
				<ellipse transform="matrix(0.9254 -0.379 0.379 0.9254 -13.0104 84.0497)" style="fill:#E1ECFF;" cx="206.986" cy="75.072" rx="15.875" ry="15.875"/>
			<circle style="fill:#E1ECFF;" cx="326.346" cy="92.221" r="3.916"/>
		</g>
		<g>
			<g>
				<path style="fill:none;" d="M430.153,256.637c0.31,0.276,0.691,0.434,1.085,0.469c0.031,0.012,0.06,0.025,0.089,0.035
					c0.484,0.16,0.992,0.079,1.326-0.331c0.47-0.581,0.288-1.56-0.176-2.09c-0.719-0.821-1.914-0.683-2.607,0.112
					C429.365,255.411,429.645,256.184,430.153,256.637z"/>
				<path style="fill:none;" d="M421.209,248.407c-0.103,1.048,0.232,2.519,1.213,3.068c0.318,0.178,0.601,0.086,0.795-0.121
					c0.798-0.286,0.917-1.538,0.954-2.264c0.04-0.802,0.016-2.078-0.876-2.449C422.161,246.172,421.305,247.429,421.209,248.407z"/>
				<path style="fill:none;" d="M421.39,259.092c-0.967,0.418-0.914,1.661-0.538,2.474c0.478,1.036,1.802,1.673,2.893,1.725
					c0.036,0.002,0.07,0,0.102-0.002c0.631,0.057,1.247-0.137,1.793-0.469c0.319-0.192,0.43-0.682,0.287-1.008
					c-0.186-0.424-0.481-0.758-0.859-0.992c-0.347-0.46-0.796-0.849-1.267-1.161C423.131,259.208,422.201,258.74,421.39,259.092z"/>
				<path style="fill:none;" d="M415.903,262.69c-0.552-0.135-1.148,0.479-1.034,1.025c0.275,1.313,1.415,2.939,2.83,3.235
					c0.479,0.294,1.2,0.07,1.302-0.594C419.265,264.628,417.393,263.057,415.903,262.69z"/>
				<path style="fill:none;" d="M413.677,249.331c-0.019,0.987-0.023,2.66,0.742,3.468c0.098,0.236,0.223,0.463,0.381,0.677
					c0.312,0.427,0.914,0.5,1.335,0.199c2.537-1.802,1.745-6.553-0.258-8.454c-0.468-0.443-1.187-0.136-1.441,0.362
					C413.857,246.724,413.7,248.068,413.677,249.331z"/>
				<path style="fill:none;" d="M410.804,255.088c-0.016-1.33-1.006-4.724-2.689-3.957c-0.994,0.452-0.855,2.018-0.471,2.829
					c0.248,0.522,0.605,0.985,0.99,1.411c0.197,0.219,0.408,0.429,0.643,0.609c0.113,0.088,0.239,0.158,0.367,0.222
					c0.063,0.031,0.449,0.146,0.212,0.062C410.571,256.516,411.275,255.635,410.804,255.088z"/>
				<path style="fill:none;" d="M436.305,286.891c-1.884-1.382-3.525-3.161-5.117-4.848c-1.857-1.967-3.814-3.852-5.993-5.466
					c-0.956-0.709-2.002-1.503-3.161-1.841c-1.301-0.375-1.29,0.793-1.102,1.783c0.706,3.737,3.802,7.367,7.082,9.175
					c1.341,0.738,2.753,1.053,4.258,1.264c0.864,0.118,2.301,0.387,3.401,0.149C435.903,287.057,436.114,286.989,436.305,286.891z"
					/>
				<path style="fill:#0C5056;" d="M451.574,283.89c0.403-0.383,2.157-2.528,1.594-2.473c-2.12,0.211-4.089-0.143-6.005-1.062
					c-1.794-0.858-4.104-1.929-5.809-2.936c-4.519-2.668-6.336-3.917-9.601-6.255c-1.367-0.978-2.892-2.356-3.325-4.052
					c-0.244-0.96,0.754-0.866,1.41-0.762c2.327,0.371,4.626,1.595,6.696,2.669c4.53,2.351,8.845,5.405,13.783,6.843
					c2.733,0.797,5.822,1.131,7.91-0.915c1.588-1.556,5.256-7.175,5.256-7.175c-0.123-0.015-0.817-0.065-1.111,0.066l-0.002-0.039
					c-1.246,0.161-3.526-0.307-4.622-0.36c-2.355-0.113-6.136-1.376-7.557-1.763c-4.274-1.157-5.201-2.153-9.249-3.986
					c-1.726-0.784-2.699-1.885-4.136-3.131c-0.629-0.548-1.304-1.256-1.416-2.116c-0.138-1.044,1.079-1.35,1.854-1.407
					c1.523-0.113,3.106,0.381,4.566,0.757c2.16,0.559,4.214,1.495,6.245,2.403c1.985,0.884,3.971,1.76,6.062,2.36
					c2.001,0.575,4.108,0.819,6.185,0.845c3.763,0.049,7.772-1.033,9.484-4.705c0.043-0.095,0.104-0.521,0.128-0.668
					c0.029-0.192,0.275-2.497,0.322-3.486c0.007-0.17,0.012-0.34,0.018-0.511c-0.176,0.046-0.351,0.092-0.529,0.134
					c-1.206,0.291-2.431,0.493-3.665,0.641c-2.659,0.319-5.345,0.556-8.024,0.382c-1.444-0.093-3.087-0.213-4.403-0.872
					c-0.987-0.497-2.065-1.595-1.448-2.792c0.562-1.09,2.051-1.349,3.147-1.494c1.415-0.187,2.853-0.192,4.278-0.166
					c3.383,0.064,7.888,1.629,10.012-1.008c1.216-1.509,0.627-2.842,1.388-5.263c0.854-2.716,1.897-5.098,1.969-5.129
					c0,0-2.314-1.108-4.162-2.617c-1.496-1.222-2.358-2.964-4.021-2.575c-0.48,0.112-1.444,0.454-1.875,0.72
					c-1.137,0.704-2.278,1.48-3.163,2.473c-1.552,1.742-2.696,3.016-4.75,4.196c-0.365,0.21-1.557,0.333-1.719-0.03
					c-1.052-2.35,1.8-4.878,3.336-6.231c1.757-1.546,3.66-2.793,5.688-3.855c0.17-0.088,0.339-0.175,0.51-0.261
					c-0.988-0.778-2.07-1.452-3.294-1.784c-2.931-0.788-6.019,1.452-8.033,3.318c-3.076,2.845-4.693,6.862-7.51,9.929
					c-0.673,0.733-1.432,1.458-2.271,2.002c-0.389,0.253-0.904,0.491-1.371,0.331c-0.516-0.179-0.695-0.933-0.675-1.409
					c0.085-1.931,1.848-3.675,2.839-5.219c2.503-3.9,4.302-8.236,7.152-11.912c0.399-0.515,0.819-1.012,1.259-1.491
					c0.293-0.319,0.555-0.632,0.924-0.855c1.001-0.603-0.31-0.596-0.861-0.757c-0.397-0.117-0.769-0.311-1.154-0.464
					c-0.978-0.39-1.952-0.8-2.963-1.101c-1.543-0.457-3.123-0.633-4.846-0.022c-3.65,1.295-5.596,5.313-6.957,8.648
					c-1,2.453-1.702,4.931-2.458,7.458c-0.788,2.632-1.623,5.502-3.226,7.768c-0.404,0.571-1.103,1.423-1.905,1.17
					c-1.019-0.322-1.37-1.385-1.455-2.342c-0.247-2.681,0.976-5.566,1.993-7.983c1.044-2.477,2.353-4.835,3.581-7.224
					c1.882-3.664,4.017-7.354,7.581-9.604c0.046,0.002,0.098-0.011,0.149-0.051c0.072-0.057,0.146-0.115,0.22-0.169
					c0.512-0.393,1.039-0.749,1.64-1.008c0.224-0.098-7.646-3.861-11.768-3.743c-3.862,0.11-6.931,2.289-8.592,5.717
					c-1.594,3.296-1.88,7.116-2.338,10.693c-0.221,1.747-0.57,3.457-0.881,5.186c-0.347,1.92-0.622,3.931-1.67,5.619
					c-0.337,0.542-0.541,1.119-1.281,1.393c-0.018,0.007-0.03,0.027-0.043,0.041c-0.302-0.024-0.474-0.194-0.579-0.457
					c-0.075-0.185-0.115-0.413-0.142-0.67c-0.084-0.78,0.014-1.587,0.104-2.363c0.243-2.096,0.419-4.174,0.479-6.286
					c0.074-2.555,0.112-5.118,0.557-7.643c0.406-2.312,1.211-5.042,3.412-6.255c0.111-0.061-7.512-2.758-10.922-1.171
					c-3.378,1.575-5.064,4.959-5.362,8.543c-0.277,3.338,0.673,6.329,1.826,9.401c0.624,1.667,1.23,3.344,1.617,5.085
					c0.309,1.395,0.508,3.036-0.269,4.318c-1.752,2.879-5.849-4.233-6.543-5.427c-1.15-1.976-2.171-4.034-2.732-6.26
					c-0.809-3.221-0.271-6.339,0.786-9.422c0.06-0.174-6.058,3.563-7.767,6.649c-1.393,2.517-2.179,5.443-1.475,8.294
					c0.696,2.804,2.752,4.716,4.872,6.507c1.786,1.505,4.548,3.572,5.017,6.1c0.018,0.098,0.032,0.201,0.044,0.301
					c-0.156,1.802-1.934,1.645-3.103,0.838c-1.049-0.725-1.887-1.759-2.65-2.764c-0.745-0.98-1.476-2.027-1.962-3.159
					c-0.665-1.547-0.876-3.255-1.482-4.827c-0.102-0.265-3.168,6.145-2.17,9.611c1,3.465,2.286,6.936,4.61,9.749
					c1.492,1.804,2.628,2.872,4.812,3.434c1.145,0.293,3.018,0.607,4.26,0.464c3.199-0.37,3.143,2.718-0.505,5.448
					c-2.499,1.869-2.347,5.683-1.726,8.677c0.658,3.177,3.066,7.484,5.634,9.451c2.401,1.838,9.988,4.635,12.515,4.185
					c-1.974-2.075-6.296-6.663-6.753-10.921c-0.281-2.607,0.41-5.077,1.921-7.14c0.197,4.116,1.97,7.978,3.499,11.753
					c1.156,2.857,2.583,5.863,5.278,7.565c2.728,1.724,6.077,1.305,8.99,0.337c1.734-0.575,3.403-1.374,4.94-2.357
					c1.151-0.737,2.335-1.646,3.065-2.829c1.344,0.927,2.816,1.642,4.482,1.974C445.655,290.037,448.661,286.658,451.574,283.89z
					 M409.644,256.203c-0.128-0.064-0.254-0.134-0.367-0.222c-0.235-0.18-0.446-0.39-0.643-0.609
					c-0.385-0.426-0.742-0.89-0.99-1.411c-0.384-0.811-0.523-2.377,0.471-2.829c1.684-0.767,2.674,2.627,2.689,3.957
					c0.13,0.453-0.233,1.428-0.948,1.176C410.093,256.349,409.707,256.234,409.644,256.203z M414.8,253.475
					c-0.158-0.214-0.283-0.442-0.381-0.677c-0.503-1.192-0.76-2.481-0.742-3.468c0.023-1.263,0.18-2.607,0.759-3.749
					c0.254-0.498,0.973-0.805,1.441-0.362c2.003,1.901,2.794,6.652,0.258,8.454C415.713,253.975,415.111,253.902,414.8,253.475z
					 M422.421,251.475c-0.981-0.55-1.315-2.021-1.213-3.068c0.097-0.978,0.952-2.235,2.086-1.765
					c0.892,0.37,0.915,1.647,0.876,2.449c-0.037,0.726-0.244,1.8-0.954,2.264C422.981,251.509,422.739,251.653,422.421,251.475z
					 M432.478,254.719c0.464,0.53,0.646,1.509,0.176,2.09c-0.334,0.41-0.842,0.491-1.326,0.331
					c-0.029-0.009-0.057-0.026-0.089-0.035c-0.385-0.092-0.776-0.193-1.085-0.469c-0.507-0.453-0.788-1.226-0.281-1.806
					C430.564,254.036,431.759,253.899,432.478,254.719z M421.39,259.092c0.811-0.352,1.741,0.117,2.412,0.565
					c0.471,0.313,0.84,0.775,1.267,1.161c0.328,0.3,0.673,0.568,0.859,0.992c0.143,0.326,0.032,0.816-0.287,1.008
					c-0.546,0.332-1.162,0.526-1.793,0.469c-0.033,0.002-0.066,0.004-0.102,0.002c-1.09-0.052-2.415-0.689-2.893-1.725
					C420.476,260.753,420.422,259.509,421.39,259.092z M417.699,266.949c-1.415-0.295-2.555-1.921-2.83-3.235
					c-0.114-0.545,0.482-1.159,1.034-1.025c1.49,0.367,3.362,1.938,3.098,3.666C418.899,267.02,418.178,267.243,417.699,266.949z
					 M435.674,287.107c-1.101,0.237-2.537-0.031-3.401-0.149c-1.505-0.211-2.917-0.527-4.258-1.264
					c-3.28-1.809-6.376-5.438-7.082-9.175c-0.188-0.99-0.199-2.157,1.102-1.783c1.159,0.337,2.205,1.132,3.161,1.841
					c2.178,1.614,4.136,3.499,5.993,5.466c1.592,1.687,3.233,3.466,5.117,4.848C436.114,286.989,435.903,287.057,435.674,287.107z"
					/>
			</g>
			<path style="fill:#308993;" d="M403.698,264.093c0.744-0.366,1.491-0.72,2.24-1.072c0.592,2.981-1.232,9.771-1.267,10.44
				c-0.017,0.327-0.037,0.676-0.054,1.037c0.552-1.173,3.22-7.229,2.697-12.026c0.611-0.282,0.853-0.483,1.465-0.758
				c1.007,0.702,1.869,1.416,2.663,2.536c1.084,1.527,1.808,3.348,2.478,5.087c1.14,2.953,3.486,9.173,4.011,8.905
				c-0.313-1.559-0.568-3.134-0.925-4.669c-0.658-2.818-1.737-5.639-3.161-8.156c-0.805-1.422-2.039-3.305-3.601-4.348
				c1.283-0.564,2.57-1.118,3.859-1.662c5.179,3.26,13.056,12.31,13.464,11.984c-0.247-0.282-0.493-0.566-0.738-0.85
				c-3.258-3.801-6.629-9.265-11.316-11.726c2.181-0.911,4.374-1.81,6.571-2.722c0.026,0.012,0.049,0.025,0.078,0.034
				c5.153,1.695,14.951,7.165,15.841,7.302c-0.135-0.085-0.271-0.169-0.407-0.254c-2.854-1.801-5.565-3.821-8.347-5.73
				c-1.437-0.987-2.906-1.946-4.536-2.437c3.755-1.543,8.758-3.141,12.574-4.543c3.498,0.643,10.675,2.507,11.309,2.391
				c-2.608-1.324-5.683-2.958-8.727-3.633c1.593-0.565,3.187-1.125,4.786-1.669c3.536-1.207,7.008-2.442,10.476-3.827
				c2.902-1.159,6.015-1.62,8.543-3.577c0.188-0.146-0.013-0.436-0.212-0.303c-2.799,1.855-5.947,2.393-9.186,2.997
				c-2.467,0.46-4.878,1.209-7.267,2.003c0.265-0.56,0.499-1.142,0.758-1.695c0.714-1.518,1.406-3.047,2.116-4.567
				c0.063-0.135,0.13-0.27,0.194-0.405c-0.53-0.097-4.906,5.745-5.811,7.588c-0.074,0.025-0.149,0.05-0.223,0.074
				c-3.628,1.211-7.282,2.451-10.903,3.777c0.849-1.556,1.357-3.448,1.88-4.992c0.783-2.31,1.402-4.678,2.119-7.009
				c0.371-1.202,0.757-2.369,1.178-3.5c-0.354,0.44-0.693,0.899-1.012,1.381c-0.486,0.733-2.778,5.303-3.38,7.21
				c-0.863,2.729-2.816,5.099-3.359,7.872c-2.437,0.929-4.853,1.902-7.224,2.943c-1.092,0.479-2.191,0.937-3.29,1.388
				c0.597-2.549,0.187-5.56,0.631-8.031c0.635-3.539,1.487-7.028,2.365-10.513c0.454-1.801,0.835-3.631,1.272-5.444
				c-0.388,0.79-0.761,1.573-1.124,2.328c-0.371,0.773-5.053,15.248-5.159,22.478c-1.347,0.539-2.696,1.073-4.042,1.612
				c0.138-2.583-0.928-5.397-1.68-7.767c-1.195-3.771-2.326-7.561-3.141-11.435c-0.429-2.042-0.835-4.208-1.031-6.379
				c-0.163,2.608-0.404,2.911-0.372,5.395c0.005,0.332,0.514,3.639,0.421,3.899c0.464,1.971,0.833,3.295,1.399,5.23
				c0.596,2.036,1.264,4.049,1.865,6.083c0.536,1.819,0.729,3.696,1.19,5.517c-1.197,0.486-2.392,0.983-3.579,1.499
				c-0.502-2.168-2.07-4.237-3.295-5.965c-1.616-2.281-3.499-4.387-5.407-6.425c-0.456-0.487-0.911-0.971-1.366-1.458
				c0.058,0.165,0.12,0.327,0.175,0.493c0.263,0.791,2.535,5.169,3.869,6.82c0.997,1.236,1.922,2.53,2.792,3.858
				c0.692,1.056,1.232,2.211,1.96,3.235c-0.692,0.312-1.379,0.631-2.064,0.962c-2.598-2.106-6.156-3.174-9.109-4.646
				c-0.719-0.358-1.462-0.738-2.184-1.157c0.309,0.819,3.325,3.165,4.676,3.711c1.689,0.683,3.531,2.029,5.168,2.8
				c-6.129,3.111-16.175,6.601-22.988,7.642c-1.222,0.185-1.091,2.023,0.161,1.925C387.94,270.669,397.923,266.933,403.698,264.093z
				"/>
		</g>
		<g>
			<g>
				<path style="fill:none;" d="M80.113,217.771c-0.296-0.315-0.677-0.516-1.083-0.589c-0.031-0.015-0.06-0.032-0.09-0.044
					c-0.487-0.212-1.023-0.176-1.408,0.219c-0.544,0.559-0.447,1.593-0.015,2.187c0.67,0.92,1.923,0.89,2.717,0.13
					C80.815,219.118,80.597,218.289,80.113,217.771z"/>
				<path style="fill:none;" d="M88.625,227.161c0.205-1.078-0.003-2.638-0.97-3.301c-0.313-0.214-0.616-0.145-0.837,0.05
					c-0.855,0.222-1.097,1.511-1.204,2.261c-0.117,0.829-0.213,2.157,0.678,2.626C87.426,229.393,88.433,228.168,88.625,227.161z"/>
				<path style="fill:none;" d="M89.445,216.048c1.044-0.343,1.106-1.639,0.792-2.518c-0.398-1.121-1.714-1.907-2.842-2.064
					c-0.037-0.005-0.073-0.006-0.107-0.007c-0.65-0.118-1.308,0.025-1.907,0.318c-0.349,0.17-0.511,0.668-0.393,1.02
					c0.154,0.458,0.428,0.833,0.799,1.111c0.317,0.51,0.746,0.956,1.206,1.326C87.648,215.762,88.569,216.336,89.445,216.048z"/>
				<path style="fill:none;" d="M95.482,212.828c0.561,0.192,1.237-0.39,1.17-0.967c-0.162-1.39-1.192-3.186-2.634-3.626
					c-0.47-0.35-1.24-0.186-1.408,0.494C92.173,210.498,93.969,212.306,95.482,212.828z"/>
				<path style="fill:none;" d="M96.535,226.912c0.112-1.023,0.275-2.76-0.443-3.671c-0.079-0.254-0.188-0.502-0.332-0.739
					c-0.283-0.473-0.902-0.605-1.368-0.333c-2.804,1.633-2.43,6.641-0.53,8.805c0.444,0.505,1.22,0.253,1.53-0.24
					C96.102,229.602,96.391,228.221,96.535,226.912z"/>
				<path style="fill:none;" d="M100.062,221.204c-0.109,1.383,0.599,5.001,2.42,4.363c1.075-0.376,1.078-2.016,0.756-2.893
					c-0.209-0.565-0.535-1.08-0.895-1.559c-0.183-0.246-0.383-0.484-0.61-0.693c-0.11-0.103-0.233-0.187-0.361-0.265
					c-0.063-0.038-0.453-0.194-0.214-0.084C100.438,219.743,99.623,220.591,100.062,221.204z"/>
				<path style="fill:none;" d="M76.576,185.77c1.826,1.613,3.362,3.615,4.857,5.518c1.743,2.218,3.598,4.36,5.708,6.242
					c0.925,0.826,1.938,1.75,3.109,2.21c1.315,0.512,1.414-0.702,1.313-1.748c-0.381-3.948-3.254-8.009-6.49-10.197
					c-1.324-0.892-2.76-1.353-4.303-1.715c-0.886-0.204-2.353-0.618-3.519-0.476C77.009,185.635,76.784,185.686,76.576,185.77z"/>
				<path style="fill:#0C5056;" d="M60.436,187.446c-0.455,0.36-2.478,2.422-1.889,2.418c2.221-0.019,4.233,0.534,6.137,1.67
					c1.782,1.06,4.08,2.39,5.756,3.597c4.441,3.197,6.211,4.665,9.382,7.401c1.327,1.145,2.782,2.719,3.071,4.522
					c0.163,1.02-0.865,0.829-1.537,0.659c-2.382-0.605-4.654-2.092-6.703-3.403c-4.483-2.869-8.676-6.448-13.669-8.407
					c-2.763-1.085-5.94-1.724-8.301,0.205c-1.796,1.467-6.135,6.956-6.135,6.956c0.126,0.028,0.842,0.144,1.16,0.036l-0.002,0.04
					c1.309-0.05,3.633,0.651,4.767,0.81c2.435,0.34,6.243,2.008,7.682,2.544c4.33,1.605,5.198,2.727,9.229,5.011
					c1.719,0.977,2.626,2.212,4,3.642c0.602,0.628,1.236,1.427,1.271,2.331c0.045,1.097-1.247,1.3-2.058,1.287
					c-1.592-0.027-3.189-0.689-4.671-1.217c-2.191-0.784-4.236-1.95-6.259-3.084c-1.978-1.105-3.958-2.202-6.073-3.023
					c-2.024-0.786-4.189-1.238-6.344-1.461c-3.904-0.405-8.169,0.34-10.294,3.992c-0.054,0.095-0.157,0.531-0.196,0.681
					c-0.048,0.197-0.521,2.567-0.663,3.591c-0.023,0.176-0.044,0.352-0.067,0.529c0.187-0.032,0.374-0.062,0.562-0.089
					c1.28-0.189,2.571-0.282,3.867-0.32c2.792-0.08,5.604-0.073,8.369,0.36c1.49,0.232,3.185,0.512,4.491,1.321
					c0.978,0.609,1.994,1.851,1.24,3.036c-0.687,1.079-2.258,1.208-3.409,1.255c-1.487,0.061-2.981-0.069-4.458-0.232
					c-3.507-0.385-8.038-2.436-10.493,0.103c-1.405,1.452-0.919,2.893-1.938,5.335c-1.143,2.74-2.451,5.116-2.529,5.141
					c0,0,2.298,1.369,4.075,3.111c1.439,1.41,2.169,3.3,3.933,3.054c0.509-0.071,1.542-0.335,2.015-0.571
					c1.247-0.624,2.505-1.322,3.518-2.271c1.776-1.662,3.084-2.878,5.329-3.91c0.399-0.183,1.648-0.199,1.783,0.193
					c0.872,2.54-2.329,4.896-4.052,6.156c-1.97,1.44-4.064,2.555-6.271,3.468c-0.185,0.075-0.369,0.15-0.554,0.223
					c0.953,0.902,2.013,1.704,3.253,2.163c2.97,1.095,6.388-0.941,8.656-2.689c3.463-2.665,5.521-6.684,8.736-9.604
					c0.769-0.698,1.624-1.379,2.547-1.865c0.427-0.226,0.986-0.425,1.455-0.215c0.519,0.234,0.634,1.035,0.569,1.527
					c-0.27,1.997-2.265,3.643-3.441,5.153c-2.968,3.815-5.244,8.148-8.552,11.697c-0.463,0.497-0.947,0.974-1.448,1.43
					c-0.334,0.303-0.635,0.604-1.04,0.801c-1.097,0.532,0.266,0.648,0.822,0.868c0.402,0.16,0.77,0.396,1.154,0.59
					c0.979,0.497,1.951,1.015,2.973,1.423c1.56,0.621,3.183,0.952,5.03,0.48c3.912-1.001,6.313-4.99,8.041-8.325
					c1.27-2.454,2.232-4.96,3.256-7.513c1.067-2.659,2.205-5.561,4.082-7.763c0.473-0.555,1.279-1.374,2.089-1.035
					c1.027,0.43,1.292,1.567,1.291,2.57c0.003,2.808-1.539,5.689-2.822,8.103c-1.318,2.474-2.9,4.8-4.4,7.165
					c-2.3,3.628-4.866,7.259-8.779,9.26c-0.047-0.007-0.102,0.003-0.159,0.039c-0.08,0.053-0.162,0.106-0.245,0.155
					c-0.568,0.36-1.15,0.679-1.798,0.892c-0.242,0.081,7.576,4.731,11.868,4.997c4.022,0.25,7.414-1.724,9.462-5.128
					c1.967-3.273,2.624-7.213,3.436-10.885c0.395-1.794,0.918-3.536,1.404-5.303c0.541-1.961,1.017-4.024,2.264-5.678
					c0.401-0.531,0.667-1.111,1.461-1.325c0.02-0.006,0.034-0.025,0.048-0.039c0.312,0.053,0.474,0.246,0.559,0.529
					c0.06,0.199,0.081,0.44,0.085,0.709c0.014,0.818-0.164,1.647-0.331,2.445c-0.45,2.154-0.828,4.296-1.091,6.484
					c-0.317,2.646-0.599,5.305-1.3,7.885c-0.64,2.363-1.733,5.122-4.133,6.174c-0.121,0.053,7.542,3.573,11.232,2.246
					c3.657-1.317,5.727-4.673,6.374-8.366c0.602-3.44-0.103-6.637-1.01-9.936c-0.491-1.79-0.962-3.589-1.199-5.433
					c-0.19-1.478-0.242-3.201,0.687-4.46c2.091-2.825,5.676,4.948,6.283,6.253c1.008,2.161,1.874,4.394,2.246,6.759
					c0.536,3.422-0.316,6.609-1.705,9.711c-0.079,0.175,6.627-3.13,8.693-6.173c1.684-2.482,2.777-5.447,2.313-8.474
					c-0.458-2.977-2.413-5.157-4.446-7.217c-1.713-1.731-4.386-4.139-4.635-6.808c-0.009-0.104-0.014-0.212-0.017-0.317
					c0.332-1.857,2.163-1.526,3.302-0.578c1.021,0.852,1.794,2.005,2.492,3.121c0.681,1.088,1.341,2.244,1.74,3.466
					c0.545,1.67,0.602,3.463,1.084,5.153c0.081,0.285,3.87-6.084,3.16-9.777c-0.712-3.693-1.72-7.419-3.868-10.56
					c-1.38-2.014-2.459-3.231-4.674-4.02c-1.161-0.412-3.077-0.915-4.38-0.884c-3.358,0.082-3.008-3.119,1.038-5.61
					c2.771-1.706,2.973-5.68,2.611-8.849c-0.384-3.361-2.478-8.062-4.96-10.347c-2.32-2.135-9.936-5.755-12.603-5.527
					c1.854,2.341,5.91,7.513,5.984,11.979c0.046,2.734-0.904,5.234-2.669,7.234c0.184-4.294-1.294-8.471-2.525-12.536
					c-0.931-3.076-2.13-6.332-4.768-8.355c-2.671-2.048-6.188-1.928-9.305-1.198c-1.855,0.433-3.664,1.106-5.353,1.982
					c-1.265,0.656-2.58,1.49-3.45,2.649c-1.308-1.09-2.77-1.971-4.469-2.473C67.162,181.62,63.721,184.847,60.436,187.446z
					 M101.371,220.156c0.127,0.078,0.251,0.163,0.361,0.265c0.227,0.209,0.427,0.447,0.61,0.693c0.36,0.479,0.687,0.994,0.895,1.559
					c0.322,0.878,0.319,2.518-0.756,2.893c-1.821,0.638-2.529-2.98-2.42-4.363c-0.093-0.483,0.376-1.461,1.096-1.132
					C100.918,219.961,101.308,220.117,101.371,220.156z M95.759,222.502c0.144,0.237,0.252,0.485,0.332,0.739
					c0.41,1.285,0.556,2.648,0.443,3.671c-0.143,1.309-0.433,2.69-1.142,3.822c-0.31,0.493-1.086,0.745-1.53,0.24
					c-1.901-2.163-2.275-7.172,0.53-8.805C94.858,221.896,95.476,222.029,95.759,222.502z M87.655,223.86
					c0.967,0.663,1.175,2.223,0.97,3.301c-0.193,1.007-1.2,2.231-2.333,1.636c-0.892-0.469-0.795-1.797-0.678-2.626
					c0.107-0.751,0.423-1.846,1.204-2.261C87.078,223.772,87.342,223.646,87.655,223.86z M77.517,219.543
					c-0.432-0.594-0.529-1.628,0.015-2.187c0.385-0.395,0.921-0.43,1.408-0.219c0.029,0.013,0.057,0.033,0.09,0.044
					c0.391,0.132,0.787,0.274,1.083,0.589c0.484,0.518,0.703,1.348,0.122,1.902C79.44,220.433,78.187,220.463,77.517,219.543z
					 M89.445,216.048c-0.876,0.288-1.797-0.285-2.452-0.815c-0.46-0.369-0.8-0.884-1.206-1.326
					c-0.312-0.342-0.645-0.653-0.799-1.111c-0.118-0.352,0.044-0.85,0.393-1.02c0.599-0.293,1.256-0.436,1.907-0.318
					c0.034,0.001,0.069,0.002,0.107,0.007c1.128,0.157,2.444,0.943,2.842,2.064C90.55,214.408,90.489,215.705,89.445,216.048z
					 M94.019,208.235c1.442,0.44,2.472,2.236,2.634,3.626c0.067,0.577-0.61,1.159-1.17,0.967c-1.513-0.522-3.309-2.33-2.872-4.099
					C92.779,208.049,93.549,207.885,94.019,208.235z M77.251,185.605c1.166-0.143,2.632,0.271,3.519,0.476
					c1.543,0.362,2.98,0.822,4.303,1.715c3.236,2.188,6.109,6.249,6.49,10.197c0.101,1.046,0.003,2.259-1.313,1.748
					c-1.171-0.459-2.184-1.383-3.109-2.21c-2.11-1.882-3.965-4.024-5.708-6.242c-1.494-1.903-3.031-3.905-4.857-5.518
					C76.784,185.686,77.009,185.635,77.251,185.605z"/>
			</g>
			<path style="fill:#308993;" d="M108.29,212.522c-0.807,0.31-1.617,0.607-2.427,0.902c-0.334-3.152,2.201-10.032,2.3-10.724
				c0.049-0.338,0.102-0.699,0.154-1.072c-0.684,1.166-4.026,7.204-3.935,12.236c-0.661,0.236-0.931,0.421-1.593,0.649
				c-0.98-0.824-1.807-1.647-2.527-2.885c-0.982-1.688-1.562-3.648-2.094-5.517c-0.905-3.174-2.755-9.856-3.326-9.626
				c0.178,1.649,0.294,3.308,0.52,4.936c0.417,2.988,1.273,6.02,2.514,8.768c0.702,1.553,1.805,3.625,3.33,4.855
				c-1.386,0.464-2.774,0.919-4.165,1.362c-5.071-3.874-12.399-14.016-12.853-13.715c0.23,0.316,0.459,0.634,0.686,0.952
				c3.025,4.255,6.011,10.248,10.647,13.245c-2.352,0.741-4.713,1.467-7.081,2.208c-0.026-0.014-0.049-0.031-0.077-0.043
				c-5.192-2.246-14.852-8.852-15.764-9.077c0.133,0.101,0.266,0.201,0.398,0.302c2.795,2.139,5.42,4.493,8.128,6.738
				c1.399,1.16,2.835,2.295,4.481,2.959c-4.045,1.249-9.392,2.436-13.487,3.532c-3.573-0.997-10.85-3.611-11.52-3.55
				c2.584,1.621,5.623,3.608,8.721,4.596c-1.707,0.436-3.416,0.868-5.128,1.282c-3.786,0.921-7.508,1.876-11.241,2.987
				c-3.123,0.93-6.4,1.115-9.209,2.909c-0.209,0.134-0.028,0.454,0.192,0.335c3.082-1.663,6.402-1.925,9.823-2.246
				c2.605-0.245,5.18-0.795,7.736-1.395c-0.328,0.556-0.626,1.139-0.947,1.688c-0.884,1.509-1.748,3.032-2.629,4.543
				c-0.079,0.135-0.16,0.268-0.24,0.402c0.541,0.15,5.637-5.504,6.751-7.333c0.079-0.018,0.159-0.038,0.239-0.056
				c3.882-0.915,7.794-1.859,11.679-2.894c-1.028,1.535-1.734,3.453-2.423,5.007c-1.031,2.325-1.897,4.726-2.862,7.079
				c-0.498,1.214-1.009,2.39-1.554,3.524c0.41-0.424,0.805-0.869,1.182-1.339c0.574-0.716,3.385-5.246,4.19-7.169
				c1.154-2.753,3.406-5.03,4.231-7.858c2.619-0.735,5.22-1.518,7.78-2.376c1.179-0.395,2.363-0.767,3.548-1.131
				c-0.86,2.591-0.719,5.757-1.413,8.282c-0.993,3.616-2.208,7.159-3.448,10.696c-0.641,1.827-1.209,3.692-1.834,5.534
				c0.477-0.784,0.938-1.562,1.386-2.312c0.458-0.768,6.686-15.36,7.477-22.858c1.45-0.433,2.901-0.86,4.35-1.292
				c-0.387,2.67,0.455,5.693,1.013,8.225c0.885,4.029,1.702,8.072,2.184,12.173c0.253,2.161,0.47,4.449,0.469,6.723
				c0.415-2.693,0.694-2.985,0.895-5.568c0.026-0.345-0.191-3.828-0.069-4.089c-0.297-2.09-0.555-3.5-0.96-5.564
				c-0.427-2.17-0.931-4.324-1.363-6.493c-0.385-1.939-0.409-3.907-0.716-5.841c1.289-0.392,2.577-0.795,3.859-1.22
				c0.317,2.299,1.75,4.596,2.859,6.506c1.464,2.521,3.22,4.886,5.009,7.183c0.427,0.548,0.855,1.095,1.281,1.643
				c-0.044-0.176-0.094-0.351-0.135-0.528c-0.198-0.846-2.146-5.607-3.375-7.448c-0.919-1.377-1.757-2.808-2.535-4.27
				c-0.619-1.162-1.071-2.413-1.73-3.545c0.748-0.258,1.492-0.525,2.234-0.804c2.499,2.432,6.094,3.877,9.022,5.684
				c0.713,0.439,1.448,0.904,2.159,1.408c-0.244-0.879-3.155-3.6-4.507-4.295c-1.69-0.869-3.476-2.44-5.103-3.396
				c6.659-2.652,17.422-5.33,24.595-5.769c1.287-0.077,1.324-1.998,0.014-2.015C125.276,207.178,114.556,210.117,108.29,212.522z"/>
		</g>
		<g>
			<path style="fill:#308993;" d="M361.741,289.385c-0.028-0.01-0.055-0.022-0.081-0.036c-0.255-0.141-0.348-0.464-0.207-0.718
				c0.114-0.205,11.52-20.74,28.946-45.646c16.09-22.996,40.753-54.533,66.872-74.174c0.235-0.176,0.567-0.126,0.74,0.105
				c0.175,0.233,0.128,0.565-0.105,0.74c-26.005,19.556-50.589,50.995-66.635,73.926c-17.396,24.862-28.78,45.357-28.893,45.561
				C362.252,289.371,361.98,289.469,361.741,289.385z"/>
			<path style="fill:#308993;" d="M458.436,159.367c-0.657,3.412-9.775,17.493-9.775,17.493s-3.237-16.46-2.58-19.872
				c0.657-3.412,3.955-5.645,7.366-4.988C456.86,152.658,459.093,155.956,458.436,159.367z"/>
			<path style="fill:#308993;" d="M460.172,191.51c-3.443-0.465-18.012-8.781-18.012-8.781s16.253-4.152,19.696-3.687
				c3.443,0.465,5.857,3.633,5.392,7.076C466.783,189.561,463.615,191.975,460.172,191.51z"/>
			<path style="fill:#308993;" d="M438.92,166.729c0.876,3.362-1.288,19.997-1.288,19.997s-10.01-13.462-10.886-16.823
				c-0.876-3.362,1.138-6.798,4.5-7.674C434.608,161.352,438.043,163.367,438.92,166.729z"/>
			<path style="fill:#308993;" d="M445.883,206.447c-3.402-0.702-17.363-10.003-17.363-10.003s16.501-3.02,19.904-2.319
				c3.402,0.702,5.592,4.029,4.891,7.431C452.612,204.958,449.285,207.148,445.883,206.447z"/>
			<path style="fill:#308993;" d="M433.049,219.568c-3.474-0.051-18.931-6.57-18.931-6.57s15.642-6.061,19.116-6.01
				c3.474,0.051,6.248,2.909,6.197,6.382C439.38,216.844,436.523,219.619,433.049,219.568z"/>
			<path style="fill:#308993;" d="M418.971,239.513c-3.19-1.377-14.973-13.316-14.973-13.316s16.771,0.389,19.96,1.766
				c3.19,1.377,4.659,5.079,3.282,8.269C425.862,239.421,422.16,240.89,418.971,239.513z"/>
			<path style="fill:#308993;" d="M421.773,182.79c1.246,3.243,0.955,20.016,0.955,20.016s-11.452-12.258-12.698-15.501
				c-1.246-3.243,0.372-6.882,3.615-8.129C416.887,177.929,420.526,179.547,421.773,182.79z"/>
			<path style="fill:#308993;" d="M413.537,200.366c0.148,3.471-5.473,19.277-5.473,19.277s-6.949-15.268-7.097-18.74
				c-0.148-3.471,2.545-6.405,6.017-6.553C410.454,194.202,413.388,196.895,413.537,200.366z"/>
			<path style="fill:#308993;" d="M393.897,215.708c1.472,3.147,2.363,19.898,2.363,19.898s-12.287-11.421-13.759-14.568
				c-1.472-3.147-0.114-6.891,3.033-8.363C388.681,211.203,392.425,212.561,393.897,215.708z"/>
			<path style="fill:#308993;" d="M474.622,165.098c-2.84,2.001-19.177,5.812-19.177,5.812s9.092-14.098,11.933-16.098
				c2.84-2,6.765-1.319,8.765,1.521C478.144,159.173,477.463,163.097,474.622,165.098z"/>
		</g>
		<g>
			<path style="fill:#308993;" d="M385.433,306.155c-0.011,0.012-0.021,0.024-0.03,0.037c-0.086,0.13-0.051,0.305,0.079,0.391
				c0.104,0.069,10.551,6.977,24.92,14.472c13.268,6.92,32.691,15.772,49.878,18.639c0.154,0.025,0.3-0.08,0.324-0.232
				c0.025-0.153-0.078-0.299-0.232-0.324c-17.112-2.854-36.474-11.679-49.705-18.58c-14.344-7.482-24.771-14.376-24.874-14.445
				C385.678,306.036,385.525,306.057,385.433,306.155z"/>
			<path style="fill:#308993;" d="M463.155,343.874c-1.15-1.452-8.927-5.87-8.927-5.87s2.518,8.582,3.668,10.035
				c1.15,1.452,3.259,1.697,4.712,0.547C464.059,347.435,464.305,345.326,463.155,343.874z"/>
			<path style="fill:#308993;" d="M456.069,328.242c-1.514,1.067-6.36,8.584-6.36,8.584s8.71-2.034,10.224-3.101
				c1.514-1.067,1.877-3.159,0.81-4.674C459.676,327.538,457.584,327.175,456.069,328.242z"/>
			<path style="fill:#308993;" d="M452.112,345.192c-0.412-1.806-5.528-9.142-5.528-9.142s-1.424,8.83-1.012,10.636
				c0.412,1.806,2.211,2.936,4.016,2.523C451.395,348.796,452.524,346.998,452.112,345.192z"/>
			<path style="fill:#308993;" d="M445.636,324.691c-1.437,1.169-5.753,9.003-5.753,9.003s8.548-2.63,9.986-3.799
				c1.437-1.169,1.654-3.281,0.485-4.718C449.186,323.74,447.073,323.523,445.636,324.691z"/>
			<path style="fill:#308993;" d="M436.338,321.641c-1.631,0.879-7.339,7.764-7.339,7.764s8.89-0.98,10.521-1.859
				c1.631-0.879,2.24-2.913,1.362-4.544C440.003,321.372,437.968,320.763,436.338,321.641z"/>
			<path style="fill:#308993;" d="M424.772,315.669c-1.17,1.436-3.807,9.982-3.807,9.982s7.838-4.309,9.008-5.745
				s0.954-3.549-0.481-4.719C428.055,314.018,425.942,314.233,424.772,315.669z"/>
			<path style="fill:#308993;" d="M440.05,341.812c-0.208-1.841-4.472-9.703-4.472-9.703s-2.402,8.615-2.194,10.456
				c0.208,1.841,1.869,3.164,3.709,2.956C438.935,345.314,440.258,343.653,440.05,341.812z"/>
			<path style="fill:#308993;" d="M431.831,335.524c-0.784-1.678-7.33-7.772-7.33-7.772s0.469,8.932,1.252,10.61
				c0.784,1.678,2.78,2.404,4.458,1.62S432.614,337.202,431.831,335.524z"/>
			<path style="fill:#308993;" d="M418.767,333.098c-0.078-1.851-3.777-9.994-3.777-9.994s-3.003,8.425-2.925,10.276
				c0.078,1.851,1.641,3.288,3.492,3.21C417.407,336.512,418.845,334.948,418.767,333.098z"/>
			<path style="fill:#308993;" d="M469.402,337.182c-1.836-0.248-10.501,1.968-10.501,1.968s7.769,4.432,9.604,4.68
				c1.836,0.248,3.525-1.04,3.772-2.875C472.525,339.118,471.237,337.429,469.402,337.182z"/>
		</g>
		<g>
			<path style="fill:#308993;" d="M117.835,275.749c0.014,0.008,0.026,0.017,0.039,0.027c0.119,0.1,0.135,0.278,0.036,0.397
				c-0.08,0.096-8.132,9.689-19.777,20.96c-10.753,10.407-26.858,24.415-42.521,32.05c-0.141,0.068-0.31,0.009-0.377-0.13
				c-0.068-0.14-0.01-0.309,0.13-0.377c15.594-7.601,31.649-21.567,42.372-31.944c11.625-11.251,19.661-20.825,19.741-20.921
				C117.567,275.704,117.719,275.681,117.835,275.749z"/>
			<path style="fill:#308993;" d="M54.044,334.007c0.69-1.719,6.889-8.166,6.889-8.166s0.026,8.944-0.663,10.663
				c-0.689,1.719-2.642,2.554-4.361,1.864C54.189,337.679,53.355,335.727,54.044,334.007z"/>
			<path style="fill:#308993;" d="M56.393,317.006c1.755,0.592,8.539,6.422,8.539,6.422s-8.929,0.526-10.684-0.066
				c-1.755-0.592-2.698-2.495-2.105-4.25C52.735,317.357,54.638,316.414,56.393,317.006z"/>
			<path style="fill:#308993;" d="M65.006,332.132c-0.118-1.849,2.701-10.337,2.701-10.337s3.875,8.061,3.993,9.909
				c0.118,1.849-1.285,3.443-3.133,3.561C66.719,335.383,65.124,333.98,65.006,332.132z"/>
			<path style="fill:#308993;" d="M65.386,310.636c1.71,0.712,8.075,6.996,8.075,6.996s-8.944-0.091-10.654-0.803
				c-1.71-0.712-2.519-2.676-1.807-4.386C61.713,310.733,63.676,309.924,65.386,310.636z"/>
			<path style="fill:#308993;" d="M73.434,305.068c1.813,0.379,9.244,5.357,9.244,5.357s-8.802,1.588-10.615,1.209
				c-1.813-0.379-2.976-2.156-2.597-3.969S71.621,304.69,73.434,305.068z"/>
			<path style="fill:#308993;" d="M82.825,296.055c1.53,1.044,6.488,8.488,6.488,8.488s-8.739-1.903-10.269-2.947
				c-1.53-1.044-1.924-3.131-0.88-4.661C79.208,295.405,81.295,295.011,82.825,296.055z"/>
			<path style="fill:#308993;" d="M75.609,325.462c-0.324-1.824,1.529-10.574,1.529-10.574s4.752,7.577,5.076,9.401
				c0.324,1.824-0.892,3.565-2.716,3.889C77.674,328.502,75.933,327.286,75.609,325.462z"/>
			<path style="fill:#308993;" d="M81.702,317.097c0.274-1.832,4.818-9.536,4.818-9.536s2.09,8.696,1.816,10.528
				c-0.274,1.832-1.981,3.095-3.813,2.821C82.69,320.636,81.428,318.929,81.702,317.097z"/>
			<path style="fill:#308993;" d="M93.537,311.057c-0.452-1.797,0.78-10.655,0.78-10.655s5.274,7.223,5.726,9.02
				c0.452,1.796-0.639,3.619-2.435,4.07C95.811,313.943,93.988,312.853,93.537,311.057z"/>
			<path style="fill:#308993;" d="M46.153,329.367c1.689-0.759,10.627-1.099,10.627-1.099s-6.188,6.458-7.878,7.217
				c-1.69,0.759-3.675,0.005-4.434-1.684C43.709,332.112,44.463,330.127,46.153,329.367z"/>
		</g>
		<g>
			<path style="fill:#308993;" d="M146.426,270.635c0.029-0.005,0.057-0.013,0.086-0.023c0.274-0.1,0.416-0.404,0.316-0.677
				c-0.08-0.22-8.16-22.278-21.506-49.588c-12.324-25.216-31.79-60.2-54.542-83.659c-0.204-0.21-0.541-0.213-0.747-0.011
				c-0.209,0.203-0.215,0.538-0.011,0.747c22.652,23.357,42.056,58.233,54.346,83.377c13.324,27.262,21.387,49.276,21.467,49.495
				C145.924,270.542,146.178,270.681,146.426,270.635z"/>
			<path style="fill:#308993;" d="M71.095,127.179c0.119,3.472,6.939,18.798,6.939,18.798s5.754-15.758,5.634-19.23
				c-0.119-3.472-3.03-6.19-6.503-6.071C73.695,120.795,70.976,123.707,71.095,127.179z"/>
			<path style="fill:#308993;" d="M64.39,158.662c3.473,0.075,19.157-5.877,19.157-5.877s-15.411-6.626-18.885-6.701
				c-3.473-0.075-6.35,2.68-6.425,6.153C58.161,155.71,60.916,158.587,64.39,158.662z"/>
			<path style="fill:#308993;" d="M89.232,137.482c-1.388,3.185-1.833,19.954-1.833,19.954s11.979-11.744,13.367-14.929
				c1.388-3.185-0.069-6.892-3.254-8.28C94.327,132.84,90.62,134.297,89.232,137.482z"/>
			<path style="fill:#308993;" d="M76.186,175.636c3.47-0.165,18.706-7.186,18.706-7.186s-15.832-5.546-19.302-5.382
				c-3.47,0.165-6.15,3.112-5.985,6.582C69.769,173.121,72.715,175.801,76.186,175.636z"/>
			<path style="fill:#308993;" d="M86.826,190.592c3.44,0.489,19.721-3.55,19.721-3.55s-14.511-8.417-17.95-8.906
				c-3.44-0.489-6.624,1.903-7.113,5.342C80.995,186.918,83.386,190.102,86.826,190.592z"/>
			<path style="fill:#308993;" d="M97.636,212.481c3.365-0.865,16.86-10.83,16.86-10.83s-16.628-2.22-19.992-1.355
				c-3.365,0.865-5.391,4.294-4.526,7.659C90.842,211.319,94.271,213.346,97.636,212.481z"/>
			<path style="fill:#308993;" d="M103.676,156.011c-1.735,3.01-4.051,19.625-4.051,19.625s13.216-10.332,14.951-13.341
				c1.735-3.01,0.702-6.857-2.308-8.592C109.258,151.967,105.411,153.001,103.676,156.011z"/>
			<path style="fill:#308993;" d="M109.083,174.653c-0.685,3.406,2.413,19.893,2.413,19.893s9.235-14.004,9.921-17.41
				c0.686-3.406-1.52-6.723-4.926-7.408C113.086,169.042,109.769,171.247,109.083,174.653z"/>
			<path style="fill:#308993;" d="M126.102,192.858c-1.943,2.88-5.424,19.29-5.424,19.29s13.912-9.374,15.854-12.254
				c1.943-2.88,1.183-6.79-1.697-8.733C131.955,189.218,128.045,189.978,126.102,192.858z"/>
			<path style="fill:#308993;" d="M54.216,130.326c2.495,2.417,18.042,8.719,18.042,8.719s-6.793-15.338-9.288-17.756
				c-2.495-2.417-6.478-2.354-8.895,0.141C51.657,123.926,51.721,127.909,54.216,130.326z"/>
		</g>
		<g>
			<g>
				<path style="fill:#136E77;" d="M378.829,206.788c-8.989-3.334-11.697-15.334-4.713-29.096
					c6.531-12.868,14.655-13.546,20.722-16.621c4.868-2.467,9.508-6.765,9.508-6.765s14.709,13.844,14.181,31.596
					c-0.338,11.383-2.829,22.091-11.708,26.763c-4.683,2.464-13.494,1.413-16.138-2.511c-2.308-3.424-2.227-6.04-2.227-6.04
					S384.105,208.745,378.829,206.788z"/>
			</g>
			<path style="fill:#0C5056;" d="M409.899,189.278c-3.352-1.246-6.896-1.906-10.457-1.917c-0.987-0.003-1.976,0.055-2.957,0.161
				c-0.728,0.079-1.522,0.161-2.229,0.421c0.153-0.586,0.307-1.172,0.462-1.757c0.567-2.142,1.168-4.272,1.798-6.391
				c1.179-0.489,2.342-1.019,3.559-1.416c1.78-0.581,3.616-0.96,5.477-1.134c3.53-0.33,7.094,0.102,10.472,1.217
				c0.678,0.224,1.348,0.476,2.007,0.754c-0.019-0.108-0.038-0.215-0.058-0.322c-0.02-0.108-0.04-0.217-0.061-0.325
				c-0.021-0.106-0.043-0.212-0.065-0.317c-0.265-0.105-0.531-0.207-0.799-0.304c-1.716-0.618-3.492-1.055-5.293-1.301
				c-3.714-0.507-7.492-0.199-11.087,0.86c-1.323,0.39-2.682,0.852-3.918,1.517c0.87-2.885,1.797-5.749,2.779-8.591
				c1.232-0.51,2.412-1.174,3.685-1.597c1.599-0.531,3.258-0.857,4.935-0.976c1.677-0.119,3.362-0.032,5.019,0.269
				c0.419,0.076,0.835,0.166,1.249,0.269c-0.016-0.033-0.032-0.066-0.048-0.099c-0.04-0.081-0.08-0.163-0.12-0.244
				c-0.065-0.13-0.13-0.258-0.196-0.386c-0.029-0.057-0.058-0.113-0.087-0.17c-0.216-0.045-0.433-0.088-0.65-0.125
				c-1.72-0.297-3.481-0.378-5.218-0.246c-1.737,0.132-3.462,0.48-5.115,1.036c-1.038,0.349-2.165,0.763-3.141,1.367
				c1.02-2.909,2.114-5.787,3.303-8.616c0.063-0.15,0.127-0.299,0.19-0.449c0.916-0.708,1.886-1.326,3-1.742
				c0.514-0.192,1.042-0.343,1.578-0.451c-0.044-0.055-0.089-0.11-0.132-0.164c-0.039-0.048-0.077-0.095-0.116-0.142
				c-0.056-0.068-0.111-0.136-0.166-0.202c-0.004-0.004-0.007-0.008-0.011-0.013c-0.429,0.101-0.853,0.224-1.266,0.376
				c-0.864,0.318-1.686,0.747-2.439,1.284c0.421-0.981,0.849-1.958,1.287-2.929c0.148-0.327,0.302-0.648,0.455-0.968
				c-0.009-0.01-0.018-0.02-0.027-0.029c-0.063-0.068-0.124-0.132-0.183-0.194c-0.012-0.013-0.023-0.024-0.035-0.037
				c-0.046-0.048-0.09-0.095-0.133-0.14c-0.021-0.022-0.04-0.041-0.06-0.062c-0.032-0.033-0.065-0.067-0.095-0.098
				c-0.02-0.021-0.038-0.039-0.057-0.059c-0.028-0.029-0.056-0.058-0.083-0.085c-0.018-0.019-0.035-0.035-0.052-0.053
				c-0.024-0.025-0.048-0.049-0.071-0.072c-0.018-0.018-0.034-0.034-0.05-0.05c-0.02-0.02-0.039-0.039-0.057-0.057
				c-0.016-0.016-0.03-0.03-0.044-0.044c-0.008-0.008-0.018-0.018-0.025-0.025l0,0c-0.131-0.129-0.203-0.197-0.203-0.197
				s-0.071,0.065-0.203,0.185c-0.081,0.16-0.162,0.322-0.245,0.485c-0.647,1.281-1.277,2.573-1.865,3.888
				c-0.389,0.871-0.769,1.747-1.14,2.627c-0.093-0.992-0.278-1.971-0.577-2.946c-0.078-0.254-0.163-0.506-0.251-0.756
				c-0.155,0.114-0.312,0.228-0.472,0.342c0.07,0.2,0.138,0.4,0.201,0.602c0.34,1.091,0.631,2.215,0.852,3.348
				c-0.643,1.545-1.26,3.103-1.854,4.672c-0.378,0.999-0.743,2.004-1.099,3.012c-0.152-0.509-0.325-1.013-0.531-1.501
				c-0.527-1.246-1.18-2.437-1.946-3.545c-0.684-0.989-1.46-1.918-2.312-2.759c-0.236,0.1-0.475,0.199-0.715,0.298
				c0.912,0.866,1.741,1.817,2.469,2.852c0.741,1.054,1.379,2.186,1.892,3.375c0.256,0.594,0.503,1.192,0.711,1.805
				c0.042,0.123,0.079,0.251,0.116,0.38c-0.818,2.364-1.583,4.747-2.326,7.141c-1.099-2.815-3.023-5.319-5.027-7.503
				c-1.187-1.294-2.476-2.487-3.852-3.565c-0.475-0.372-0.961-0.729-1.455-1.072c-0.226,0.134-0.452,0.274-0.678,0.418
				c0.568,0.383,1.124,0.785,1.666,1.207c1.354,1.054,2.626,2.22,3.799,3.483c2.124,2.287,3.715,4.928,5.389,7.546
				c-0.505,1.636-1.001,3.275-1.495,4.916c-0.371,1.231-0.735,2.464-1.094,3.699c-0.228-0.456-0.515-0.888-0.794-1.3
				c-0.485-0.716-1.005-1.404-1.558-2.066c-1.086-1.299-2.282-2.499-3.575-3.58c-2.586-2.163-5.541-3.854-8.692-4.964
				c-0.572-0.202-1.155-0.391-1.745-0.559c-0.124,0.197-0.248,0.398-0.371,0.602c0.416,0.106,0.829,0.221,1.241,0.352
				c1.592,0.509,3.135,1.178,4.609,1.981c2.883,1.57,5.502,3.666,7.676,6.17c0.614,0.707,1.191,1.448,1.734,2.213
				c0.425,0.599,0.808,1.253,1.279,1.821c-0.541,1.868-1.069,3.74-1.589,5.615c-0.332-0.438-0.834-0.818-1.207-1.118
				c-0.636-0.511-1.304-0.986-1.988-1.426c-1.424-0.914-2.926-1.697-4.482-2.343c-3.063-1.271-6.317-2.012-9.613-2.179
				c-0.757-0.038-1.518-0.056-2.275-0.028c-0.063,0.262-0.122,0.524-0.177,0.783c0.556-0.019,1.112-0.031,1.669-0.018
				c1.642,0.037,3.28,0.229,4.891,0.558c3.139,0.64,6.169,1.815,8.935,3.476c0.804,0.483,1.591,1.001,2.349,1.556
				c0.51,0.373,1.132,0.967,1.761,1.234c-0.542,1.959-1.073,3.922-1.599,5.887c-0.252-0.156-0.521-0.288-0.759-0.413
				c-0.712-0.375-1.444-0.71-2.19-1.005c-1.469-0.58-2.992-1.018-4.542-1.289c-3.144-0.55-6.377-0.463-9.483,0.257
				c-0.348,0.081-0.697,0.17-1.044,0.27c0.076,0.294,0.158,0.582,0.248,0.866c0.587-0.172,1.18-0.325,1.784-0.445
				c1.87-0.372,3.788-0.507,5.692-0.409c1.926,0.099,3.85,0.449,5.697,1.025c0.968,0.302,1.916,0.673,2.836,1.108
				c0.471,0.223,1.007,0.6,1.549,0.837c-0.188,0.707-0.376,1.413-0.563,2.12c-0.324-0.033-0.685,0.006-0.879,0.01
				c-0.776,0.018-1.55,0.085-2.316,0.212c-1.476,0.244-2.924,0.655-4.308,1.231c-1.244,0.518-2.441,1.165-3.559,1.928
				c0.256,0.146,0.519,0.283,0.788,0.412c1.068-0.686,2.2-1.263,3.379-1.721c1.391-0.54,2.835-0.91,4.311-1.107
				c0.741-0.099,1.48-0.145,2.226-0.178c0.032-0.001,0.086-0.001,0.151-0.003c-0.122,0.461-0.242,0.923-0.363,1.384
				c-0.035,0.132-0.069,0.264-0.104,0.396c-1.157,4.407-2.298,8.818-3.457,13.222c-0.912,3.463-1.874,6.914-2.728,10.395
				c-0.427,1.739-0.869,3.474-1.277,5.217c-0.193,0.822-0.189,1.693-0.322,2.535c-0.142,0.899-0.262,1.766-0.299,2.679
				c-0.022,0.549,0.685,0.588,0.888,0.196c0.342-0.659,0.608-1.326,0.869-2.028c0.129-0.346,0.249-0.698,0.387-1.04
				c0.173-0.43,0.423-0.81,0.573-1.251c0.499-1.474,0.851-3.029,1.269-4.533c0.845-3.04,1.616-6.106,2.409-9.163
				c1.147-4.424,2.295-8.849,3.443-13.273c0.05-0.194,0.101-0.388,0.151-0.582c0.182-0.703,0.365-1.406,0.547-2.109
				c0.052,0.057,0.104,0.114,0.154,0.17c0.421,0.472,0.833,0.949,1.214,1.456c0.722,0.959,1.344,2,1.852,3.094
				c0.391,0.841,0.713,1.715,0.965,2.61c0.335,0.149,0.684,0.286,1.044,0.41c-0.283-1.176-0.688-2.322-1.207-3.41
				c-0.54-1.133-1.197-2.201-1.968-3.184c-0.479-0.611-1.112-1.474-1.841-1.965c0.123-0.474,0.246-0.947,0.368-1.42
				c0.181-0.696,0.36-1.393,0.539-2.09c0.119,0.04,0.238,0.077,0.358,0.11c0.492,0.136,0.985,0.264,1.474,0.411
				c1.01,0.303,1.993,0.69,2.946,1.148c1.816,0.874,3.506,2.002,5.002,3.379c1.492,1.373,2.779,2.967,3.822,4.724
				c0.457,0.769,0.842,1.558,1.183,2.365c0.316-0.116,0.619-0.246,0.909-0.387c-0.867-1.947-2.055-3.769-3.394-5.333
				c-2.192-2.561-4.983-4.574-8.079-5.801c-0.829-0.328-1.677-0.606-2.538-0.827c-0.461-0.118-0.934-0.213-1.406-0.264
				c-0.051-0.006-0.102-0.01-0.153-0.013c0.492-1.922,0.98-3.846,1.469-5.77c1.407,0.017,2.815-0.002,4.219,0.152
				c1.978,0.218,3.936,0.67,5.813,1.356c3.428,1.252,6.567,3.285,9.169,5.9c0.711,0.714,1.38,1.469,2.003,2.266
				c0.203,0.259,0.394,0.527,0.582,0.797c0.018-0.032,0.038-0.063,0.056-0.096c0.099-0.178,0.194-0.358,0.289-0.54
				c0.053-0.102,0.105-0.205,0.156-0.307c-0.585-0.747-1.225-1.452-1.852-2.113c-1.313-1.385-2.771-2.613-4.339-3.678
				c-3.333-2.263-7.176-3.69-11.136-4.166c-1.59-0.191-3.239-0.299-4.831-0.072c0.501-1.968,1.004-3.936,1.516-5.9
				c0.672,0.021,1.355-0.096,2.02-0.155c0.862-0.076,1.722-0.134,2.588-0.142c1.731-0.015,3.456,0.109,5.166,0.394
				c3.449,0.575,6.795,1.759,9.853,3.506c1.416,0.808,2.682,1.773,3.954,2.767c0.023-0.136,0.046-0.272,0.067-0.408
				c0.034-0.211,0.066-0.424,0.097-0.637c-0.963-0.759-2.012-1.429-3.035-2.043C413.276,190.712,411.615,189.916,409.899,189.278z"
				/>
		</g>
		<g>
			<g>
				<path style="fill:#136E77;" d="M118.105,199.125c-8.989-3.334-11.697-15.333-4.713-29.096
					c6.531-12.868,14.655-13.546,20.722-16.621c4.868-2.467,9.508-6.765,9.508-6.765s14.709,13.844,14.181,31.596
					c-0.338,11.383-2.829,22.091-11.708,26.763c-4.683,2.464-13.494,1.413-16.138-2.511c-2.308-3.424-2.227-6.04-2.227-6.04
					S123.382,201.082,118.105,199.125z"/>
			</g>
			<path style="fill:#0C5056;" d="M149.175,181.616c-3.352-1.246-6.896-1.906-10.457-1.917c-0.987-0.003-1.976,0.055-2.957,0.161
				c-0.728,0.079-1.522,0.161-2.229,0.421c0.153-0.586,0.307-1.172,0.462-1.757c0.567-2.142,1.167-4.272,1.798-6.391
				c1.179-0.489,2.342-1.019,3.559-1.416c1.78-0.581,3.616-0.96,5.477-1.134c3.53-0.33,7.094,0.102,10.472,1.217
				c0.678,0.224,1.347,0.476,2.007,0.754c-0.019-0.108-0.038-0.215-0.058-0.322c-0.02-0.109-0.04-0.217-0.061-0.325
				c-0.021-0.106-0.043-0.212-0.065-0.317c-0.265-0.105-0.531-0.207-0.799-0.304c-1.716-0.618-3.492-1.055-5.293-1.301
				c-3.714-0.507-7.492-0.199-11.086,0.86c-1.323,0.39-2.682,0.852-3.918,1.517c0.87-2.885,1.797-5.749,2.779-8.591
				c1.232-0.511,2.412-1.174,3.685-1.597c1.598-0.531,3.258-0.857,4.935-0.976c1.677-0.119,3.362-0.032,5.019,0.269
				c0.419,0.076,0.835,0.166,1.249,0.269c-0.016-0.033-0.032-0.066-0.048-0.099c-0.04-0.081-0.08-0.163-0.12-0.244
				c-0.065-0.13-0.13-0.258-0.196-0.386c-0.029-0.057-0.058-0.113-0.087-0.17c-0.216-0.045-0.433-0.088-0.65-0.125
				c-1.72-0.297-3.481-0.378-5.218-0.246c-1.737,0.132-3.462,0.48-5.116,1.036c-1.037,0.349-2.165,0.763-3.141,1.367
				c1.02-2.909,2.114-5.786,3.303-8.616c0.063-0.15,0.127-0.299,0.19-0.449c0.916-0.709,1.886-1.326,3-1.742
				c0.514-0.192,1.042-0.343,1.578-0.451c-0.044-0.055-0.089-0.11-0.132-0.164c-0.039-0.048-0.077-0.095-0.116-0.142
				c-0.056-0.068-0.111-0.136-0.166-0.202c-0.004-0.004-0.007-0.008-0.011-0.013c-0.429,0.101-0.853,0.224-1.266,0.377
				c-0.864,0.318-1.686,0.747-2.439,1.284c0.421-0.981,0.849-1.958,1.287-2.929c0.148-0.327,0.302-0.648,0.455-0.968
				c-0.009-0.01-0.018-0.02-0.027-0.029c-0.063-0.068-0.124-0.132-0.183-0.194c-0.012-0.013-0.023-0.024-0.035-0.037
				c-0.046-0.048-0.09-0.095-0.133-0.14c-0.021-0.022-0.04-0.041-0.06-0.062c-0.032-0.034-0.065-0.067-0.095-0.098
				c-0.02-0.021-0.038-0.039-0.057-0.059c-0.028-0.029-0.056-0.058-0.083-0.085c-0.018-0.019-0.035-0.035-0.052-0.053
				c-0.024-0.025-0.048-0.049-0.071-0.072c-0.018-0.018-0.033-0.034-0.05-0.05c-0.02-0.02-0.039-0.039-0.057-0.057
				c-0.016-0.016-0.03-0.03-0.045-0.044c-0.008-0.008-0.018-0.018-0.025-0.025v0c-0.131-0.129-0.203-0.197-0.203-0.197
				s-0.071,0.066-0.204,0.185c-0.081,0.16-0.162,0.322-0.245,0.485c-0.647,1.281-1.277,2.573-1.866,3.888
				c-0.389,0.871-0.769,1.747-1.14,2.627c-0.093-0.992-0.278-1.971-0.577-2.946c-0.078-0.254-0.163-0.506-0.251-0.756
				c-0.155,0.114-0.312,0.228-0.472,0.342c0.07,0.2,0.138,0.4,0.201,0.602c0.34,1.091,0.631,2.215,0.852,3.348
				c-0.643,1.545-1.26,3.103-1.854,4.672c-0.378,1-0.743,2.004-1.099,3.012c-0.152-0.509-0.325-1.013-0.532-1.501
				c-0.527-1.246-1.18-2.437-1.946-3.545c-0.684-0.989-1.46-1.918-2.312-2.759c-0.236,0.1-0.475,0.199-0.715,0.298
				c0.912,0.866,1.741,1.816,2.469,2.852c0.741,1.055,1.379,2.186,1.892,3.375c0.256,0.594,0.503,1.192,0.711,1.805
				c0.042,0.123,0.079,0.251,0.116,0.38c-0.818,2.364-1.583,4.747-2.326,7.141c-1.099-2.815-3.023-5.319-5.027-7.503
				c-1.187-1.294-2.476-2.487-3.851-3.565c-0.475-0.372-0.961-0.729-1.455-1.073c-0.226,0.135-0.452,0.274-0.678,0.418
				c0.568,0.383,1.124,0.785,1.666,1.207c1.354,1.054,2.626,2.22,3.799,3.483c2.124,2.287,3.715,4.928,5.389,7.546
				c-0.505,1.635-1.001,3.275-1.495,4.916c-0.371,1.231-0.735,2.464-1.094,3.699c-0.228-0.456-0.515-0.888-0.794-1.3
				c-0.485-0.716-1.005-1.404-1.558-2.066c-1.086-1.299-2.282-2.499-3.575-3.58c-2.586-2.163-5.541-3.854-8.692-4.964
				c-0.572-0.202-1.155-0.391-1.745-0.559c-0.124,0.197-0.248,0.398-0.371,0.602c0.416,0.106,0.83,0.221,1.241,0.353
				c1.592,0.509,3.136,1.178,4.609,1.981c2.883,1.57,5.502,3.666,7.676,6.17c0.614,0.706,1.191,1.448,1.734,2.213
				c0.425,0.599,0.809,1.253,1.279,1.821c-0.541,1.868-1.069,3.74-1.589,5.615c-0.332-0.438-0.834-0.818-1.207-1.118
				c-0.636-0.511-1.304-0.986-1.988-1.426c-1.424-0.914-2.926-1.697-4.482-2.343c-3.063-1.271-6.317-2.012-9.612-2.179
				c-0.757-0.038-1.518-0.056-2.275-0.028c-0.063,0.262-0.122,0.524-0.177,0.783c0.556-0.019,1.112-0.03,1.669-0.018
				c1.642,0.037,3.28,0.229,4.891,0.558c3.139,0.64,6.169,1.815,8.935,3.476c0.804,0.483,1.591,1.001,2.349,1.556
				c0.51,0.374,1.132,0.967,1.761,1.234c-0.541,1.959-1.073,3.922-1.599,5.887c-0.252-0.156-0.52-0.288-0.759-0.413
				c-0.712-0.375-1.444-0.71-2.191-1.005c-1.468-0.58-2.992-1.018-4.542-1.289c-3.145-0.55-6.377-0.463-9.483,0.257
				c-0.347,0.08-0.697,0.17-1.045,0.269c0.076,0.294,0.158,0.582,0.248,0.866c0.587-0.172,1.18-0.325,1.784-0.445
				c1.87-0.372,3.788-0.507,5.692-0.409c1.926,0.099,3.849,0.449,5.697,1.025c0.968,0.302,1.916,0.673,2.835,1.108
				c0.471,0.223,1.007,0.6,1.55,0.837c-0.188,0.707-0.376,1.413-0.563,2.12c-0.324-0.033-0.685,0.006-0.879,0.01
				c-0.776,0.018-1.55,0.085-2.316,0.212c-1.476,0.244-2.924,0.655-4.308,1.231c-1.244,0.518-2.441,1.165-3.559,1.928
				c0.256,0.146,0.519,0.283,0.788,0.412c1.068-0.686,2.2-1.263,3.379-1.721c1.391-0.539,2.835-0.91,4.311-1.107
				c0.741-0.099,1.48-0.145,2.226-0.178c0.032-0.001,0.086-0.001,0.151-0.003c-0.122,0.461-0.242,0.923-0.363,1.384
				c-0.035,0.132-0.069,0.264-0.104,0.396c-1.157,4.406-2.298,8.818-3.457,13.222c-0.912,3.463-1.874,6.914-2.728,10.395
				c-0.426,1.738-0.869,3.473-1.277,5.217c-0.193,0.822-0.189,1.693-0.322,2.535c-0.142,0.898-0.262,1.766-0.299,2.679
				c-0.022,0.549,0.685,0.588,0.888,0.196c0.341-0.659,0.608-1.326,0.869-2.028c0.129-0.346,0.249-0.698,0.386-1.04
				c0.173-0.43,0.424-0.81,0.573-1.251c0.499-1.474,0.851-3.029,1.269-4.533c0.845-3.04,1.616-6.106,2.409-9.163
				c1.147-4.424,2.295-8.849,3.443-13.273c0.05-0.194,0.1-0.388,0.151-0.582c0.182-0.703,0.365-1.406,0.547-2.109
				c0.052,0.057,0.104,0.114,0.154,0.17c0.421,0.472,0.833,0.949,1.214,1.456c0.722,0.959,1.344,2,1.852,3.094
				c0.391,0.841,0.713,1.715,0.965,2.61c0.335,0.149,0.684,0.286,1.044,0.41c-0.283-1.176-0.688-2.322-1.207-3.41
				c-0.54-1.132-1.197-2.201-1.968-3.184c-0.479-0.611-1.111-1.474-1.841-1.965c0.123-0.473,0.246-0.947,0.368-1.42
				c0.181-0.697,0.36-1.393,0.539-2.09c0.119,0.039,0.238,0.077,0.358,0.11c0.492,0.136,0.985,0.264,1.474,0.411
				c1.01,0.303,1.993,0.69,2.946,1.148c1.816,0.874,3.506,2.002,5.002,3.379c1.492,1.373,2.779,2.967,3.822,4.724
				c0.457,0.769,0.842,1.558,1.183,2.365c0.316-0.116,0.62-0.246,0.909-0.387c-0.867-1.947-2.055-3.769-3.394-5.333
				c-2.192-2.561-4.983-4.574-8.079-5.801c-0.829-0.328-1.677-0.607-2.538-0.827c-0.461-0.118-0.934-0.213-1.406-0.264
				c-0.051-0.005-0.102-0.009-0.153-0.013c0.493-1.922,0.98-3.846,1.47-5.77c1.407,0.017,2.815-0.002,4.219,0.152
				c1.978,0.218,3.936,0.67,5.813,1.355c3.428,1.252,6.567,3.285,9.169,5.9c0.711,0.714,1.38,1.469,2.003,2.266
				c0.203,0.259,0.394,0.527,0.582,0.797c0.018-0.032,0.037-0.063,0.055-0.096c0.099-0.178,0.195-0.358,0.289-0.54
				c0.053-0.102,0.104-0.205,0.156-0.307c-0.585-0.747-1.225-1.452-1.852-2.113c-1.313-1.384-2.771-2.613-4.339-3.678
				c-3.333-2.263-7.176-3.69-11.136-4.166c-1.59-0.191-3.239-0.299-4.831-0.072c0.501-1.968,1.004-3.936,1.516-5.9
				c0.672,0.022,1.355-0.096,2.02-0.155c0.862-0.076,1.722-0.134,2.588-0.142c1.731-0.015,3.456,0.109,5.166,0.394
				c3.449,0.575,6.795,1.76,9.853,3.506c1.416,0.808,2.682,1.773,3.954,2.767c0.023-0.136,0.046-0.272,0.067-0.408
				c0.034-0.211,0.066-0.424,0.097-0.637c-0.963-0.759-2.012-1.429-3.035-2.043C152.552,183.049,150.891,182.254,149.175,181.616z"
				/>
		</g>
		<ellipse style="fill:#E1ECFF;" cx="253.076" cy="400.034" rx="215.508" ry="9.759"/>
		<g>
			<path style="fill:#007B9B;" d="M103.932,194.138h302.404c3.013,0,5.564,2.225,5.973,5.21l26.736,195.101
				c0.496,3.621-2.318,6.847-5.973,6.847H130.668c-3.013,0-5.564-2.225-5.973-5.21L97.959,200.985
				C97.463,197.364,100.277,194.138,103.932,194.138z"/>
			<path style="fill:#40B1D7;" d="M101.719,194.138h302.404c3.013,0,5.564,2.225,5.973,5.21l26.736,195.101
				c0.496,3.621-2.318,6.847-5.973,6.847H128.455c-3.013,0-5.564-2.225-5.973-5.21L95.746,200.985
				C95.25,197.364,98.064,194.138,101.719,194.138z"/>
			<path style="fill:#00A1C8;" d="M410.095,199.348c-0.409-2.985-2.96-5.21-5.973-5.21H101.719c-3.655,0-6.469,3.226-5.972,6.847
				l26.736,195.101c0.409,2.985,2.959,5.21,5.973,5.21h278.727l16.178-105.157L410.095,199.348z"/>
			<path style="fill:#0099C4;" d="M406.336,194.138l-302.534,2.519c-3.013,0-5.564,2.225-5.973,5.21L71.092,396.968
				c-0.496,3.621,2.318,6.847,5.973,6.847h302.404c3.013,0,5.564-2.225,5.973-5.21l26.866-197.62
				C412.805,197.364,409.99,194.138,406.336,194.138z"/>
			<path style="fill:#75CCF4;" d="M404.106,194.138H101.702c-3.013,0-5.564,2.225-5.973,5.21L68.993,394.449
				c-0.496,3.621,2.318,6.847,5.973,6.847H377.37c3.013,0,5.563-2.225,5.973-5.21l26.736-195.101
				C410.575,197.364,407.761,194.138,404.106,194.138z"/>
			<g>
				<g>
					<path style="fill:#99D7F7;" d="M161.427,233.517H104.3c-0.569,0-1.051,0.42-1.128,0.984l-5.051,36.856
						c-0.094,0.684,0.438,1.293,1.128,1.293h57.127c0.569,0,1.051-0.42,1.128-0.984l5.051-36.856
						C162.649,234.126,162.117,233.517,161.427,233.517z"/>
					<path style="fill:#99D7F7;" d="M235.735,233.517h-57.127c-0.569,0-1.051,0.42-1.128,0.984l-5.051,36.856
						c-0.094,0.684,0.438,1.293,1.128,1.293h57.127c0.569,0,1.051-0.42,1.128-0.984l5.051-36.856
						C236.957,234.126,236.425,233.517,235.735,233.517z"/>
					<path style="fill:#99D7F7;" d="M310.043,233.517h-57.127c-0.569,0-1.051,0.42-1.128,0.984l-5.051,36.856
						c-0.094,0.684,0.438,1.293,1.128,1.293h57.127c0.569,0,1.051-0.42,1.128-0.984l5.051-36.856
						C311.265,234.126,310.733,233.517,310.043,233.517z"/>
					<path style="fill:#99D7F7;" d="M384.351,233.517h-57.127c-0.569,0-1.051,0.42-1.128,0.984l-5.051,36.856
						c-0.094,0.684,0.438,1.293,1.128,1.293H379.3c0.569,0,1.051-0.42,1.128-0.984l5.051-36.856
						C385.573,234.126,385.041,233.517,384.351,233.517z"/>
				</g>
				<g>
					<path style="fill:#99D7F7;" d="M153.548,284.289H96.422c-0.569,0-1.051,0.42-1.128,0.984l-5.051,36.856
						c-0.094,0.684,0.438,1.293,1.128,1.293h57.127c0.569,0,1.051-0.42,1.128-0.984l5.051-36.856
						C154.77,284.899,154.239,284.289,153.548,284.289z"/>
					<path style="fill:#0092BB;" d="M227.856,284.289H170.73c-0.569,0-1.051,0.42-1.128,0.984l-5.051,36.856
						c-0.094,0.684,0.438,1.293,1.128,1.293h57.127c0.569,0,1.051-0.42,1.128-0.984l5.051-36.856
						C229.078,284.899,228.547,284.289,227.856,284.289z"/>
					<path style="fill:#99D7F7;" d="M302.164,284.289h-57.127c-0.569,0-1.051,0.42-1.128,0.984l-5.051,36.856
						c-0.094,0.684,0.438,1.293,1.128,1.293h57.127c0.569,0,1.051-0.42,1.128-0.984l5.051-36.856
						C303.387,284.899,302.855,284.289,302.164,284.289z"/>
					<path style="fill:#99D7F7;" d="M376.473,284.289h-57.127c-0.569,0-1.051,0.42-1.128,0.984l-5.051,36.856
						c-0.094,0.684,0.438,1.293,1.128,1.293h57.127c0.569,0,1.051-0.42,1.128-0.984l5.051-36.856
						C377.694,284.899,377.163,284.289,376.473,284.289z"/>
				</g>
				<g>
					<path style="fill:#99D7F7;" d="M145.67,335.061H88.543c-0.569,0-1.051,0.42-1.128,0.984l-5.051,36.856
						c-0.094,0.684,0.438,1.293,1.128,1.293h57.127c0.569,0,1.051-0.42,1.128-0.984l5.051-36.856
						C146.892,335.671,146.36,335.061,145.67,335.061z"/>
					<path style="fill:#99D7F7;" d="M219.978,335.061h-57.127c-0.569,0-1.051,0.42-1.128,0.984l-5.051,36.856
						c-0.094,0.684,0.438,1.293,1.128,1.293h57.127c0.569,0,1.051-0.42,1.128-0.984l5.051-36.856
						C221.2,335.671,220.668,335.061,219.978,335.061z"/>
					<path style="fill:#99D7F7;" d="M294.286,335.061h-57.127c-0.569,0-1.051,0.42-1.128,0.984l-5.051,36.856
						c-0.094,0.684,0.438,1.293,1.128,1.293h57.127c0.569,0,1.051-0.42,1.128-0.984l5.051-36.856
						C295.508,335.671,294.976,335.061,294.286,335.061z"/>
					<path style="fill:#99D7F7;" d="M368.594,335.061h-57.127c-0.569,0-1.051,0.42-1.128,0.984l-5.051,36.856
						c-0.094,0.684,0.438,1.293,1.128,1.293h57.127c0.569,0,1.051-0.42,1.128-0.984l5.051-36.856
						C369.816,335.671,369.284,335.061,368.594,335.061z"/>
				</g>
			</g>
			<path style="opacity:0.23;fill:#99D7F7;" d="M404.106,194.138H212.697c12.231,93.451,81.867,161.702,174.832,171.398
				l22.549-164.551C410.575,197.364,407.761,194.138,404.106,194.138z"/>
			<g>
				<path style="fill:#27A6D1;" d="M131.842,209.142c0,2.752-0.922,4.983-2.06,4.983c-1.137,0-2.06-2.231-2.06-4.983
					s0.922-4.983,2.06-4.983C130.92,204.159,131.842,206.39,131.842,209.142z"/>
				<path style="fill:#FDCA50;" d="M127.44,174.438c-5.548,0-9.732,8.308-9.732,19.325c0,0.127,0.008,0.248,0.009,0.375
					c0.095,10.828,4.239,18.951,9.723,18.951c1.519,0,2.93-0.642,4.187-1.773c0.133-0.659,0.215-1.391,0.215-2.174
					c0-1.622-0.326-3.049-0.822-3.959c-1.109,2.469-2.465,3.859-3.58,3.859c-2.286,0-5.587-5.797-5.678-14.905
					c-0.001-0.126-0.008-0.247-0.008-0.375c0-9.327,3.368-15.279,5.686-15.279c2.318,0,5.685,5.952,5.685,15.279
					c0,0.128-0.007,0.248-0.008,0.375h4.045c0.001-0.126,0.009-0.248,0.009-0.375C137.171,182.745,132.989,174.438,127.44,174.438z"
					/>
				<path style="fill:#F8B04C;" d="M133.125,193.763c0,0.128-0.007,0.248-0.008,0.375h4.045c0.001-0.126,0.009-0.248,0.009-0.375
					c0-2.039-0.145-3.984-0.413-5.801c-1.34,1.153-2.683,1.692-3.846,1.905C133.045,191.089,133.125,192.384,133.125,193.763z"/>
				<path style="fill:#F8B04C;" d="M120.735,207.988c1.719,3.188,4.052,5.101,6.705,5.101c1.519,0,2.93-0.642,4.187-1.773
					c0.133-0.659,0.215-1.391,0.215-2.174c0-1.622-0.326-3.049-0.822-3.959c-1.109,2.469-2.465,3.859-3.58,3.859
					c-1.157,0-2.572-1.489-3.701-4.135C123.016,206.463,121.878,207.413,120.735,207.988z"/>
			</g>
			<g>
				<path style="fill:#27A6D1;" d="M193.039,209.142c0,2.752-0.922,4.983-2.06,4.983c-1.137,0-2.06-2.231-2.06-4.983
					s0.922-4.983,2.06-4.983C192.117,204.159,193.039,206.39,193.039,209.142z"/>
				<path style="fill:#FDCA50;" d="M188.638,174.438c-5.548,0-9.732,8.308-9.732,19.325c0,0.127,0.008,0.248,0.009,0.375
					c0.095,10.828,4.239,18.951,9.723,18.951c1.519,0,2.93-0.642,4.187-1.773c0.133-0.659,0.214-1.391,0.214-2.174
					c0-1.622-0.325-3.049-0.822-3.959c-1.109,2.469-2.465,3.859-3.58,3.859c-2.286,0-5.587-5.797-5.678-14.905
					c-0.001-0.126-0.008-0.247-0.008-0.375c0-9.327,3.368-15.279,5.686-15.279c2.318,0,5.685,5.952,5.685,15.279
					c0,0.128-0.007,0.248-0.008,0.375h4.046c0.001-0.126,0.009-0.248,0.009-0.375C198.369,182.745,194.186,174.438,188.638,174.438z
					"/>
				<path style="fill:#F8B04C;" d="M194.323,193.763c0,0.128-0.007,0.248-0.008,0.375h4.046c0.001-0.126,0.009-0.248,0.009-0.375
					c0-2.039-0.145-3.984-0.413-5.801c-1.34,1.153-2.683,1.692-3.846,1.905C194.242,191.089,194.323,192.384,194.323,193.763z"/>
				<path style="fill:#F8B04C;" d="M181.933,207.988c1.719,3.188,4.052,5.101,6.705,5.101c1.519,0,2.93-0.642,4.187-1.773
					c0.133-0.659,0.214-1.391,0.214-2.174c0-1.622-0.325-3.049-0.822-3.959c-1.109,2.469-2.465,3.859-3.58,3.859
					c-1.157,0-2.572-1.489-3.701-4.135C184.214,206.463,183.076,207.413,181.933,207.988z"/>
			</g>
			<g>
				<path style="fill:#27A6D1;" d="M254.237,209.142c0,2.752-0.922,4.983-2.059,4.983c-1.137,0-2.06-2.231-2.06-4.983
					s0.922-4.983,2.06-4.983C253.315,204.159,254.237,206.39,254.237,209.142z"/>
				<path style="fill:#FDCA50;" d="M249.835,174.438c-5.548,0-9.732,8.308-9.732,19.325c0,0.127,0.008,0.248,0.009,0.375
					c0.095,10.828,4.239,18.951,9.723,18.951c1.519,0,2.93-0.642,4.187-1.773c0.133-0.659,0.214-1.391,0.214-2.174
					c0-1.622-0.326-3.049-0.822-3.959c-1.109,2.469-2.465,3.859-3.58,3.859c-2.286,0-5.587-5.797-5.678-14.905
					c-0.001-0.126-0.008-0.247-0.008-0.375c0-9.327,3.368-15.279,5.686-15.279s5.685,5.952,5.685,15.279
					c0,0.128-0.007,0.248-0.008,0.375h4.045c0.001-0.126,0.009-0.248,0.009-0.375C259.566,182.745,255.384,174.438,249.835,174.438z
					"/>
				<path style="fill:#F8B04C;" d="M255.521,193.763c0,0.128-0.007,0.248-0.008,0.375h4.045c0.001-0.126,0.009-0.248,0.009-0.375
					c0-2.039-0.145-3.984-0.413-5.801c-1.34,1.153-2.683,1.692-3.846,1.905C255.44,191.089,255.521,192.384,255.521,193.763z"/>
				<path style="fill:#F8B04C;" d="M243.13,207.988c1.719,3.188,4.052,5.101,6.705,5.101c1.519,0,2.93-0.642,4.187-1.773
					c0.133-0.659,0.214-1.391,0.214-2.174c0-1.622-0.326-3.049-0.822-3.959c-1.109,2.469-2.465,3.859-3.58,3.859
					c-1.157,0-2.572-1.489-3.701-4.135C245.411,206.463,244.274,207.413,243.13,207.988z"/>
			</g>
			<g>
				<path style="fill:#27A6D1;" d="M315.434,209.142c0,2.752-0.922,4.983-2.059,4.983c-1.137,0-2.06-2.231-2.06-4.983
					s0.922-4.983,2.06-4.983C314.512,204.159,315.434,206.39,315.434,209.142z"/>
				<path style="fill:#FDCA50;" d="M311.033,174.438c-5.548,0-9.732,8.308-9.732,19.325c0,0.127,0.008,0.248,0.009,0.375
					c0.095,10.828,4.239,18.951,9.723,18.951c1.519,0,2.93-0.642,4.187-1.773c0.133-0.659,0.215-1.391,0.215-2.174
					c0-1.622-0.326-3.049-0.822-3.959c-1.109,2.469-2.465,3.859-3.58,3.859c-2.286,0-5.587-5.797-5.678-14.905
					c-0.001-0.126-0.008-0.247-0.008-0.375c0-9.327,3.368-15.279,5.686-15.279c2.318,0,5.685,5.952,5.685,15.279
					c0,0.128-0.007,0.248-0.008,0.375h4.046c0.001-0.126,0.009-0.248,0.009-0.375C320.764,182.745,316.581,174.438,311.033,174.438z
					"/>
				<path style="fill:#F8B04C;" d="M316.718,193.763c0,0.128-0.007,0.248-0.008,0.375h4.046c0.001-0.126,0.009-0.248,0.009-0.375
					c0-2.039-0.145-3.984-0.414-5.801c-1.34,1.153-2.683,1.692-3.846,1.905C316.637,191.089,316.718,192.384,316.718,193.763z"/>
				<path style="fill:#F8B04C;" d="M304.328,207.988c1.719,3.188,4.052,5.101,6.705,5.101c1.519,0,2.93-0.642,4.187-1.773
					c0.133-0.659,0.215-1.391,0.215-2.174c0-1.622-0.326-3.049-0.822-3.959c-1.109,2.469-2.465,3.859-3.58,3.859
					c-1.157,0-2.572-1.489-3.701-4.135C306.609,206.463,305.471,207.413,304.328,207.988z"/>
			</g>
			<g>
				<path style="fill:#27A6D1;" d="M376.632,209.142c0,2.752-0.922,4.983-2.059,4.983c-1.137,0-2.06-2.231-2.06-4.983
					s0.922-4.983,2.06-4.983C375.71,204.159,376.632,206.39,376.632,209.142z"/>
				<path style="fill:#FDCA50;" d="M372.231,174.438c-5.548,0-9.732,8.308-9.732,19.325c0,0.127,0.008,0.248,0.009,0.375
					c0.095,10.828,4.239,18.951,9.723,18.951c1.519,0,2.93-0.642,4.187-1.773c0.133-0.659,0.215-1.391,0.215-2.174
					c0-1.622-0.326-3.049-0.822-3.959c-1.109,2.469-2.465,3.859-3.58,3.859c-2.286,0-5.587-5.797-5.678-14.905
					c-0.001-0.126-0.008-0.247-0.008-0.375c0-9.327,3.368-15.279,5.686-15.279c2.318,0,5.685,5.952,5.685,15.279
					c0,0.128-0.007,0.248-0.008,0.375h4.046c0.001-0.126,0.009-0.248,0.009-0.375C381.962,182.745,377.779,174.438,372.231,174.438z
					"/>
				<path style="fill:#F8B04C;" d="M377.916,193.763c0,0.128-0.007,0.248-0.008,0.375h4.046c0.001-0.126,0.009-0.248,0.009-0.375
					c0-2.039-0.145-3.984-0.414-5.801c-1.34,1.153-2.683,1.692-3.846,1.905C377.835,191.089,377.916,192.384,377.916,193.763z"/>
				<path style="fill:#F8B04C;" d="M365.526,207.988c1.719,3.188,4.052,5.101,6.705,5.101c1.519,0,2.93-0.642,4.187-1.773
					c0.133-0.659,0.215-1.391,0.215-2.174c0-1.622-0.326-3.049-0.822-3.959c-1.109,2.469-2.465,3.859-3.58,3.859
					c-1.157,0-2.572-1.489-3.701-4.135C367.807,206.463,366.669,207.413,365.526,207.988z"/>
			</g>
		</g>
		<path style="fill:#E1ECFF;" d="M178.517,454.806c0,2.476-18.865,4.483-42.135,4.483c-23.27,0-42.135-2.007-42.135-4.483
			c0-2.476,18.864-4.482,42.135-4.482C159.652,450.323,178.517,452.33,178.517,454.806z"/>
		<g id="g39743_2_" transform="matrix(-1,0,0,1,25198.801,10807.884)">
			<g id="g39779_1_" transform="matrix(-0.81428574,0.58046423,0.58046423,0.81428574,3854.3915,-2185.6952)">
				<g>
					<g>
						<path style="fill:#FDA98F;" d="M-22070.447,5584.358c-3.469-1.545-6.809-2.13-7.133-4.238
							c-0.324-2.114,9.59-3.234,11.617-3.308c2.025-0.074,3.332,2.663,1.049,6.799
							C-22065.795,5585.186-22067.605,5585.629-22070.447,5584.358z"/>
					</g>
					<path style="fill:#FDA98F;" d="M-22068.461,5579.058c-0.154-0.19-0.254-0.43-0.268-0.695c-0.035-0.662,0.473-1.226,1.135-1.26
						l7.449-0.39c0.662-0.036,1.227,0.473,1.262,1.134c0.033,0.662-0.475,1.226-1.137,1.261l-7.449,0.39
						C-22067.865,5579.518-22068.227,5579.343-22068.461,5579.058z"/>
				</g>
				<path id="path39783_1_" style="fill:#FBDC55;" d="M-22098.6,5551.319l1.805,23.638c0.514,3.532-1.934,6.641-5.049,6.919
					c-3.113,0.278-5.68-2.382-6.193-5.914l-4.143-27.721c-0.977-6.208,3.635-7.476,7.006-7.19
					C-22099.613,5541.522-22099.113,5547.788-22098.6,5551.319z"/>
				<path id="path39785_1_" style="fill:#FBDC55;" d="M-22099.492,5584.392c4.912,0.543,27.381-0.36,27.381-0.36l0.27-6.874
					c0,0-17.84-3.531-26.41-4.67c-4.725-0.628-8.107,1.936-9.188,4.628C-22108.461,5579.659-22105.658,5583.71-22099.492,5584.392z"
					/>
			</g>
			<path id="path39755_4_" style="fill:#273139;" d="M25053.826-10360.163l0.748,6.653h-11.947l7.926-6.602L25053.826-10360.163z"/>
			<path id="path39757_2_" style="fill:#2B4B5B;" d="M25048.313-10450.656c0,0,0.535-10.615,11.275-10.615s9.27,10.615,9.27,10.615
				l-14.475,91.685h-5.559L25048.313-10450.656z"/>
			<path id="path39763_2_" style="fill:#273139;" d="M25081.5-10360.163l0.75,6.653h-11.949l7.926-6.602L25081.5-10360.163z"/>
			<path id="path39765_2_" style="fill:#1E3641;" d="M25064.5-10449.385c0,0-0.781-10.467,9.959-10.467s9.182,11.385,9.182,11.385
				l-1.697,89.495h-5.559L25064.5-10449.385z"/>
			<path id="path39767_2_" style="fill:#2B4B5B;" d="M25084.207-10449.563c0,0,0.039,13.861-17.154,14.927
				c-0.557-0.004-1.096-0.016-1.619-0.034c-13.598-0.843-17.182-14.946-17.182-14.946v-10.508l35.43,0.089L25084.207-10449.563z"/>
			<path id="path39761_2_" style="fill:#FFF377;" d="M25064.648-10511.377c6.975-0.92,12.135,0.779,14.85,9.215
				c3.189,9.913,5.9,51.578,5.9,51.578s-6.576,5.448-18.422,6.085c-11.846,0.636-20.561-5.446-20.561-5.446
				s1.176-9.016,2.916-27.574C25050.852-10493.729,25051.547-10509.649,25064.648-10511.377z"/>
			<path id="rect39745_3_" style="fill:#F99B81;" d="M25067.963-10525.592h-3.279c-2.135,0-3.863,1.73-3.863,3.864v10.149
				c0,3.039,2.416,3.604,5.504,3.604s5.504-0.565,5.504-3.604v-10.149C25071.828-10523.861,25070.098-10525.592,25067.963-10525.592
				z"/>
			<path id="path39759_3_" style="fill:#5D333D;" d="M25052.596-10533.831c0,8.37,7.205,18.277,16.092,18.277
				s16.092-9.907,16.092-18.277s-1.139-14.53-16.092-14.53S25052.596-10542.201,25052.596-10533.831z"/>
			<path id="ellipse39769_3_" style="fill:#FDA98F;" d="M25066.287-10543.677c-6.135,0-10.957,2.579-13.23,8.287
				c-0.629,1.58-2.008,9.609-2.209,11.378c-0.803,7.095,6.068,10.032,13.9,10.032s14.523-6.648,14.949-14.849
				C25080.123-10537.029,25074.117-10543.677,25066.287-10543.677z"/>
			<path id="path39771_3_" style="fill:#5D333D;" d="M25059.621-10545.304c12.188,0,17.072,4.371,17.072,4.371l5.027,9.753
				l-1.816,9.296c0,0-2.865,4.702-5.068,5.792c-2.203,1.091-6.992,1.729-10.766,0.055c-3.773-1.675-7.523-10.061-7.523-10.061
				l-1.383-8.616c0,0-8.227-0.291-3.875-2.467c2.533-1.267,1.805-5.493,4.65-7.979
				C25057.086-10545.251,25058.309-10545.304,25059.621-10545.304L25059.621-10545.304z"/>
			<path id="ellipse39773_3_" style="fill:#FDA98F;" d="M25056.531-10532.05c-1.533,0-2.857,2.029-2.959,4.532
				s1.059,4.532,2.59,4.532c1.533,0,2.857-2.029,2.959-4.532S25058.063-10532.05,25056.531-10532.05z"/>
			<path id="path39775_3_" style="fill:#5D333D;" d="M25077.018-10543.902c0,3.132,5.48,15.614,6.445,15.614
				c0.963,0,1.775-9.859,1.775-12.991c0-3.131-2.141-5.924-4.354-5.924C25077-10547.203,25077.018-10547.034,25077.018-10543.902z"
				/>
			<path id="path39777_3_" style="fill:#5D333D;" d="M25054.098-10542.744c0,1.017,8.682,1.114,14.367,1.114
				s10.295-0.528,10.295-4.668c0-4.139-4.609-4.667-10.295-4.667C25057.979-10550.965,25054.098-10543.762,25054.098-10542.744z"/>
			<g id="g39779_2_" transform="matrix(-0.81428574,0.58046423,0.58046423,0.81428574,3854.3915,-2185.6952)">
				<g>
					<g>
						<path style="fill:#FDA98F;" d="M-22049.652,5513.426c-2.232,3.072-3.496,6.218-5.627,6.099
							c-2.135-0.121-1.174-10.054-0.826-12.05c0.35-1.997,3.297-2.708,6.869,0.384
							C-22047.877,5509.047-22047.82,5510.91-22049.652,5513.426z"/>
					</g>
					<path style="fill:#FDA98F;" d="M-22054.426,5510.383c-0.219,0.113-0.473,0.16-0.734,0.118
						c-0.654-0.104-1.102-0.717-0.998-1.372l1.164-7.368c0.104-0.656,0.717-1.102,1.371-0.998c0.654,0.104,1.102,0.717,0.998,1.372
						l-1.164,7.368C-22053.852,5509.896-22054.098,5510.214-22054.426,5510.383z"/>
				</g>
				<path id="path39783_2_" style="fill:#FBDC55;" d="M-22087.814,5534.108l23.498,3.142c3.561,0.23,6.094,3.269,5.721,6.373
					c-0.375,3.104-3.51,5.063-7.07,4.832l-27.979-1.701c-6.275-0.333-6.559-5.108-5.58-8.346
					C-22097.609,5533.068-22091.377,5533.878-22087.814,5534.108z"/>
				<path id="path39785_2_" style="fill:#FBDC55;" d="M-22055.646,5541.847c1.551-4.694,5.33-26.86,5.33-26.86l-6.668-1.69
					c0,0-7.158,16.719-10.051,24.865c-1.596,4.493,0.213,8.333,2.621,9.949
					C-22062.139,5549.638-22057.594,5547.736-22055.646,5541.847z"/>
			</g>
		</g>
		<g>
			<path style="fill:#308993;" d="M425.152,148.794c0,1.462-1.185,2.648-2.648,2.648c-1.462,0-2.648-1.185-2.648-2.648
				c0-1.462,1.185-2.647,2.648-2.647C423.966,146.146,425.152,147.331,425.152,148.794z"/>
			<circle style="fill:#308993;" cx="443.537" cy="130.996" r="0.735"/>
			<path style="fill:#308993;" d="M353.668,161.737c0,0.812-0.658,1.471-1.471,1.471c-0.812,0-1.471-0.659-1.471-1.471
				c0-0.812,0.659-1.471,1.471-1.471C353.01,160.266,353.668,160.925,353.668,161.737z"/>
			<path style="fill:#308993;" d="M474.572,214.835c0,0.731-0.593,1.324-1.324,1.324s-1.324-0.593-1.324-1.324
				c0-0.731,0.593-1.324,1.324-1.324S474.572,214.104,474.572,214.835z"/>
			<path style="fill:#308993;" d="M453.392,309.557c0,1.381-1.12,2.501-2.501,2.501c-1.381,0-2.5-1.12-2.5-2.501
				c0-1.381,1.12-2.5,2.5-2.5C452.272,307.057,453.392,308.176,453.392,309.557z"/>
			<path style="fill:#308993;" d="M483.397,295.29c0,1.462-1.185,2.647-2.648,2.647c-1.462,0-2.648-1.185-2.648-2.647
				c0-1.462,1.185-2.648,2.648-2.648C482.212,292.642,483.397,293.828,483.397,295.29z"/>
			<circle style="fill:#308993;" cx="344.549" cy="180.27" r="1.177"/>
			<path style="fill:#308993;" d="M176.578,162.767c0,0.894-0.724,1.618-1.618,1.618c-0.894,0-1.618-0.724-1.618-1.618
				c0-0.894,0.724-1.618,1.618-1.618C175.854,161.149,176.578,161.873,176.578,162.767z"/>
			<circle style="fill:#308993;" cx="158.634" cy="143.204" r="0.882"/>
			<path style="fill:#308993;" d="M190.993,128.79c0,1.625-1.317,2.942-2.942,2.942c-1.625,0-2.942-1.317-2.942-2.942
				c0-1.625,1.317-2.942,2.942-2.942C189.676,125.848,190.993,127.165,190.993,128.79z"/>
			<path style="fill:#308993;" d="M120.098,129.525c0,0.894-0.724,1.618-1.618,1.618c-0.894,0-1.618-0.724-1.618-1.618
				c0-0.894,0.724-1.618,1.618-1.618C119.373,127.908,120.098,128.632,120.098,129.525z"/>
			<path style="fill:#308993;" d="M53.027,172.18c0,0.731-0.593,1.324-1.324,1.324c-0.731,0-1.324-0.593-1.324-1.324
				s0.593-1.324,1.324-1.324C52.435,170.856,53.027,171.449,53.027,172.18z"/>
			<path style="fill:#308993;" d="M43.908,147.617c0,1.3-1.054,2.353-2.353,2.353c-1.3,0-2.353-1.054-2.353-2.353
				s1.054-2.353,2.353-2.353C42.854,145.264,43.908,146.317,43.908,147.617z"/>
			<circle style="fill:#308993;" cx="27.14" cy="277.934" r="1.177"/>
			<path style="fill:#308993;" d="M69.501,287.936c0,1.462-1.185,2.648-2.647,2.648c-1.462,0-2.648-1.185-2.648-2.648
				c0-1.462,1.185-2.647,2.648-2.647C68.315,285.288,69.501,286.474,69.501,287.936z"/>
		</g>
	</g>
</g>
</svg>
